<?xml version="1.0" encoding="UTF-8"?>
<svg xmlns="http://www.w3.org/2000/svg" xmlns:xlink="http://www.w3.org/1999/xlink" width="64px" height="64px" viewBox="0 0 64 64" version="1.1">
<defs>
<filter id="alpha" filterUnits="objectBoundingBox" x="0%" y="0%" width="100%" height="100%">
  <feColorMatrix type="matrix" in="SourceGraphic" values="0 0 0 0 1 0 0 0 0 1 0 0 0 0 1 0 0 0 1 0"/>
</filter>
<mask id="mask0">
  <g filter="url(#alpha)">
<rect x="0" y="0" width="64" height="64" style="fill:rgb(0%,0%,0%);fill-opacity:0.631373;stroke:none;"/>
  </g>
</mask>
<clipPath id="clip1">
  <rect x="0" y="0" width="64" height="64"/>
</clipPath>
<g id="surface5" clip-path="url(#clip1)">
<path style=" stroke:none;fill-rule:nonzero;fill:rgb(17.647059%,28.627452%,41.176471%);fill-opacity:1;" d="M 43.757812 29.667969 C 44.132812 30.199219 44.257812 30.855469 44.410156 31.472656 C 44.863281 33.246094 44.554688 35.140625 43.832031 36.800781 C 43.695312 37.140625 43.589844 37.558594 43.226562 37.726562 C 42.871094 37.949219 42.394531 37.6875 42.269531 37.320312 C 42.125 37.042969 42.273438 36.742188 42.375 36.480469 C 43.007812 35.195312 43.121094 33.722656 43.003906 32.3125 C 42.960938 31.984375 42.832031 31.664062 42.855469 31.328125 C 42.929688 31.507812 43.003906 31.6875 43.03125 31.882812 C 43.28125 33.488281 43.132812 35.191406 42.386719 36.648438 C 42.289062 36.894531 42.347656 37.164062 42.347656 37.417969 C 42.550781 37.566406 42.78125 37.75 43.050781 37.683594 C 43.390625 37.632812 43.53125 37.273438 43.660156 37.003906 C 44.015625 36.121094 44.386719 35.21875 44.441406 34.257812 C 44.628906 33.332031 44.472656 32.390625 44.335938 31.464844 C 44.21875 30.84375 43.933594 30.273438 43.757812 29.667969 Z M 43.757812 29.667969 "/>
</g>
<mask id="mask1">
  <g filter="url(#alpha)">
<rect x="0" y="0" width="64" height="64" style="fill:rgb(0%,0%,0%);fill-opacity:0.670588;stroke:none;"/>
  </g>
</mask>
<clipPath id="clip2">
  <rect x="0" y="0" width="64" height="64"/>
</clipPath>
<g id="surface8" clip-path="url(#clip2)">
<path style=" stroke:none;fill-rule:nonzero;fill:rgb(25.490198%,23.529412%,41.960785%);fill-opacity:1;" d="M 24.917969 41.101562 C 26.257812 40.769531 27.644531 40.585938 29.027344 40.703125 C 30.167969 40.777344 31.300781 40.988281 32.382812 41.363281 C 33.402344 41.683594 34.367188 42.15625 35.3125 42.648438 C 35.949219 42.96875 36.675781 43.296875 37.394531 43.058594 C 37.789062 42.9375 38.097656 42.648438 38.394531 42.375 C 38.328125 42.644531 38.054688 42.761719 37.855469 42.925781 C 37.367188 43.289062 36.703125 43.339844 36.144531 43.109375 C 35.054688 42.679688 34.0625 42.03125 32.949219 41.65625 C 31.78125 41.203125 30.546875 40.933594 29.300781 40.792969 C 28.117188 40.734375 26.914062 40.710938 25.757812 41.019531 C 25.316406 41.089844 24.894531 41.253906 24.449219 41.28125 C 24.605469 41.222656 24.757812 41.15625 24.917969 41.101562 Z M 24.917969 41.101562 "/>
</g>
<mask id="mask2">
  <g filter="url(#alpha)">
<rect x="0" y="0" width="64" height="64" style="fill:rgb(0%,0%,0%);fill-opacity:0.698039;stroke:none;"/>
  </g>
</mask>
<clipPath id="clip3">
  <rect x="0" y="0" width="64" height="64"/>
</clipPath>
<g id="surface11" clip-path="url(#clip3)">
<path style=" stroke:none;fill-rule:nonzero;fill:rgb(26.666668%,30.980393%,51.372552%);fill-opacity:1;" d="M 18.679688 51.417969 C 19.277344 51.425781 19.84375 51.632812 20.429688 51.703125 C 22.21875 51.929688 24.007812 52.195312 25.8125 52.285156 C 27.695312 52.472656 29.589844 52.445312 31.480469 52.507812 C 33.246094 52.488281 35.011719 52.433594 36.773438 52.390625 C 36.726562 52.402344 36.636719 52.421875 36.589844 52.429688 C 35.339844 52.566406 34.078125 52.554688 32.824219 52.609375 C 31.964844 52.648438 31.105469 52.628906 30.242188 52.59375 C 28.769531 52.542969 27.292969 52.496094 25.824219 52.371094 C 24.980469 52.332031 24.144531 52.171875 23.300781 52.144531 C 22.835938 52.136719 22.378906 52.050781 21.921875 51.988281 C 21.417969 51.933594 20.925781 51.84375 20.429688 51.75 C 19.847656 51.632812 19.234375 51.65625 18.679688 51.417969 Z M 18.679688 51.417969 "/>
</g>
<mask id="mask3">
  <g filter="url(#alpha)">
<rect x="0" y="0" width="64" height="64" style="fill:rgb(0%,0%,0%);fill-opacity:0.65098;stroke:none;"/>
  </g>
</mask>
<clipPath id="clip4">
  <rect x="0" y="0" width="64" height="64"/>
</clipPath>
<g id="surface14" clip-path="url(#clip4)">
<path style=" stroke:none;fill-rule:nonzero;fill:rgb(29.803923%,25.490198%,45.882353%);fill-opacity:1;" d="M 10.785156 59.410156 C 11.324219 59.480469 11.851562 59.625 12.390625 59.671875 C 13.230469 59.753906 14.042969 60.007812 14.886719 60.042969 C 15.671875 60.148438 16.457031 60.277344 17.242188 60.367188 C 18.488281 60.589844 19.757812 60.601562 21.011719 60.753906 C 22.730469 60.890625 24.449219 61.089844 26.175781 61.09375 C 26.277344 61.109375 26.378906 61.125 26.484375 61.140625 L 26.582031 61.15625 C 25.875 61.164062 25.167969 61.09375 24.460938 61.097656 C 23.570312 60.972656 22.671875 61.015625 21.78125 60.914062 C 21.164062 60.800781 20.535156 60.847656 19.914062 60.757812 C 18.164062 60.527344 16.402344 60.390625 14.660156 60.09375 C 13.59375 59.933594 12.519531 59.796875 11.464844 59.578125 C 11.242188 59.515625 10.964844 59.578125 10.785156 59.410156 Z M 10.785156 59.410156 "/>
</g>
<mask id="mask4">
  <g filter="url(#alpha)">
<rect x="0" y="0" width="64" height="64" style="fill:rgb(0%,0%,0%);fill-opacity:0.709804;stroke:none;"/>
  </g>
</mask>
<clipPath id="clip5">
  <rect x="0" y="0" width="64" height="64"/>
</clipPath>
<g id="surface17" clip-path="url(#clip5)">
<path style=" stroke:none;fill-rule:nonzero;fill:rgb(23.137255%,35.686275%,52.156866%);fill-opacity:1;" d="M 45.519531 60.554688 C 47.011719 60.445312 48.476562 60.078125 49.972656 59.992188 C 48.132812 60.390625 46.253906 60.503906 44.394531 60.753906 C 43.738281 60.839844 43.070312 60.800781 42.417969 60.925781 C 41.765625 60.96875 41.113281 61.007812 40.457031 61.023438 C 39.746094 61.167969 39.015625 61.070312 38.300781 61.175781 C 37.128906 61.171875 35.964844 61.324219 34.792969 61.304688 C 32.058594 61.304688 29.3125 61.359375 26.582031 61.15625 L 26.484375 61.140625 C 27.917969 61.082031 29.347656 61.222656 30.777344 61.195312 C 32.472656 61.183594 34.167969 61.246094 35.863281 61.15625 C 36.464844 61.117188 37.074219 61.109375 37.679688 61.132812 C 38.578125 61.085938 39.476562 61.070312 40.375 60.988281 C 41.6875 60.894531 42.996094 60.773438 44.304688 60.648438 C 44.710938 60.605469 45.113281 60.585938 45.519531 60.554688 Z M 45.519531 60.554688 "/>
</g>
</defs>
<g id="surface1">
<path style=" stroke:none;fill-rule:nonzero;fill:rgb(66.666669%,41.568628%,86.666667%);fill-opacity:1;" d="M 28.40625 4.566406 C 29.246094 3.714844 30.273438 2.894531 31.519531 2.835938 C 31.355469 3.007812 31.199219 3.214844 30.953125 3.261719 C 30.640625 3.335938 30.382812 3.558594 30.054688 3.578125 C 29.914062 3.824219 29.992188 4.050781 30.1875 4.230469 C 30.109375 4.261719 30.035156 4.292969 29.957031 4.324219 C 29.9375 4.574219 29.921875 4.824219 29.90625 5.078125 C 29.765625 5.121094 29.601562 5.128906 29.5 5.246094 C 29.308594 5.433594 29.375 5.722656 29.324219 5.960938 C 29.289062 6.230469 29.0625 6.402344 28.867188 6.5625 C 28.886719 6.621094 28.910156 6.679688 28.929688 6.738281 C 28.753906 6.941406 28.574219 7.171875 28.554688 7.453125 C 28.535156 7.636719 28.585938 7.855469 28.4375 8 C 28.078125 8.472656 27.484375 8.972656 27.691406 9.632812 C 27.597656 9.710938 27.503906 9.789062 27.425781 9.882812 C 27.402344 10.046875 27.417969 10.214844 27.402344 10.378906 C 27.261719 10.507812 27.082031 10.578125 26.910156 10.667969 C 27.003906 10.792969 27.085938 10.929688 27.160156 11.070312 C 26.921875 10.921875 26.691406 11.164062 26.578125 11.347656 C 26.554688 11.664062 26.601562 11.976562 26.609375 12.292969 C 26.476562 12.347656 26.34375 12.402344 26.210938 12.460938 C 26.238281 12.714844 26.410156 13.023438 26.203125 13.242188 C 26.191406 13.144531 26.179688 13.042969 26.167969 12.945312 C 26.066406 12.96875 25.960938 12.992188 25.855469 13.015625 C 25.886719 13.1875 25.972656 13.363281 25.925781 13.539062 C 25.820312 13.738281 25.660156 13.902344 25.519531 14.074219 C 25.613281 14.136719 25.710938 14.199219 25.804688 14.257812 C 25.761719 14.304688 25.71875 14.355469 25.675781 14.402344 C 25.617188 14.363281 25.503906 14.289062 25.445312 14.25 C 25.460938 14.410156 25.480469 14.574219 25.5 14.734375 C 25.371094 14.792969 25.246094 14.851562 25.117188 14.90625 C 25.1875 14.96875 25.257812 15.027344 25.324219 15.089844 C 25.277344 15.1875 25.226562 15.28125 25.179688 15.378906 C 25.214844 15.460938 25.253906 15.539062 25.289062 15.621094 C 25.222656 15.871094 25.171875 16.125 25.132812 16.378906 C 24.9375 16.472656 24.738281 16.582031 24.652344 16.792969 C 24.507812 17 24.589844 17.246094 24.578125 17.476562 C 24.480469 17.851562 24.179688 18.160156 23.792969 18.230469 C 23.832031 18.316406 23.875 18.402344 23.917969 18.492188 C 23.828125 18.765625 23.769531 19.058594 23.859375 19.34375 C 23.753906 19.542969 23.628906 19.746094 23.628906 19.980469 C 23.035156 20.273438 23.246094 21.058594 22.839844 21.484375 C 22.453125 21.800781 22.453125 22.34375 22.304688 22.78125 C 22.214844 22.820312 22.128906 22.859375 22.039062 22.898438 C 22.011719 23.015625 21.996094 23.144531 21.914062 23.242188 C 21.707031 23.488281 21.75 23.832031 21.628906 24.117188 C 21.503906 24.265625 21.320312 24.355469 21.179688 24.492188 C 21.148438 24.664062 21.253906 24.824219 21.308594 24.980469 C 21.054688 25.277344 20.996094 25.699219 20.679688 25.949219 C 20.378906 26.164062 20.421875 26.578125 20.257812 26.875 C 20.125 27.117188 19.671875 27.046875 19.695312 27.378906 C 19.683594 27.683594 19.65625 27.988281 19.550781 28.273438 C 19.617188 28.363281 19.683594 28.453125 19.75 28.546875 C 17.492188 32.261719 15.445312 36.109375 13.648438 40.066406 C 13.066406 41.277344 12.578125 42.527344 12.097656 43.777344 C 11.703125 44.882812 11.304688 46.003906 11.199219 47.183594 C 11.152344 47.621094 11.257812 48.058594 11.425781 48.460938 C 11.230469 48.46875 11.035156 48.476562 10.84375 48.484375 C 10.839844 48.867188 10.917969 49.257812 10.828125 49.636719 C 10.808594 49.816406 10.613281 49.785156 10.484375 49.824219 C 10.472656 49.984375 10.457031 50.148438 10.449219 50.308594 C 10.542969 50.308594 10.632812 50.308594 10.726562 50.308594 C 10.613281 50.585938 10.335938 50.71875 10.097656 50.871094 C 10.125 50.914062 10.179688 51 10.207031 51.046875 C 10.300781 51.011719 10.390625 50.980469 10.484375 50.949219 C 10.371094 51.109375 10.21875 51.230469 10.058594 51.339844 C 10.105469 51.5 10.148438 51.664062 10.195312 51.828125 C 10.039062 51.894531 9.878906 51.964844 9.722656 52.039062 C 9.808594 52.085938 9.890625 52.132812 9.976562 52.183594 C 9.839844 52.375 9.652344 52.523438 9.457031 52.65625 C 9.480469 52.765625 9.542969 52.875 9.527344 52.988281 C 9.398438 53.273438 9.085938 53.398438 8.828125 53.546875 C 8.761719 53.945312 8.960938 54.34375 8.847656 54.738281 C 8.683594 55.410156 8.792969 56.109375 8.625 56.78125 C 8.601562 56.960938 8.429688 57.058594 8.304688 57.171875 C 8.402344 57.335938 8.5 57.5 8.597656 57.667969 C 8.515625 57.71875 8.4375 57.773438 8.355469 57.824219 C 8.476562 57.871094 8.597656 57.914062 8.71875 57.957031 C 8.726562 58.242188 8.738281 58.527344 8.753906 58.8125 C 8.691406 58.828125 8.5625 58.855469 8.496094 58.867188 C 8.246094 58.871094 7.980469 58.835938 7.757812 58.71875 C 7.175781 58.617188 6.621094 58.402344 6.054688 58.25 C 5.714844 58.121094 5.371094 58.003906 5.019531 57.925781 L 5.007812 57.867188 C 5 57.800781 4.976562 57.671875 4.964844 57.605469 C 4.839844 57.515625 4.71875 57.429688 4.59375 57.34375 C 4.644531 57.089844 4.75 56.839844 4.726562 56.578125 C 4.597656 55.867188 4.710938 55.097656 5.09375 54.476562 C 5.027344 54.324219 4.960938 54.167969 4.894531 54.015625 C 5.015625 54.027344 5.132812 54.039062 5.253906 54.050781 C 5.347656 53.820312 5.359375 53.578125 5.226562 53.359375 C 5.324219 53.3125 5.421875 53.265625 5.519531 53.222656 C 5.40625 52.992188 5.21875 52.753906 5.296875 52.484375 C 5.332031 52.242188 5.515625 52.074219 5.664062 51.898438 C 5.578125 51.851562 5.496094 51.808594 5.410156 51.761719 C 5.621094 51.515625 5.871094 51.296875 6.03125 51.015625 C 6.035156 50.867188 5.984375 50.726562 5.996094 50.582031 C 6.09375 50.382812 6.246094 50.222656 6.378906 50.050781 C 6.476562 50.039062 6.578125 50.03125 6.675781 50.019531 C 6.605469 49.941406 6.539062 49.863281 6.46875 49.785156 C 6.652344 49.414062 6.847656 48.988281 6.699219 48.566406 C 6.664062 48.136719 7.109375 47.902344 7.449219 47.757812 C 7.398438 47.550781 7.328125 47.347656 7.296875 47.136719 C 7.367188 47.027344 7.449219 46.929688 7.527344 46.828125 C 7.515625 46.578125 7.5625 46.285156 7.789062 46.140625 C 7.921875 46.121094 8.046875 46.183594 8.171875 46.207031 C 8.101562 46.050781 7.992188 45.921875 7.878906 45.796875 C 7.839844 45.636719 7.871094 45.472656 7.875 45.3125 C 7.921875 45.449219 7.972656 45.589844 8.019531 45.730469 C 8.058594 45.589844 8.101562 45.453125 8.144531 45.3125 C 8.0625 45.257812 7.980469 45.199219 7.898438 45.144531 C 8.171875 44.917969 8.085938 44.496094 8.394531 44.292969 C 8.398438 44.171875 8.394531 44.050781 8.40625 43.933594 C 8.390625 43.617188 8.761719 43.511719 8.878906 43.257812 C 8.878906 43.035156 8.828125 42.816406 8.808594 42.597656 C 9 42.503906 9.183594 42.40625 9.367188 42.300781 C 9.25 42.160156 9.144531 42.015625 9.09375 41.839844 C 9.214844 41.851562 9.335938 41.863281 9.457031 41.875 C 9.390625 41.457031 9.378906 41.023438 9.558594 40.628906 C 9.648438 40.613281 9.734375 40.601562 9.824219 40.589844 C 9.699219 40.492188 9.570312 40.398438 9.445312 40.304688 C 9.488281 40.152344 9.515625 39.992188 9.582031 39.847656 C 9.730469 39.585938 10.027344 39.4375 10.152344 39.160156 C 10.226562 38.996094 10.109375 38.835938 10.058594 38.6875 C 10.113281 38.652344 10.171875 38.621094 10.230469 38.585938 C 10.214844 38.507812 10.199219 38.429688 10.191406 38.347656 C 10.308594 38.234375 10.488281 38.207031 10.636719 38.136719 C 10.570312 38.011719 10.5 37.886719 10.433594 37.757812 C 10.523438 37.738281 10.609375 37.71875 10.699219 37.699219 C 10.757812 37.480469 10.8125 37.265625 10.875 37.050781 C 10.851562 36.984375 10.828125 36.917969 10.808594 36.851562 C 10.847656 36.675781 10.882812 36.5 10.917969 36.324219 C 11 36.28125 11.085938 36.238281 11.171875 36.199219 C 11.15625 36.148438 11.144531 36.097656 11.128906 36.046875 C 11.289062 35.917969 11.476562 35.808594 11.597656 35.640625 C 11.675781 35.210938 11.464844 34.777344 11.59375 34.347656 C 11.675781 34.5 11.722656 34.664062 11.769531 34.828125 C 11.871094 34.835938 11.980469 34.84375 12.085938 34.851562 C 11.996094 34.636719 11.898438 34.425781 11.804688 34.210938 C 11.941406 34.261719 12.066406 34.335938 12.183594 34.421875 C 12.238281 33.984375 12.382812 33.539062 12.230469 33.105469 C 12.152344 32.894531 12.398438 32.800781 12.535156 32.710938 C 12.550781 32.828125 12.566406 32.945312 12.582031 33.0625 C 12.710938 32.894531 12.917969 32.707031 12.832031 32.472656 C 12.6875 32.128906 12.847656 31.773438 12.929688 31.4375 C 13.015625 31.484375 13.097656 31.53125 13.1875 31.578125 C 13.179688 31.433594 13.171875 31.285156 13.164062 31.140625 C 13.292969 31.0625 13.429688 30.992188 13.550781 30.898438 C 13.585938 30.714844 13.566406 30.53125 13.558594 30.347656 C 13.667969 30.214844 13.773438 30.082031 13.878906 29.949219 C 13.78125 29.519531 14.214844 29.246094 14.230469 28.839844 C 14.300781 28.566406 14.203125 28.292969 14.203125 28.023438 C 14.347656 27.816406 14.699219 27.84375 14.773438 27.570312 C 14.882812 27.402344 14.804688 27.222656 14.730469 27.0625 C 14.777344 27.050781 14.867188 27.03125 14.914062 27.019531 C 14.851562 26.90625 14.792969 26.796875 14.734375 26.683594 C 14.785156 26.710938 14.886719 26.761719 14.941406 26.785156 C 15.097656 26.542969 15.152344 26.257812 15.152344 25.976562 C 15.265625 25.964844 15.375 25.957031 15.484375 25.949219 C 15.421875 25.863281 15.359375 25.777344 15.292969 25.691406 C 15.417969 25.597656 15.539062 25.507812 15.664062 25.414062 C 15.621094 25.339844 15.578125 25.265625 15.535156 25.191406 C 15.640625 25.101562 15.742188 25.015625 15.847656 24.929688 C 15.753906 24.871094 15.664062 24.816406 15.570312 24.761719 C 15.714844 24.460938 15.988281 24.265625 16.253906 24.082031 C 16.265625 23.820312 16.25 23.542969 16.40625 23.320312 C 16.546875 23.128906 16.582031 22.894531 16.585938 22.664062 C 16.738281 22.652344 16.894531 22.640625 17.046875 22.628906 C 17 22.457031 16.953125 22.289062 16.898438 22.117188 C 17.082031 22.113281 17.265625 22.105469 17.449219 22.09375 C 17.351562 22.039062 17.257812 21.988281 17.160156 21.9375 C 17.300781 21.894531 17.4375 21.851562 17.578125 21.808594 C 17.601562 21.761719 17.644531 21.671875 17.667969 21.625 C 17.539062 21.636719 17.414062 21.652344 17.285156 21.664062 C 17.320312 21.605469 17.355469 21.550781 17.386719 21.492188 C 17.332031 21.476562 17.214844 21.445312 17.160156 21.433594 C 17.335938 21.375 17.511719 21.316406 17.6875 21.261719 C 17.703125 20.898438 17.667969 20.53125 17.742188 20.171875 C 17.894531 19.996094 18.101562 19.875 18.253906 19.699219 C 18.390625 19.5 18.480469 19.269531 18.589844 19.050781 C 18.5625 18.992188 18.539062 18.933594 18.515625 18.871094 C 18.667969 18.8125 18.820312 18.753906 18.972656 18.691406 C 18.898438 18.609375 18.820312 18.527344 18.746094 18.449219 C 19.015625 18.324219 19.082031 18.066406 19.054688 17.796875 C 19.160156 17.773438 19.265625 17.753906 19.375 17.734375 C 19.226562 17.636719 19.082031 17.527344 19.019531 17.355469 C 19.28125 17.277344 19.519531 17.140625 19.707031 16.9375 C 19.660156 16.632812 19.535156 16.285156 19.710938 15.996094 C 19.96875 15.664062 20.25 15.335938 20.414062 14.941406 C 20.546875 14.960938 20.683594 14.984375 20.820312 15.003906 C 20.773438 14.886719 20.734375 14.769531 20.691406 14.652344 C 20.960938 14.269531 21.09375 13.808594 21.410156 13.457031 C 21.71875 13.085938 22.039062 12.699219 22.109375 12.203125 C 22.175781 11.988281 22.359375 11.832031 22.480469 11.644531 C 24.328125 9.179688 26.269531 6.785156 28.40625 4.566406 Z M 28.40625 4.566406 "/>
<path style=" stroke:none;fill-rule:nonzero;fill:rgb(61.176473%,43.529412%,86.666667%);fill-opacity:1;" d="M 31.519531 2.835938 C 32.3125 2.785156 33.148438 2.859375 33.84375 3.269531 C 33.6875 3.316406 33.523438 3.351562 33.359375 3.378906 C 33.34375 3.722656 33.128906 3.976562 32.910156 4.21875 C 32.765625 4.605469 32.777344 5.058594 32.4375 5.355469 C 32.480469 5.453125 32.527344 5.550781 32.574219 5.644531 C 32.394531 5.730469 32.214844 5.8125 32.039062 5.894531 C 32.121094 5.984375 32.207031 6.074219 32.292969 6.164062 C 32.199219 6.160156 32.109375 6.152344 32.019531 6.144531 C 32.007812 6.335938 31.996094 6.527344 31.984375 6.71875 C 31.769531 6.820312 31.542969 6.90625 31.316406 6.980469 C 31.246094 7.308594 31.242188 7.644531 31.226562 7.976562 C 31.222656 8.1875 30.996094 8.261719 30.847656 8.351562 C 30.53125 8.5 30.585938 8.914062 30.441406 9.179688 C 30.300781 9.246094 30.148438 9.289062 30 9.335938 C 30.019531 9.632812 29.988281 9.933594 29.855469 10.203125 C 29.910156 10.242188 29.964844 10.28125 30.019531 10.320312 C 30.003906 10.347656 29.980469 10.402344 29.96875 10.429688 C 29.898438 10.457031 29.828125 10.484375 29.757812 10.507812 C 29.800781 10.574219 29.84375 10.636719 29.886719 10.703125 C 29.726562 10.882812 29.539062 11.042969 29.390625 11.238281 C 29.25 11.722656 29.222656 12.234375 29.210938 12.730469 C 29.09375 12.644531 29 12.527344 28.902344 12.414062 C 28.855469 12.523438 28.800781 12.625 28.726562 12.71875 C 28.84375 12.785156 28.960938 12.851562 29.078125 12.917969 C 28.917969 13.039062 28.660156 13.117188 28.648438 13.351562 C 28.605469 13.710938 28.609375 14.074219 28.570312 14.4375 C 28.449219 14.390625 28.328125 14.347656 28.207031 14.304688 C 27.832031 14.707031 28.011719 15.289062 27.863281 15.773438 C 27.863281 15.914062 27.722656 15.953125 27.621094 16.003906 C 27.601562 16.054688 27.585938 16.105469 27.566406 16.15625 C 27.460938 16.222656 27.351562 16.285156 27.246094 16.351562 C 27.285156 16.496094 27.324219 16.640625 27.363281 16.785156 C 27.300781 16.882812 27.234375 16.976562 27.171875 17.074219 C 27.230469 17.148438 27.289062 17.21875 27.347656 17.292969 C 27.457031 17.238281 27.566406 17.179688 27.675781 17.121094 C 24.742188 20.714844 22.167969 24.589844 19.75 28.546875 C 19.683594 28.453125 19.617188 28.363281 19.550781 28.273438 C 19.65625 27.988281 19.683594 27.683594 19.695312 27.378906 C 19.671875 27.046875 20.125 27.117188 20.257812 26.875 C 20.421875 26.578125 20.378906 26.164062 20.679688 25.949219 C 20.996094 25.699219 21.054688 25.277344 21.308594 24.980469 C 21.253906 24.824219 21.148438 24.664062 21.179688 24.492188 C 21.320312 24.355469 21.503906 24.265625 21.628906 24.117188 C 21.75 23.832031 21.707031 23.488281 21.914062 23.242188 C 21.996094 23.144531 22.011719 23.015625 22.039062 22.898438 C 22.128906 22.859375 22.214844 22.820312 22.304688 22.78125 C 22.453125 22.34375 22.453125 21.800781 22.839844 21.484375 C 23.246094 21.058594 23.035156 20.273438 23.628906 19.980469 C 23.628906 19.746094 23.753906 19.542969 23.859375 19.34375 C 23.769531 19.058594 23.828125 18.765625 23.917969 18.492188 C 23.875 18.402344 23.832031 18.316406 23.792969 18.230469 C 24.179688 18.160156 24.480469 17.851562 24.578125 17.476562 C 24.589844 17.246094 24.507812 17 24.652344 16.792969 C 24.738281 16.582031 24.9375 16.472656 25.132812 16.378906 C 25.171875 16.125 25.222656 15.871094 25.289062 15.621094 C 25.253906 15.539062 25.214844 15.460938 25.179688 15.378906 C 25.226562 15.28125 25.277344 15.1875 25.324219 15.089844 C 25.257812 15.027344 25.1875 14.96875 25.117188 14.90625 C 25.246094 14.851562 25.371094 14.792969 25.5 14.734375 C 25.480469 14.574219 25.460938 14.410156 25.445312 14.25 C 25.503906 14.289062 25.617188 14.363281 25.675781 14.402344 C 25.71875 14.355469 25.761719 14.304688 25.804688 14.257812 C 25.710938 14.199219 25.613281 14.136719 25.519531 14.074219 C 25.660156 13.902344 25.820312 13.738281 25.925781 13.539062 C 25.972656 13.363281 25.886719 13.1875 25.855469 13.015625 C 25.960938 12.992188 26.066406 12.96875 26.167969 12.945312 C 26.179688 13.042969 26.191406 13.144531 26.203125 13.242188 C 26.410156 13.023438 26.238281 12.714844 26.210938 12.460938 C 26.34375 12.402344 26.476562 12.347656 26.609375 12.292969 C 26.601562 11.976562 26.554688 11.664062 26.578125 11.347656 C 26.691406 11.164062 26.921875 10.921875 27.160156 11.070312 C 27.085938 10.929688 27.003906 10.792969 26.910156 10.667969 C 27.082031 10.578125 27.261719 10.507812 27.402344 10.378906 C 27.417969 10.214844 27.402344 10.046875 27.425781 9.882812 C 27.503906 9.789062 27.597656 9.710938 27.691406 9.632812 C 27.484375 8.972656 28.078125 8.472656 28.4375 8 C 28.585938 7.855469 28.535156 7.636719 28.554688 7.453125 C 28.574219 7.171875 28.753906 6.941406 28.929688 6.738281 C 28.910156 6.679688 28.886719 6.621094 28.867188 6.5625 C 29.0625 6.402344 29.289062 6.230469 29.324219 5.960938 C 29.375 5.722656 29.308594 5.433594 29.5 5.246094 C 29.601562 5.128906 29.765625 5.121094 29.90625 5.078125 C 29.921875 4.824219 29.9375 4.574219 29.957031 4.324219 C 30.035156 4.292969 30.109375 4.261719 30.1875 4.230469 C 29.992188 4.050781 29.914062 3.824219 30.054688 3.578125 C 30.382812 3.558594 30.640625 3.335938 30.953125 3.261719 C 31.199219 3.214844 31.355469 3.007812 31.519531 2.835938 Z M 31.519531 2.835938 "/>
<path style=" stroke:none;fill-rule:nonzero;fill:rgb(56.470591%,45.882353%,87.450981%);fill-opacity:1;" d="M 33.359375 3.378906 C 33.523438 3.351562 33.6875 3.316406 33.84375 3.269531 L 33.886719 3.261719 C 35.21875 3.992188 36.152344 5.214844 37.152344 6.320312 C 37.265625 6.414062 37.371094 6.515625 37.445312 6.648438 C 37.316406 6.636719 37.195312 6.605469 37.074219 6.570312 C 36.808594 6.757812 36.742188 7.074219 36.699219 7.378906 C 36.535156 7.449219 36.363281 7.496094 36.21875 7.59375 C 36.085938 7.792969 36.027344 8.027344 35.886719 8.222656 C 35.75 8.359375 35.574219 8.457031 35.4375 8.589844 C 35.375 8.902344 35.328125 9.222656 35.167969 9.5 C 35.1875 9.535156 35.222656 9.609375 35.238281 9.644531 C 35.042969 9.730469 34.855469 9.839844 34.6875 9.972656 C 34.742188 10.058594 34.800781 10.148438 34.859375 10.238281 C 34.683594 10.265625 34.503906 10.292969 34.328125 10.320312 C 34.367188 10.398438 34.40625 10.476562 34.445312 10.558594 C 34.316406 10.589844 34.1875 10.625 34.058594 10.65625 C 34.199219 10.710938 34.339844 10.761719 34.476562 10.8125 C 34.332031 10.851562 34.183594 10.886719 34.039062 10.925781 C 33.960938 11.226562 33.960938 11.539062 33.984375 11.851562 C 33.941406 11.902344 33.894531 11.957031 33.851562 12.011719 C 33.859375 12.058594 33.867188 12.101562 33.875 12.144531 C 33.714844 12.234375 33.480469 12.265625 33.421875 12.46875 C 33.316406 12.78125 33.464844 13.164062 33.195312 13.417969 C 33.277344 13.546875 33.359375 13.675781 33.441406 13.804688 C 33.269531 13.78125 33.097656 13.761719 32.925781 13.730469 C 32.390625 13.527344 31.777344 13.457031 31.242188 13.695312 C 30.246094 14.058594 29.601562 14.9375 28.898438 15.679688 C 28.480469 16.148438 28.082031 16.636719 27.675781 17.121094 C 27.566406 17.179688 27.457031 17.238281 27.347656 17.292969 C 27.289062 17.21875 27.230469 17.148438 27.171875 17.074219 C 27.234375 16.976562 27.300781 16.882812 27.363281 16.785156 C 27.324219 16.640625 27.285156 16.496094 27.246094 16.351562 C 27.351562 16.285156 27.460938 16.222656 27.566406 16.15625 C 27.585938 16.105469 27.601562 16.054688 27.621094 16.003906 C 27.722656 15.953125 27.863281 15.914062 27.863281 15.773438 C 28.011719 15.289062 27.832031 14.707031 28.207031 14.304688 C 28.328125 14.347656 28.449219 14.390625 28.570312 14.4375 C 28.609375 14.074219 28.605469 13.710938 28.648438 13.351562 C 28.660156 13.117188 28.917969 13.039062 29.078125 12.917969 C 28.960938 12.851562 28.84375 12.785156 28.726562 12.71875 C 28.800781 12.625 28.855469 12.523438 28.902344 12.414062 C 29 12.527344 29.09375 12.644531 29.210938 12.730469 C 29.222656 12.234375 29.25 11.722656 29.390625 11.238281 C 29.539062 11.042969 29.726562 10.882812 29.886719 10.703125 C 29.84375 10.636719 29.800781 10.574219 29.757812 10.507812 C 29.828125 10.484375 29.898438 10.457031 29.96875 10.429688 C 29.980469 10.402344 30.003906 10.347656 30.019531 10.320312 C 29.964844 10.28125 29.910156 10.242188 29.855469 10.203125 C 29.988281 9.933594 30.019531 9.632812 30 9.335938 C 30.148438 9.289062 30.300781 9.246094 30.441406 9.179688 C 30.585938 8.914062 30.53125 8.5 30.847656 8.351562 C 30.996094 8.261719 31.222656 8.1875 31.226562 7.976562 C 31.242188 7.644531 31.246094 7.308594 31.316406 6.980469 C 31.542969 6.90625 31.769531 6.820312 31.984375 6.71875 C 31.996094 6.527344 32.007812 6.335938 32.019531 6.144531 C 32.109375 6.152344 32.199219 6.160156 32.292969 6.164062 C 32.207031 6.074219 32.121094 5.984375 32.039062 5.894531 C 32.214844 5.8125 32.394531 5.730469 32.574219 5.644531 C 32.527344 5.550781 32.480469 5.453125 32.4375 5.355469 C 32.777344 5.058594 32.765625 4.605469 32.910156 4.21875 C 33.128906 3.976562 33.34375 3.722656 33.359375 3.378906 Z M 33.359375 3.378906 "/>
<path style=" stroke:none;fill-rule:nonzero;fill:rgb(49.803922%,49.411765%,87.843138%);fill-opacity:1;" d="M 36.699219 7.378906 C 36.742188 7.074219 36.808594 6.757812 37.074219 6.570312 C 37.195312 6.605469 37.316406 6.636719 37.445312 6.648438 L 37.476562 6.652344 C 37.804688 7.058594 38.179688 7.421875 38.484375 7.847656 C 39.304688 8.800781 40.082031 9.789062 40.851562 10.785156 C 40.738281 11.058594 40.550781 11.3125 40.511719 11.609375 C 40.613281 11.691406 40.726562 11.757812 40.839844 11.828125 C 40.628906 11.875 40.371094 11.855469 40.21875 12.03125 C 39.953125 12.316406 39.746094 12.644531 39.488281 12.933594 C 39.472656 13.117188 39.53125 13.335938 39.402344 13.488281 C 39.164062 13.777344 38.828125 13.964844 38.484375 14.097656 C 38.199219 14.535156 38.207031 15.066406 38.164062 15.570312 C 37.964844 15.535156 37.769531 15.5 37.578125 15.453125 C 37.492188 15.734375 37.398438 16.015625 37.222656 16.253906 C 37.132812 16.21875 37.042969 16.183594 36.953125 16.148438 C 36.847656 16.5 36.78125 16.863281 36.804688 17.234375 C 36.695312 17.207031 36.585938 17.183594 36.480469 17.152344 C 35.773438 16.324219 35.109375 15.457031 34.320312 14.707031 C 33.929688 14.289062 33.453125 13.953125 32.925781 13.730469 C 33.097656 13.761719 33.269531 13.78125 33.441406 13.804688 C 33.359375 13.675781 33.277344 13.546875 33.195312 13.417969 C 33.464844 13.164062 33.316406 12.78125 33.421875 12.46875 C 33.480469 12.265625 33.714844 12.234375 33.875 12.144531 C 33.867188 12.101562 33.859375 12.058594 33.851562 12.011719 C 33.894531 11.957031 33.941406 11.902344 33.984375 11.851562 C 33.960938 11.539062 33.960938 11.226562 34.039062 10.925781 C 34.183594 10.886719 34.332031 10.851562 34.476562 10.8125 C 34.339844 10.761719 34.199219 10.710938 34.058594 10.65625 C 34.1875 10.625 34.316406 10.589844 34.445312 10.558594 C 34.40625 10.476562 34.367188 10.398438 34.328125 10.320312 C 34.503906 10.292969 34.683594 10.265625 34.859375 10.238281 C 34.800781 10.148438 34.742188 10.058594 34.6875 9.972656 C 34.855469 9.839844 35.042969 9.730469 35.238281 9.644531 C 35.222656 9.609375 35.1875 9.535156 35.167969 9.5 C 35.328125 9.222656 35.375 8.902344 35.4375 8.589844 C 35.574219 8.457031 35.75 8.359375 35.886719 8.222656 C 36.027344 8.027344 36.085938 7.792969 36.21875 7.59375 C 36.363281 7.496094 36.535156 7.449219 36.699219 7.378906 Z M 36.699219 7.378906 "/>
<path style=" stroke:none;fill-rule:nonzero;fill:rgb(44.705883%,52.941179%,87.843138%);fill-opacity:1;" d="M 40.511719 11.609375 C 40.550781 11.3125 40.738281 11.058594 40.851562 10.785156 C 41.253906 11.308594 41.644531 11.839844 42.042969 12.363281 C 42.484375 12.988281 42.96875 13.589844 43.359375 14.246094 C 43.207031 14.105469 43.082031 13.945312 42.964844 13.777344 C 42.78125 13.921875 42.59375 14.058594 42.398438 14.1875 C 42.527344 14.175781 42.65625 14.164062 42.785156 14.148438 C 42.761719 14.203125 42.738281 14.253906 42.71875 14.304688 C 42.742188 14.339844 42.785156 14.414062 42.8125 14.449219 C 42.539062 14.59375 42.316406 14.816406 42.058594 14.980469 C 41.964844 14.964844 41.871094 14.945312 41.78125 14.917969 C 41.625 15.125 41.59375 15.386719 41.519531 15.628906 C 41.46875 15.886719 41.136719 15.875 40.953125 16 C 41.023438 16.402344 40.8125 16.773438 40.546875 17.0625 C 40.5625 17.097656 40.597656 17.171875 40.613281 17.210938 C 40.492188 17.203125 40.371094 17.199219 40.25 17.195312 C 40.304688 17.308594 40.355469 17.421875 40.410156 17.539062 C 40.335938 17.570312 40.261719 17.605469 40.191406 17.636719 C 40.1875 17.867188 40.167969 18.097656 40.105469 18.320312 C 40.007812 18.328125 39.910156 18.339844 39.8125 18.351562 C 39.90625 18.496094 40.003906 18.636719 40.109375 18.777344 C 40 18.765625 39.894531 18.757812 39.785156 18.75 C 39.644531 18.9375 39.511719 19.132812 39.386719 19.332031 C 39.320312 19.300781 39.253906 19.265625 39.1875 19.234375 C 39.1875 19.375 39.1875 19.515625 39.1875 19.65625 C 39.289062 19.625 39.386719 19.597656 39.488281 19.570312 C 39.464844 19.773438 39.4375 19.980469 39.414062 20.183594 C 39.296875 20.210938 39.175781 20.238281 39.0625 20.265625 C 39.226562 20.546875 39.359375 20.84375 39.464844 21.152344 C 38.511719 19.785156 37.515625 18.453125 36.480469 17.152344 C 36.585938 17.183594 36.695312 17.207031 36.804688 17.234375 C 36.78125 16.863281 36.847656 16.5 36.953125 16.148438 C 37.042969 16.183594 37.132812 16.21875 37.222656 16.253906 C 37.398438 16.015625 37.492188 15.734375 37.578125 15.453125 C 37.769531 15.5 37.964844 15.535156 38.164062 15.570312 C 38.207031 15.066406 38.199219 14.535156 38.484375 14.097656 C 38.828125 13.964844 39.164062 13.777344 39.402344 13.488281 C 39.53125 13.335938 39.472656 13.117188 39.488281 12.933594 C 39.746094 12.644531 39.953125 12.316406 40.21875 12.03125 C 40.371094 11.855469 40.628906 11.875 40.839844 11.828125 C 40.726562 11.757812 40.613281 11.691406 40.511719 11.609375 Z M 40.511719 11.609375 "/>
<path style=" stroke:none;fill-rule:nonzero;fill:rgb(71.764708%,40.784314%,85.882354%);fill-opacity:1;" d="M 21.5625 12.882812 C 21.769531 12.675781 21.863281 12.367188 22.109375 12.203125 C 22.039062 12.699219 21.71875 13.085938 21.410156 13.457031 C 21.09375 13.808594 20.960938 14.269531 20.691406 14.652344 C 20.734375 14.769531 20.773438 14.886719 20.820312 15.003906 C 20.683594 14.984375 20.546875 14.960938 20.414062 14.941406 C 20.25 15.335938 19.96875 15.664062 19.710938 15.996094 C 19.535156 16.285156 19.660156 16.632812 19.707031 16.9375 C 19.519531 17.140625 19.28125 17.277344 19.019531 17.355469 C 19.082031 17.527344 19.226562 17.636719 19.375 17.734375 C 19.265625 17.753906 19.160156 17.773438 19.054688 17.796875 C 19.082031 18.066406 19.015625 18.324219 18.746094 18.449219 C 18.820312 18.527344 18.898438 18.609375 18.972656 18.691406 C 18.820312 18.753906 18.667969 18.8125 18.515625 18.871094 C 18.539062 18.933594 18.5625 18.992188 18.589844 19.050781 C 18.480469 19.269531 18.390625 19.5 18.253906 19.699219 C 18.101562 19.875 17.894531 19.996094 17.742188 20.171875 C 17.667969 20.53125 17.703125 20.898438 17.6875 21.261719 C 17.511719 21.316406 17.335938 21.375 17.160156 21.433594 C 17.214844 21.445312 17.332031 21.476562 17.386719 21.492188 C 17.355469 21.550781 17.320312 21.605469 17.285156 21.664062 C 17.414062 21.652344 17.539062 21.636719 17.667969 21.625 C 17.644531 21.671875 17.601562 21.761719 17.578125 21.808594 C 17.4375 21.851562 17.300781 21.894531 17.160156 21.9375 C 17.257812 21.988281 17.351562 22.039062 17.449219 22.09375 C 17.265625 22.105469 17.082031 22.113281 16.898438 22.117188 C 16.953125 22.289062 17 22.457031 17.046875 22.628906 C 16.894531 22.640625 16.738281 22.652344 16.585938 22.664062 C 16.582031 22.894531 16.546875 23.128906 16.40625 23.320312 C 16.25 23.542969 16.265625 23.820312 16.253906 24.082031 C 15.988281 24.265625 15.714844 24.460938 15.570312 24.761719 C 15.664062 24.816406 15.753906 24.871094 15.847656 24.929688 C 15.742188 25.015625 15.640625 25.101562 15.535156 25.191406 C 15.578125 25.265625 15.621094 25.339844 15.664062 25.414062 C 15.539062 25.507812 15.417969 25.597656 15.292969 25.691406 C 15.359375 25.777344 15.421875 25.863281 15.484375 25.949219 C 15.375 25.957031 15.265625 25.964844 15.152344 25.976562 C 15.152344 26.257812 15.097656 26.542969 14.941406 26.785156 C 14.886719 26.761719 14.785156 26.710938 14.734375 26.683594 C 14.792969 26.796875 14.851562 26.90625 14.914062 27.019531 C 14.867188 27.03125 14.777344 27.050781 14.730469 27.0625 C 14.804688 27.222656 14.882812 27.402344 14.773438 27.570312 C 14.699219 27.84375 14.347656 27.816406 14.203125 28.023438 C 14.203125 28.292969 14.300781 28.566406 14.230469 28.839844 C 14.214844 29.246094 13.78125 29.519531 13.878906 29.949219 C 13.773438 30.082031 13.667969 30.214844 13.558594 30.347656 C 13.566406 30.53125 13.585938 30.714844 13.550781 30.898438 C 13.429688 30.992188 13.292969 31.0625 13.164062 31.140625 C 13.171875 31.285156 13.179688 31.433594 13.1875 31.578125 C 13.097656 31.53125 13.015625 31.484375 12.929688 31.4375 C 12.847656 31.773438 12.6875 32.128906 12.832031 32.472656 C 12.917969 32.707031 12.710938 32.894531 12.582031 33.0625 C 12.566406 32.945312 12.550781 32.828125 12.535156 32.710938 C 12.398438 32.800781 12.152344 32.894531 12.230469 33.105469 C 12.382812 33.539062 12.238281 33.984375 12.183594 34.421875 C 12.066406 34.335938 11.941406 34.261719 11.804688 34.210938 C 11.898438 34.425781 11.996094 34.636719 12.085938 34.851562 C 11.980469 34.84375 11.871094 34.835938 11.769531 34.828125 C 11.722656 34.664062 11.675781 34.5 11.59375 34.347656 C 11.464844 34.777344 11.675781 35.210938 11.597656 35.640625 C 11.476562 35.808594 11.289062 35.917969 11.128906 36.046875 C 11.144531 36.097656 11.15625 36.148438 11.171875 36.199219 C 11.085938 36.238281 11 36.28125 10.917969 36.324219 C 10.882812 36.5 10.847656 36.675781 10.808594 36.851562 C 10.828125 36.917969 10.851562 36.984375 10.875 37.050781 C 10.8125 37.265625 10.757812 37.480469 10.699219 37.699219 C 10.609375 37.71875 10.523438 37.738281 10.433594 37.757812 C 10.5 37.886719 10.570312 38.011719 10.636719 38.136719 C 10.488281 38.207031 10.308594 38.234375 10.191406 38.347656 C 10.199219 38.429688 10.214844 38.507812 10.230469 38.585938 C 10.171875 38.621094 10.113281 38.652344 10.058594 38.6875 C 10.109375 38.835938 10.226562 38.996094 10.152344 39.160156 C 10.027344 39.4375 9.730469 39.585938 9.582031 39.847656 C 9.515625 39.992188 9.488281 40.152344 9.445312 40.304688 C 9.570312 40.398438 9.699219 40.492188 9.824219 40.589844 C 9.734375 40.601562 9.648438 40.613281 9.558594 40.628906 C 9.378906 41.023438 9.390625 41.457031 9.457031 41.875 C 9.335938 41.863281 9.214844 41.851562 9.09375 41.839844 C 9.144531 42.015625 9.25 42.160156 9.367188 42.300781 C 9.183594 42.40625 9 42.503906 8.808594 42.597656 C 8.828125 42.816406 8.878906 43.035156 8.878906 43.257812 C 8.761719 43.511719 8.390625 43.617188 8.40625 43.933594 C 8.394531 44.050781 8.398438 44.171875 8.394531 44.292969 C 8.085938 44.496094 8.171875 44.917969 7.898438 45.144531 C 7.980469 45.199219 8.0625 45.257812 8.144531 45.3125 C 8.101562 45.453125 8.058594 45.589844 8.019531 45.730469 C 7.972656 45.589844 7.921875 45.449219 7.875 45.3125 C 7.871094 45.472656 7.839844 45.636719 7.878906 45.796875 C 7.992188 45.921875 8.101562 46.050781 8.171875 46.207031 C 8.046875 46.183594 7.921875 46.121094 7.789062 46.140625 C 7.5625 46.285156 7.515625 46.578125 7.527344 46.828125 C 7.449219 46.929688 7.367188 47.027344 7.296875 47.136719 C 7.328125 47.347656 7.398438 47.550781 7.449219 47.757812 C 7.109375 47.902344 6.664062 48.136719 6.699219 48.566406 C 6.847656 48.988281 6.652344 49.414062 6.46875 49.785156 C 6.539062 49.863281 6.605469 49.941406 6.675781 50.019531 C 6.578125 50.03125 6.476562 50.039062 6.378906 50.050781 C 6.246094 50.222656 6.09375 50.382812 5.996094 50.582031 C 5.984375 50.726562 6.035156 50.867188 6.03125 51.015625 C 5.871094 51.296875 5.621094 51.515625 5.410156 51.761719 C 5.496094 51.808594 5.578125 51.851562 5.664062 51.898438 C 5.515625 52.074219 5.332031 52.242188 5.296875 52.484375 C 5.21875 52.753906 5.40625 52.992188 5.519531 53.222656 C 5.421875 53.265625 5.324219 53.3125 5.226562 53.359375 C 5.359375 53.578125 5.347656 53.820312 5.253906 54.050781 C 5.132812 54.039062 5.015625 54.027344 4.894531 54.015625 C 4.960938 54.167969 5.027344 54.324219 5.09375 54.476562 C 4.710938 55.097656 4.597656 55.867188 4.726562 56.578125 C 4.75 56.839844 4.644531 57.089844 4.59375 57.34375 C 4.71875 57.429688 4.839844 57.515625 4.964844 57.605469 C 4.976562 57.671875 5 57.800781 5.007812 57.867188 C 4.527344 57.726562 4.066406 57.519531 3.628906 57.28125 C 2.847656 56.886719 2.167969 56.261719 1.820312 55.445312 C 1.179688 54 1.5 52.367188 1.875 50.902344 C 1.988281 50.347656 2.117188 49.789062 2.289062 49.25 C 2.730469 47.828125 3.21875 46.421875 3.773438 45.039062 C 4.136719 44.226562 4.382812 43.363281 4.769531 42.558594 C 5.171875 41.535156 5.644531 40.539062 6.109375 39.542969 C 6.308594 39.125 6.472656 38.6875 6.6875 38.273438 C 7.042969 37.53125 7.394531 36.789062 7.765625 36.050781 C 7.929688 35.703125 8.105469 35.359375 8.277344 35.015625 C 8.40625 34.761719 8.523438 34.503906 8.644531 34.246094 C 8.765625 34.050781 8.867188 33.84375 8.964844 33.636719 C 9.3125 32.984375 9.640625 32.320312 10 31.671875 C 10.269531 31.179688 10.53125 30.679688 10.785156 30.179688 C 11.0625 29.660156 11.382812 29.171875 11.632812 28.640625 C 11.839844 28.335938 12 27.996094 12.195312 27.683594 C 12.527344 27.140625 12.804688 26.574219 13.136719 26.035156 C 13.464844 25.441406 13.828125 24.871094 14.167969 24.285156 C 14.300781 24.011719 14.464844 23.757812 14.628906 23.507812 C 15.644531 21.753906 16.769531 20.070312 17.828125 18.34375 C 17.90625 18.246094 17.972656 18.144531 18.039062 18.039062 C 18.386719 17.5 18.753906 16.96875 19.113281 16.433594 C 19.878906 15.214844 20.765625 14.078125 21.5625 12.882812 Z M 21.5625 12.882812 "/>
<path style=" stroke:none;fill-rule:nonzero;fill:rgb(41.568628%,55.686277%,88.235295%);fill-opacity:1;" d="M 42.398438 14.1875 C 42.59375 14.058594 42.78125 13.921875 42.964844 13.777344 C 43.082031 13.945312 43.207031 14.105469 43.359375 14.246094 C 43.785156 14.742188 44.128906 15.308594 44.515625 15.835938 C 44.613281 15.996094 44.726562 16.148438 44.820312 16.3125 C 44.832031 16.425781 44.839844 16.542969 44.847656 16.660156 C 44.714844 16.691406 44.582031 16.722656 44.445312 16.753906 C 44.460938 16.78125 44.488281 16.832031 44.503906 16.859375 C 44.378906 17.09375 44.289062 17.347656 44.222656 17.605469 C 44.070312 17.691406 43.921875 17.773438 43.773438 17.859375 C 43.714844 18.058594 43.6875 18.292969 43.503906 18.417969 C 43.320312 18.597656 43.046875 18.722656 42.976562 18.988281 C 42.898438 19.277344 42.890625 19.582031 42.851562 19.878906 C 42.8125 19.851562 42.730469 19.804688 42.6875 19.78125 C 42.519531 20.136719 42.351562 20.492188 42.222656 20.867188 C 42.199219 21.007812 42.078125 21.082031 41.972656 21.160156 C 41.957031 21.230469 41.941406 21.300781 41.925781 21.375 C 41.8125 21.453125 41.699219 21.53125 41.585938 21.609375 C 41.773438 21.601562 41.957031 21.59375 42.144531 21.589844 C 42.070312 21.824219 41.824219 21.820312 41.621094 21.851562 C 41.617188 21.933594 41.613281 22.019531 41.609375 22.105469 C 41.660156 22.128906 41.765625 22.179688 41.820312 22.203125 C 41.574219 22.429688 41.464844 22.75 41.371094 23.066406 C 41.445312 23.125 41.515625 23.191406 41.585938 23.257812 C 41.625 23.476562 41.414062 23.695312 41.535156 23.90625 C 41.625 24.132812 41.71875 24.355469 41.804688 24.585938 C 41.023438 23.441406 40.269531 22.28125 39.464844 21.152344 C 39.359375 20.84375 39.226562 20.546875 39.0625 20.265625 C 39.175781 20.238281 39.296875 20.210938 39.414062 20.183594 C 39.4375 19.980469 39.464844 19.773438 39.488281 19.570312 C 39.386719 19.597656 39.289062 19.625 39.1875 19.65625 C 39.1875 19.515625 39.1875 19.375 39.1875 19.234375 C 39.253906 19.265625 39.320312 19.300781 39.386719 19.332031 C 39.511719 19.132812 39.644531 18.9375 39.785156 18.75 C 39.894531 18.757812 40 18.765625 40.109375 18.777344 C 40.003906 18.636719 39.90625 18.496094 39.8125 18.351562 C 39.910156 18.339844 40.007812 18.328125 40.105469 18.320312 C 40.167969 18.097656 40.1875 17.867188 40.191406 17.636719 C 40.261719 17.605469 40.335938 17.570312 40.410156 17.539062 C 40.355469 17.421875 40.304688 17.308594 40.25 17.195312 C 40.371094 17.199219 40.492188 17.203125 40.613281 17.210938 C 40.597656 17.171875 40.5625 17.097656 40.546875 17.0625 C 40.8125 16.773438 41.023438 16.402344 40.953125 16 C 41.136719 15.875 41.46875 15.886719 41.519531 15.628906 C 41.59375 15.386719 41.625 15.125 41.78125 14.917969 C 41.871094 14.945312 41.964844 14.964844 42.058594 14.980469 C 42.316406 14.816406 42.539062 14.59375 42.8125 14.449219 C 42.785156 14.414062 42.742188 14.339844 42.71875 14.304688 C 42.738281 14.253906 42.761719 14.203125 42.785156 14.148438 C 42.65625 14.164062 42.527344 14.175781 42.398438 14.1875 Z M 42.398438 14.1875 "/>
<path style=" stroke:none;fill-rule:nonzero;fill:rgb(38.039216%,58.823532%,88.235295%);fill-opacity:1;" d="M 44.820312 16.3125 C 45.804688 17.753906 46.78125 19.210938 47.683594 20.710938 C 47.601562 21.023438 47.601562 21.351562 47.75 21.648438 C 47.5625 21.625 47.378906 21.601562 47.191406 21.582031 C 47.113281 21.898438 47.097656 22.230469 47.121094 22.554688 C 47.027344 22.585938 46.929688 22.617188 46.835938 22.644531 C 46.847656 22.773438 46.96875 22.945312 46.828125 23.042969 C 46.71875 23.074219 46.609375 23.097656 46.496094 23.117188 C 46.402344 23.625 46.484375 24.210938 46.121094 24.636719 C 46.078125 24.605469 45.992188 24.546875 45.945312 24.519531 C 45.738281 24.953125 45.746094 25.457031 45.492188 25.871094 C 45.550781 25.902344 45.671875 25.964844 45.730469 25.996094 C 45.535156 26.058594 45.332031 26.109375 45.128906 26.144531 C 45.234375 26.359375 45.335938 26.578125 45.433594 26.792969 C 45.300781 26.789062 45.171875 26.785156 45.042969 26.78125 C 45.046875 27.242188 44.84375 27.695312 44.972656 28.152344 C 45.105469 28.65625 44.941406 29.171875 44.972656 29.683594 C 43.972656 27.949219 42.867188 26.277344 41.804688 24.585938 C 41.71875 24.355469 41.625 24.132812 41.535156 23.90625 C 41.414062 23.695312 41.625 23.476562 41.585938 23.257812 C 41.515625 23.191406 41.445312 23.125 41.371094 23.066406 C 41.464844 22.75 41.574219 22.429688 41.820312 22.203125 C 41.765625 22.179688 41.660156 22.128906 41.609375 22.105469 C 41.613281 22.019531 41.617188 21.933594 41.621094 21.851562 C 41.824219 21.820312 42.070312 21.824219 42.144531 21.589844 C 41.957031 21.59375 41.773438 21.601562 41.585938 21.609375 C 41.699219 21.53125 41.8125 21.453125 41.925781 21.375 C 41.941406 21.300781 41.957031 21.230469 41.972656 21.160156 C 42.078125 21.082031 42.199219 21.007812 42.222656 20.867188 C 42.351562 20.492188 42.519531 20.136719 42.6875 19.78125 C 42.730469 19.804688 42.8125 19.851562 42.851562 19.878906 C 42.890625 19.582031 42.898438 19.277344 42.976562 18.988281 C 43.046875 18.722656 43.320312 18.597656 43.503906 18.417969 C 43.6875 18.292969 43.714844 18.058594 43.773438 17.859375 C 43.921875 17.773438 44.070312 17.691406 44.222656 17.605469 C 44.289062 17.347656 44.378906 17.09375 44.503906 16.859375 C 44.488281 16.832031 44.460938 16.78125 44.445312 16.753906 C 44.582031 16.722656 44.714844 16.691406 44.847656 16.660156 C 44.839844 16.542969 44.832031 16.425781 44.820312 16.3125 Z M 44.820312 16.3125 "/>
<path style=" stroke:none;fill-rule:nonzero;fill:rgb(33.333334%,63.137257%,88.627452%);fill-opacity:1;" d="M 47.683594 20.710938 C 48.457031 21.863281 49.144531 23.074219 49.839844 24.28125 C 50.207031 24.851562 50.523438 25.453125 50.863281 26.039062 C 51.140625 26.4375 51.308594 26.898438 51.566406 27.308594 C 51.710938 27.589844 51.917969 27.839844 52.015625 28.148438 C 52.078125 28.382812 52.191406 28.605469 52.3125 28.816406 C 52.160156 28.984375 51.96875 28.882812 51.796875 28.8125 C 51.75 28.980469 51.703125 29.144531 51.652344 29.3125 C 51.527344 29.222656 51.402344 29.132812 51.277344 29.042969 C 51.21875 29.234375 51.125 29.414062 51.0625 29.601562 C 51.113281 29.757812 51.195312 29.894531 51.269531 30.035156 C 51.210938 30.085938 51.148438 30.140625 51.089844 30.191406 C 51.027344 30.164062 50.964844 30.132812 50.902344 30.105469 C 50.84375 30.457031 50.730469 30.808594 50.417969 31.015625 C 50.433594 31.210938 50.449219 31.40625 50.46875 31.601562 C 50.429688 31.621094 50.34375 31.660156 50.304688 31.675781 C 50.308594 31.792969 50.3125 31.914062 50.316406 32.03125 C 50.273438 32.0625 50.191406 32.121094 50.152344 32.148438 C 50.199219 32.292969 50.246094 32.4375 50.292969 32.582031 C 50.222656 32.539062 50.152344 32.5 50.082031 32.460938 C 50.09375 32.617188 50.105469 32.777344 50.113281 32.9375 C 50.011719 32.878906 49.910156 32.824219 49.804688 32.769531 C 49.789062 32.992188 49.746094 33.210938 49.738281 33.433594 C 49.804688 34.125 49.714844 34.828125 49.519531 35.488281 C 49.519531 35.710938 49.578125 35.933594 49.488281 36.148438 C 49.546875 36.175781 49.605469 36.203125 49.664062 36.230469 C 49.675781 36.410156 49.707031 36.589844 49.703125 36.769531 C 49.652344 36.984375 49.542969 37.175781 49.460938 37.378906 C 49.550781 37.417969 49.640625 37.457031 49.734375 37.5 C 49.777344 37.882812 49.757812 38.269531 49.714844 38.652344 C 49.65625 38.53125 49.59375 38.417969 49.527344 38.300781 C 48.136719 35.367188 46.640625 32.472656 44.972656 29.683594 C 44.941406 29.171875 45.105469 28.65625 44.972656 28.152344 C 44.84375 27.695312 45.046875 27.242188 45.042969 26.78125 C 45.171875 26.785156 45.300781 26.789062 45.433594 26.792969 C 45.335938 26.578125 45.234375 26.359375 45.128906 26.144531 C 45.332031 26.109375 45.535156 26.058594 45.730469 25.996094 C 45.671875 25.964844 45.550781 25.902344 45.492188 25.871094 C 45.746094 25.457031 45.738281 24.953125 45.945312 24.519531 C 45.992188 24.546875 46.078125 24.605469 46.121094 24.636719 C 46.484375 24.210938 46.402344 23.625 46.496094 23.117188 C 46.609375 23.097656 46.71875 23.074219 46.828125 23.042969 C 46.96875 22.945312 46.847656 22.773438 46.835938 22.644531 C 46.929688 22.617188 47.027344 22.585938 47.121094 22.554688 C 47.097656 22.230469 47.113281 21.898438 47.191406 21.582031 C 47.378906 21.601562 47.5625 21.625 47.75 21.648438 C 47.601562 21.351562 47.601562 21.023438 47.683594 20.710938 Z M 47.683594 20.710938 "/>
<path style=" stroke:none;fill-rule:nonzero;fill:rgb(31.764707%,64.313728%,87.450981%);fill-opacity:1;" d="M 31.992188 25.082031 C 32.390625 24.976562 32.820312 24.839844 33.222656 25 C 34.023438 25.183594 34.695312 25.6875 35.28125 26.238281 C 35.992188 26.96875 36.539062 27.832031 37.039062 28.714844 C 37.125 28.875 37.207031 29.035156 37.292969 29.191406 C 37.378906 29.375 37.460938 29.5625 37.550781 29.75 C 37.832031 30.3125 38.058594 30.902344 38.269531 31.496094 C 38.410156 31.824219 38.480469 32.179688 38.601562 32.515625 C 38.628906 32.625 38.65625 32.734375 38.6875 32.84375 C 39.058594 34.011719 39.277344 35.222656 39.449219 36.433594 C 39.574219 38.136719 39.648438 39.925781 38.917969 41.519531 C 38.914062 41.523438 38.902344 41.527344 38.894531 41.53125 C 38.761719 41.585938 38.636719 41.65625 38.515625 41.734375 C 38.230469 41.15625 38.074219 40.523438 37.835938 39.929688 C 37.722656 39.660156 37.746094 39.371094 37.722656 39.089844 C 37.699219 38.863281 37.496094 38.722656 37.355469 38.570312 C 37.363281 38.546875 37.382812 38.5 37.394531 38.476562 C 37.003906 38.113281 36.917969 37.5625 36.710938 37.09375 C 36.574219 36.804688 36.578125 36.484375 36.609375 36.171875 C 36.320312 36.039062 36.179688 35.785156 36.210938 35.464844 C 36.503906 34.832031 36.582031 34.101562 36.355469 33.433594 C 36.144531 32.609375 35.5 31.949219 34.707031 31.652344 C 34.746094 31.613281 34.820312 31.535156 34.863281 31.496094 C 34.800781 31.273438 34.734375 31.042969 34.84375 30.828125 C 34.675781 30.625 34.421875 30.402344 34.617188 30.128906 C 34.5 30.039062 34.332031 29.984375 34.273438 29.835938 C 34.089844 29.378906 33.875 28.902344 33.929688 28.390625 C 33.609375 28.261719 33.53125 27.902344 33.394531 27.617188 C 33.285156 27.34375 33.101562 27.042969 33.261719 26.75 C 33.15625 26.675781 33.027344 26.617188 32.972656 26.492188 C 32.753906 26.0625 32.664062 25.582031 32.574219 25.113281 C 32.410156 25.101562 32.246094 25.089844 32.082031 25.085938 Z M 31.992188 25.082031 "/>
<path style=" stroke:none;fill-rule:nonzero;fill:rgb(34.509805%,61.56863%,87.058824%);fill-opacity:1;" d="M 32.082031 25.085938 C 32.246094 25.089844 32.410156 25.101562 32.574219 25.113281 C 32.664062 25.582031 32.753906 26.0625 32.972656 26.492188 C 33.027344 26.617188 33.15625 26.675781 33.261719 26.75 C 33.101562 27.042969 33.285156 27.34375 33.394531 27.617188 C 33.53125 27.902344 33.609375 28.261719 33.929688 28.390625 C 33.875 28.902344 34.089844 29.378906 34.273438 29.835938 C 34.332031 29.984375 34.5 30.039062 34.617188 30.128906 C 34.421875 30.402344 34.675781 30.625 34.84375 30.828125 C 34.734375 31.042969 34.800781 31.273438 34.863281 31.496094 C 34.820312 31.535156 34.746094 31.613281 34.707031 31.652344 C 34.015625 31.414062 33.269531 31.425781 32.558594 31.550781 C 32.253906 29.886719 32.285156 28.160156 32.691406 26.515625 C 32.121094 26.847656 31.851562 27.46875 31.648438 28.066406 C 31.621094 28.023438 31.570312 27.9375 31.542969 27.894531 C 31.511719 27.964844 31.449219 28.109375 31.414062 28.179688 C 31.1875 27.761719 30.984375 27.328125 30.84375 26.875 C 30.84375 26.582031 30.964844 26.300781 30.996094 26.007812 C 31.1875 25.570312 31.65625 25.277344 32.082031 25.085938 Z M 32.082031 25.085938 "/>
<path style=" stroke:none;fill-rule:nonzero;fill:rgb(25.490198%,70.19608%,88.627452%);fill-opacity:1;" d="M 38.675781 25.6875 C 38.78125 25.605469 38.890625 25.523438 38.992188 25.441406 C 39.179688 25.429688 39.371094 25.429688 39.558594 25.445312 C 40.132812 25.714844 40.671875 26.054688 41.164062 26.449219 C 41.550781 26.746094 41.902344 27.089844 42.25 27.429688 C 42.585938 27.792969 42.882812 28.191406 43.167969 28.59375 C 43.269531 28.769531 43.371094 28.941406 43.488281 29.109375 C 43.539062 29.21875 43.589844 29.324219 43.644531 29.433594 C 43.6875 29.507812 43.726562 29.585938 43.757812 29.667969 C 43.933594 30.273438 44.21875 30.84375 44.335938 31.464844 C 44.472656 32.390625 44.628906 33.332031 44.441406 34.257812 C 44.386719 35.21875 44.015625 36.121094 43.660156 37.003906 C 43.53125 37.273438 43.390625 37.632812 43.050781 37.683594 C 42.78125 37.75 42.550781 37.566406 42.347656 37.417969 C 42.347656 37.164062 42.289062 36.894531 42.386719 36.648438 C 43.132812 35.191406 43.28125 33.488281 43.03125 31.882812 C 43.003906 31.6875 42.929688 31.507812 42.855469 31.328125 C 42.71875 31.011719 42.675781 30.667969 42.519531 30.363281 C 42.304688 29.859375 42.011719 29.390625 41.683594 28.953125 C 40.980469 28.019531 40.023438 27.320312 39.042969 26.710938 C 38.914062 26.628906 38.792969 26.539062 38.671875 26.445312 C 38.554688 26.199219 38.5625 25.933594 38.675781 25.6875 Z M 38.675781 25.6875 "/>
<path style=" stroke:none;fill-rule:nonzero;fill:rgb(39.607844%,56.862748%,85.882354%);fill-opacity:1;" d="M 30.113281 27.433594 C 30.433594 26.976562 30.601562 26.398438 30.996094 26.007812 C 30.964844 26.300781 30.84375 26.582031 30.84375 26.875 C 30.984375 27.328125 31.1875 27.761719 31.414062 28.179688 C 31.449219 28.109375 31.511719 27.964844 31.542969 27.894531 C 31.570312 27.9375 31.621094 28.023438 31.648438 28.066406 C 31.128906 30.191406 31.660156 32.375 32.101562 34.464844 C 32.523438 36.421875 33.410156 38.28125 34.71875 39.804688 C 35.101562 40.296875 35.570312 40.714844 36.066406 41.085938 C 35.890625 41.175781 35.679688 41.242188 35.566406 41.414062 C 35.6875 41.832031 35.824219 42.253906 36.007812 42.652344 C 36.335938 43.070312 36.917969 43.035156 37.394531 43.058594 C 36.675781 43.296875 35.949219 42.96875 35.3125 42.648438 C 34.367188 42.15625 33.402344 41.683594 32.382812 41.363281 C 32.148438 40.808594 31.933594 40.246094 31.757812 39.671875 C 30.546875 36.722656 29.476562 33.710938 28.289062 30.753906 C 28.285156 30.464844 28.429688 30.195312 28.496094 29.917969 C 28.527344 29.800781 28.601562 29.703125 28.671875 29.609375 C 29.207031 28.921875 29.683594 28.191406 30.113281 27.433594 Z M 30.113281 27.433594 "/>
<path style=" stroke:none;fill-rule:nonzero;fill:rgb(29.803923%,67.450982%,88.627452%);fill-opacity:1;" d="M 52.015625 28.148438 L 52.003906 28.0625 C 52.113281 28.242188 52.210938 28.433594 52.3125 28.617188 C 52.820312 29.527344 53.308594 30.441406 53.808594 31.355469 C 53.972656 31.671875 54.132812 31.992188 54.3125 32.300781 C 54.382812 32.4375 54.453125 32.578125 54.53125 32.714844 C 54.636719 32.914062 54.726562 33.121094 54.839844 33.3125 C 55.140625 33.914062 55.453125 34.507812 55.722656 35.121094 C 55.804688 35.277344 55.882812 35.433594 55.96875 35.589844 C 56.113281 35.914062 56.277344 36.234375 56.441406 36.550781 C 56.863281 37.476562 57.3125 38.386719 57.734375 39.308594 C 57.886719 39.695312 58.070312 40.070312 58.253906 40.441406 C 58.308594 40.585938 58.367188 40.726562 58.4375 40.863281 C 58.539062 41.113281 58.691406 41.351562 58.71875 41.628906 C 58.667969 41.78125 58.617188 41.941406 58.574219 42.097656 C 58.644531 42.203125 58.71875 42.308594 58.792969 42.410156 C 58.671875 42.441406 58.554688 42.476562 58.433594 42.511719 C 58.488281 42.597656 58.539062 42.6875 58.59375 42.777344 C 58.367188 42.644531 58.148438 42.488281 57.890625 42.4375 C 57.792969 42.847656 57.371094 42.972656 57.054688 43.171875 C 57.078125 43.242188 57.105469 43.308594 57.132812 43.382812 C 56.972656 43.324219 56.816406 43.265625 56.660156 43.207031 C 56.488281 43.492188 56.34375 43.792969 56.269531 44.121094 C 56.335938 44.148438 56.472656 44.210938 56.539062 44.242188 C 56.425781 44.308594 56.3125 44.375 56.199219 44.445312 C 56.003906 44.292969 55.808594 44.140625 55.613281 43.984375 C 55.597656 44.0625 55.582031 44.140625 55.566406 44.21875 C 55.523438 44.246094 55.441406 44.300781 55.398438 44.328125 C 55.441406 44.410156 55.488281 44.492188 55.535156 44.574219 C 55.339844 44.476562 55.148438 44.378906 54.953125 44.28125 C 54.960938 44.363281 54.96875 44.441406 54.976562 44.523438 C 55.25 44.613281 55.300781 44.851562 55.25 45.105469 C 55.339844 45.1875 55.429688 45.265625 55.519531 45.347656 C 55.273438 45.289062 55.046875 45.171875 54.839844 45.03125 C 54.589844 45.304688 54.316406 45.566406 53.960938 45.695312 C 53.851562 46.0625 53.507812 46.234375 53.246094 46.476562 C 53.164062 46.855469 53.191406 47.253906 53.082031 47.628906 C 52.976562 47.976562 53.167969 48.308594 53.320312 48.605469 C 53.21875 48.757812 53.117188 48.910156 53.015625 49.058594 C 53.09375 49.144531 53.167969 49.234375 53.246094 49.324219 C 53.1875 49.398438 53.136719 49.480469 53.082031 49.558594 C 53.167969 49.640625 53.253906 49.726562 53.339844 49.8125 C 53.242188 49.820312 53.144531 49.828125 53.042969 49.839844 C 52.910156 50.078125 52.78125 50.320312 52.648438 50.558594 C 52.542969 50.507812 52.441406 50.460938 52.339844 50.414062 C 52.375 50.675781 52.421875 50.9375 52.480469 51.195312 C 52.277344 51.320312 52.070312 51.441406 51.863281 51.558594 C 51.882812 51.660156 51.90625 51.765625 51.929688 51.871094 C 52.066406 51.824219 52.207031 51.777344 52.347656 51.730469 C 52.277344 51.980469 52.109375 52.175781 51.929688 52.355469 C 52.011719 52.476562 52.09375 52.59375 52.175781 52.714844 C 52.070312 52.738281 51.972656 52.765625 51.871094 52.789062 C 51.863281 52.886719 51.851562 52.988281 51.84375 53.089844 C 51.996094 53.15625 52.152344 53.226562 52.304688 53.296875 C 52.226562 53.492188 52.140625 53.6875 52.050781 53.878906 C 51.84375 53.90625 51.691406 54.027344 51.59375 54.207031 C 51.742188 54.355469 51.890625 54.5 52.042969 54.648438 C 51.984375 54.898438 52.039062 55.148438 52.082031 55.394531 C 51.988281 55.359375 51.894531 55.324219 51.804688 55.289062 C 51.742188 55.425781 51.683594 55.5625 51.625 55.703125 C 51.5 55.699219 51.375 55.695312 51.25 55.695312 C 51.1875 55.878906 51.128906 56.0625 51.066406 56.246094 C 51.136719 56.308594 51.207031 56.371094 51.273438 56.4375 C 51.363281 56.390625 51.449219 56.34375 51.539062 56.296875 C 51.546875 56.5 51.507812 56.699219 51.445312 56.890625 C 51.527344 56.953125 51.609375 57.019531 51.695312 57.082031 C 51.488281 57.054688 51.285156 57.03125 51.082031 57.015625 C 51.324219 57.332031 51.980469 57.460938 51.820312 57.96875 C 51.691406 57.871094 51.566406 57.777344 51.4375 57.679688 C 51.40625 57.773438 51.375 57.867188 51.339844 57.957031 C 51.433594 58.074219 51.53125 58.191406 51.625 58.308594 C 51.488281 58.261719 51.355469 58.214844 51.222656 58.167969 C 51.050781 58.535156 51.097656 58.9375 51.214844 59.3125 C 51.738281 59.289062 52.257812 59.371094 52.753906 59.519531 C 51.832031 59.707031 50.898438 59.839844 49.972656 59.992188 C 48.476562 60.078125 47.011719 60.445312 45.519531 60.554688 C 45.113281 60.585938 44.710938 60.605469 44.304688 60.648438 C 44.277344 60.617188 44.222656 60.550781 44.195312 60.519531 C 44.640625 60.484375 45.089844 60.441406 45.523438 60.339844 C 45.371094 60.308594 45.21875 60.277344 45.0625 60.246094 C 45.042969 59.730469 45.03125 59.210938 45.078125 58.699219 C 45.101562 58.542969 45.046875 58.386719 45.019531 58.238281 C 45.097656 58.175781 45.179688 58.113281 45.261719 58.050781 C 45.152344 57.8125 45.066406 57.566406 45.007812 57.3125 C 45.09375 57.402344 45.179688 57.492188 45.269531 57.585938 C 45.269531 57.492188 45.269531 57.402344 45.273438 57.3125 C 45.398438 57.21875 45.523438 57.125 45.652344 57.035156 C 45.453125 57.070312 45.253906 57.109375 45.054688 57.144531 C 45.203125 56.730469 45.085938 56.296875 44.996094 55.882812 C 45.070312 55.925781 45.144531 55.964844 45.21875 56.003906 C 45.242188 55.769531 45.257812 55.53125 45.269531 55.292969 C 45.425781 55.203125 45.6875 55.175781 45.671875 54.941406 C 45.773438 54.582031 45.421875 54.226562 45.644531 53.890625 C 45.710938 53.75 45.792969 53.617188 45.871094 53.484375 C 45.796875 53.320312 45.675781 53.167969 45.660156 52.988281 C 45.722656 52.855469 45.855469 52.777344 45.957031 52.675781 C 45.964844 52.523438 45.972656 52.367188 45.980469 52.214844 C 46.058594 52.304688 46.140625 52.394531 46.222656 52.488281 C 46.285156 52.1875 46.417969 51.902344 46.46875 51.597656 C 46.359375 51.351562 46.023438 51.34375 45.804688 51.253906 C 46.789062 51.09375 47.761719 50.867188 48.71875 50.59375 C 49.886719 50.234375 51.085938 49.847656 52.035156 49.046875 C 52.554688 48.628906 52.824219 47.941406 52.777344 47.28125 C 52.703125 46.136719 52.3125 45.050781 51.960938 43.972656 C 51.304688 42.160156 50.519531 40.402344 49.714844 38.652344 C 49.757812 38.269531 49.777344 37.882812 49.734375 37.5 C 49.640625 37.457031 49.550781 37.417969 49.460938 37.378906 C 49.542969 37.175781 49.652344 36.984375 49.703125 36.769531 C 49.707031 36.589844 49.675781 36.410156 49.664062 36.230469 C 49.605469 36.203125 49.546875 36.175781 49.488281 36.148438 C 49.578125 35.933594 49.519531 35.710938 49.519531 35.488281 C 49.714844 34.828125 49.804688 34.125 49.738281 33.433594 C 49.746094 33.210938 49.789062 32.992188 49.804688 32.769531 C 49.910156 32.824219 50.011719 32.878906 50.113281 32.9375 C 50.105469 32.777344 50.09375 32.617188 50.082031 32.460938 C 50.152344 32.5 50.222656 32.539062 50.292969 32.582031 C 50.246094 32.4375 50.199219 32.292969 50.152344 32.148438 C 50.191406 32.121094 50.273438 32.0625 50.316406 32.03125 C 50.3125 31.914062 50.308594 31.792969 50.304688 31.675781 C 50.34375 31.660156 50.429688 31.621094 50.46875 31.601562 C 50.449219 31.40625 50.433594 31.210938 50.417969 31.015625 C 50.730469 30.808594 50.84375 30.457031 50.902344 30.105469 C 50.964844 30.132812 51.027344 30.164062 51.089844 30.191406 C 51.148438 30.140625 51.210938 30.085938 51.269531 30.035156 C 51.195312 29.894531 51.113281 29.757812 51.0625 29.601562 C 51.125 29.414062 51.21875 29.234375 51.277344 29.042969 C 51.402344 29.132812 51.527344 29.222656 51.652344 29.3125 C 51.703125 29.144531 51.75 28.980469 51.796875 28.8125 C 51.96875 28.882812 52.160156 28.984375 52.3125 28.816406 C 52.191406 28.605469 52.078125 28.382812 52.015625 28.148438 Z M 52.015625 28.148438 "/>
<path style=" stroke:none;fill-rule:nonzero;fill:rgb(27.450982%,68.235296%,88.235295%);fill-opacity:1;" d="M 38.648438 28.453125 C 38.804688 28.28125 39.042969 28.328125 39.25 28.332031 C 40.214844 29.128906 41.046875 30.101562 41.527344 31.261719 C 42.042969 32.585938 42.046875 34.074219 41.625 35.417969 C 41.445312 35.78125 40.976562 35.824219 40.644531 35.660156 C 40.492188 35.464844 40.339844 35.253906 40.339844 34.996094 C 40.644531 33.800781 40.621094 32.488281 40.085938 31.359375 C 39.863281 30.90625 39.578125 30.492188 39.253906 30.113281 C 38.988281 29.894531 38.714844 29.679688 38.472656 29.4375 C 38.34375 29.113281 38.316406 28.664062 38.648438 28.453125 Z M 38.648438 28.453125 "/>
<use xlink:href="#surface5" mask="url(#mask0)"/>
<path style=" stroke:none;fill-rule:nonzero;fill:rgb(43.529412%,52.549022%,85.09804%);fill-opacity:1;" d="M 28.210938 30.167969 C 28.261719 30.039062 28.375 29.972656 28.496094 29.917969 C 28.429688 30.195312 28.285156 30.464844 28.289062 30.753906 C 29.476562 33.710938 30.546875 36.722656 31.757812 39.671875 C 31.933594 40.246094 32.148438 40.808594 32.382812 41.363281 C 31.300781 40.988281 30.167969 40.777344 29.027344 40.703125 C 28.707031 39.753906 28.308594 38.835938 27.953125 37.898438 C 27.367188 36.210938 26.667969 34.5625 26.039062 32.890625 C 25.898438 32.632812 26.066406 32.382812 26.15625 32.144531 L 26.183594 32.082031 C 26.601562 31.859375 26.910156 31.496094 27.261719 31.191406 C 27.605469 30.875 27.90625 30.515625 28.210938 30.167969 Z M 28.210938 30.167969 "/>
<path style=" stroke:none;fill-rule:nonzero;fill:rgb(49.019608%,47.450981%,83.92157%);fill-opacity:1;" d="M 24.914062 32.964844 C 25.347656 32.722656 25.734375 32.40625 26.15625 32.144531 C 26.066406 32.382812 25.898438 32.632812 26.039062 32.890625 C 26.667969 34.5625 27.367188 36.210938 27.953125 37.898438 C 28.308594 38.835938 28.707031 39.753906 29.027344 40.703125 C 27.644531 40.585938 26.257812 40.769531 24.917969 41.101562 C 24.734375 41.089844 24.554688 41.070312 24.375 41.050781 C 23.820312 40.183594 23.644531 39.144531 23.203125 38.21875 C 22.742188 36.90625 22.167969 35.628906 21.738281 34.304688 C 22.828125 33.945312 23.921875 33.554688 24.914062 32.964844 Z M 24.914062 32.964844 "/>
<path style=" stroke:none;fill-rule:nonzero;fill:rgb(55.29412%,41.568628%,83.137256%);fill-opacity:1;" d="M 20.945312 34.566406 C 21.207031 34.472656 21.472656 34.390625 21.738281 34.304688 C 22.167969 35.628906 22.742188 36.90625 23.203125 38.21875 C 23.644531 39.144531 23.820312 40.183594 24.375 41.050781 C 24.554688 41.070312 24.734375 41.089844 24.917969 41.101562 C 24.757812 41.15625 24.605469 41.222656 24.449219 41.28125 C 24.214844 41.371094 23.96875 41.417969 23.722656 41.480469 C 23.46875 41.597656 23.183594 41.609375 22.925781 41.71875 C 22.011719 41.9375 21.109375 42.226562 20.191406 42.441406 C 19.859375 42.410156 19.523438 42.410156 19.191406 42.347656 C 18.996094 42.242188 18.882812 42.035156 18.75 41.867188 C 18.839844 41.898438 18.925781 41.929688 19.015625 41.964844 C 18.996094 41.742188 19.035156 41.488281 18.882812 41.300781 C 18.765625 41.152344 18.601562 41.046875 18.453125 40.933594 C 18.460938 40.46875 18.539062 39.953125 18.242188 39.554688 C 18.109375 39.386719 18.113281 39.171875 18.105469 38.96875 C 18.007812 38.886719 17.914062 38.804688 17.816406 38.726562 C 17.816406 38.566406 17.820312 38.410156 17.820312 38.25 C 17.726562 38.214844 17.628906 38.175781 17.535156 38.140625 C 17.5625 37.527344 17.132812 37.039062 17.054688 36.449219 C 17.148438 36.261719 17.296875 36.117188 17.433594 35.957031 C 17.394531 35.945312 17.316406 35.921875 17.28125 35.910156 L 17.25 35.898438 C 18.191406 35.332031 19.300781 35.15625 20.316406 34.761719 C 20.527344 34.703125 20.738281 34.648438 20.945312 34.566406 Z M 20.945312 34.566406 "/>
<path style=" stroke:none;fill-rule:nonzero;fill:rgb(34.901962%,61.176473%,86.666667%);fill-opacity:1;" d="M 34.273438 37.359375 C 35.007812 36.835938 35.792969 36.292969 36.210938 35.464844 C 36.179688 35.785156 36.320312 36.039062 36.609375 36.171875 C 36.578125 36.484375 36.574219 36.804688 36.710938 37.09375 C 36.917969 37.5625 37.003906 38.113281 37.394531 38.476562 C 37.382812 38.5 37.363281 38.546875 37.355469 38.570312 C 37.496094 38.722656 37.699219 38.863281 37.722656 39.089844 C 37.746094 39.371094 37.722656 39.660156 37.835938 39.929688 C 38.074219 40.523438 38.230469 41.15625 38.515625 41.734375 C 38.636719 41.65625 38.761719 41.585938 38.894531 41.53125 C 38.761719 41.828125 38.601562 42.121094 38.394531 42.375 C 38.097656 42.648438 37.789062 42.9375 37.394531 43.058594 C 36.917969 43.035156 36.335938 43.070312 36.007812 42.652344 C 35.824219 42.253906 35.6875 41.832031 35.566406 41.414062 C 35.679688 41.242188 35.890625 41.175781 36.066406 41.085938 C 36.417969 41.3125 36.8125 41.503906 37.246094 41.476562 C 35.980469 40.328125 35.023438 38.886719 34.273438 37.359375 Z M 34.273438 37.359375 "/>
<path style=" stroke:none;fill-rule:nonzero;fill:rgb(58.823532%,37.64706%,81.960785%);fill-opacity:1;" d="M 17.28125 35.910156 C 17.316406 35.921875 17.394531 35.945312 17.433594 35.957031 C 17.296875 36.117188 17.148438 36.261719 17.054688 36.449219 C 17.132812 37.039062 17.5625 37.527344 17.535156 38.140625 C 17.628906 38.175781 17.726562 38.214844 17.820312 38.25 C 17.820312 38.410156 17.816406 38.566406 17.816406 38.726562 C 17.914062 38.804688 18.007812 38.886719 18.105469 38.96875 C 18.113281 39.171875 18.109375 39.386719 18.242188 39.554688 C 18.539062 39.953125 18.460938 40.46875 18.453125 40.933594 C 18.601562 41.046875 18.765625 41.152344 18.882812 41.300781 C 19.035156 41.488281 18.996094 41.742188 19.015625 41.964844 C 18.925781 41.929688 18.839844 41.898438 18.75 41.867188 C 18.882812 42.035156 18.996094 42.242188 19.191406 42.347656 C 19.523438 42.410156 19.859375 42.410156 20.191406 42.441406 C 20.121094 42.457031 19.980469 42.492188 19.910156 42.507812 C 19.5 42.648438 19.011719 42.628906 18.59375 42.515625 C 18.144531 42.4375 17.734375 42.242188 17.355469 41.996094 C 16.820312 41.601562 16.375 41.070312 16.125 40.445312 C 16.003906 40.195312 15.976562 39.90625 15.878906 39.648438 C 15.808594 39.128906 15.804688 38.597656 15.882812 38.082031 C 16.058594 37.210938 16.558594 36.425781 17.28125 35.910156 Z M 17.28125 35.910156 "/>
<use xlink:href="#surface8" mask="url(#mask1)"/>
<path style=" stroke:none;fill-rule:nonzero;fill:rgb(28.627452%,70.19608%,88.627452%);fill-opacity:1;" d="M 58.71875 41.628906 L 58.746094 41.546875 C 59.25 42.691406 59.734375 43.84375 60.15625 45.023438 C 60.707031 46.488281 61.277344 47.953125 61.710938 49.457031 C 61.96875 50.34375 62.179688 51.25 62.308594 52.167969 C 62.457031 52.941406 62.539062 53.742188 62.363281 54.519531 C 62.277344 54.722656 62.230469 54.933594 62.183594 55.144531 C 61.890625 55.777344 61.5 56.386719 60.917969 56.792969 C 60.398438 57.160156 59.84375 57.492188 59.234375 57.6875 C 58.234375 58.113281 57.191406 58.453125 56.136719 58.710938 C 55.894531 58.847656 55.597656 58.832031 55.347656 58.953125 C 54.921875 59.039062 54.503906 59.164062 54.074219 59.230469 C 53.652344 59.359375 53.191406 59.433594 52.753906 59.519531 C 52.257812 59.371094 51.738281 59.289062 51.214844 59.3125 C 51.097656 58.9375 51.050781 58.535156 51.222656 58.167969 C 51.355469 58.214844 51.488281 58.261719 51.625 58.308594 C 51.53125 58.191406 51.433594 58.074219 51.339844 57.957031 C 51.375 57.867188 51.40625 57.773438 51.4375 57.679688 C 51.566406 57.777344 51.691406 57.871094 51.820312 57.96875 C 51.980469 57.460938 51.324219 57.332031 51.082031 57.015625 C 51.285156 57.03125 51.488281 57.054688 51.695312 57.082031 C 51.609375 57.019531 51.527344 56.953125 51.445312 56.890625 C 51.507812 56.699219 51.546875 56.5 51.539062 56.296875 C 51.449219 56.34375 51.363281 56.390625 51.273438 56.4375 C 51.207031 56.371094 51.136719 56.308594 51.066406 56.246094 C 51.128906 56.0625 51.1875 55.878906 51.25 55.695312 C 51.375 55.695312 51.5 55.699219 51.625 55.703125 C 51.683594 55.5625 51.742188 55.425781 51.804688 55.289062 C 51.894531 55.324219 51.988281 55.359375 52.082031 55.394531 C 52.039062 55.148438 51.984375 54.898438 52.042969 54.648438 C 51.890625 54.5 51.742188 54.355469 51.59375 54.207031 C 51.691406 54.027344 51.84375 53.90625 52.050781 53.878906 C 52.140625 53.6875 52.226562 53.492188 52.304688 53.296875 C 52.152344 53.226562 51.996094 53.15625 51.84375 53.089844 C 51.851562 52.988281 51.863281 52.886719 51.871094 52.789062 C 51.972656 52.765625 52.070312 52.738281 52.175781 52.714844 C 52.09375 52.59375 52.011719 52.476562 51.929688 52.355469 C 52.109375 52.175781 52.277344 51.980469 52.347656 51.730469 C 52.207031 51.777344 52.066406 51.824219 51.929688 51.871094 C 51.90625 51.765625 51.882812 51.660156 51.863281 51.558594 C 52.070312 51.441406 52.277344 51.320312 52.480469 51.195312 C 52.421875 50.9375 52.375 50.675781 52.339844 50.414062 C 52.441406 50.460938 52.542969 50.507812 52.648438 50.558594 C 52.78125 50.320312 52.910156 50.078125 53.042969 49.839844 C 53.144531 49.828125 53.242188 49.820312 53.339844 49.8125 C 53.253906 49.726562 53.167969 49.640625 53.082031 49.558594 C 53.136719 49.480469 53.1875 49.398438 53.246094 49.324219 C 53.167969 49.234375 53.09375 49.144531 53.015625 49.058594 C 53.117188 48.910156 53.21875 48.757812 53.320312 48.605469 C 53.167969 48.308594 52.976562 47.976562 53.082031 47.628906 C 53.191406 47.253906 53.164062 46.855469 53.246094 46.476562 C 53.507812 46.234375 53.851562 46.0625 53.960938 45.695312 C 54.316406 45.566406 54.589844 45.304688 54.839844 45.03125 C 55.046875 45.171875 55.273438 45.289062 55.519531 45.347656 C 55.429688 45.265625 55.339844 45.1875 55.25 45.105469 C 55.300781 44.851562 55.25 44.613281 54.976562 44.523438 C 54.96875 44.441406 54.960938 44.363281 54.953125 44.28125 C 55.148438 44.378906 55.339844 44.476562 55.535156 44.574219 C 55.488281 44.492188 55.441406 44.410156 55.398438 44.328125 C 55.441406 44.300781 55.523438 44.246094 55.566406 44.21875 C 55.582031 44.140625 55.597656 44.0625 55.613281 43.984375 C 55.808594 44.140625 56.003906 44.292969 56.199219 44.445312 C 56.3125 44.375 56.425781 44.308594 56.539062 44.242188 C 56.472656 44.210938 56.335938 44.148438 56.269531 44.121094 C 56.34375 43.792969 56.488281 43.492188 56.660156 43.207031 C 56.816406 43.265625 56.972656 43.324219 57.132812 43.382812 C 57.105469 43.308594 57.078125 43.242188 57.054688 43.171875 C 57.371094 42.972656 57.792969 42.847656 57.890625 42.4375 C 58.148438 42.488281 58.367188 42.644531 58.59375 42.777344 C 58.539062 42.6875 58.488281 42.597656 58.433594 42.511719 C 58.554688 42.476562 58.671875 42.441406 58.792969 42.410156 C 58.71875 42.308594 58.644531 42.203125 58.574219 42.097656 C 58.617188 41.941406 58.667969 41.78125 58.71875 41.628906 Z M 58.71875 41.628906 "/>
<path style=" stroke:none;fill-rule:nonzero;fill:rgb(52.941179%,43.529412%,83.137256%);fill-opacity:1;" d="M 24.0625 42.128906 C 24.4375 42.042969 24.800781 41.878906 25.1875 41.851562 C 25.445312 42.097656 25.535156 42.46875 25.734375 42.761719 C 26.027344 43.160156 25.691406 43.644531 25.34375 43.871094 C 25.429688 44.140625 25.605469 44.375 25.738281 44.625 C 26.273438 45.417969 26.738281 46.257812 27.273438 47.050781 C 27.601562 47.554688 27.871094 48.09375 28.207031 48.59375 C 28.308594 48.800781 28.480469 48.992188 28.464844 49.234375 C 28.476562 49.609375 28.164062 49.886719 27.882812 50.085938 C 27.378906 50.34375 26.84375 50.53125 26.296875 50.675781 C 25.769531 49.699219 25.527344 48.605469 25.070312 47.597656 C 24.832031 46.917969 24.507812 46.273438 24.292969 45.589844 C 23.96875 44.652344 23.566406 43.742188 23.253906 42.800781 C 23.195312 42.65625 23.222656 42.503906 23.238281 42.355469 C 23.515625 42.289062 23.785156 42.195312 24.0625 42.128906 Z M 24.0625 42.128906 "/>
<path style=" stroke:none;fill-rule:nonzero;fill:rgb(55.29412%,41.176471%,82.745099%);fill-opacity:1;" d="M 20.65625 43.101562 C 21.496094 42.789062 22.378906 42.621094 23.238281 42.355469 C 23.222656 42.503906 23.195312 42.65625 23.253906 42.800781 C 23.566406 43.742188 23.96875 44.652344 24.292969 45.589844 C 24.507812 46.273438 24.832031 46.917969 25.070312 47.597656 C 25.527344 48.605469 25.769531 49.699219 26.296875 50.675781 L 26.308594 50.703125 C 25.683594 50.910156 24.914062 50.925781 24.4375 50.402344 C 24.152344 50.085938 23.957031 49.699219 23.765625 49.324219 C 23.585938 49.039062 23.460938 48.730469 23.304688 48.433594 C 22.554688 47.015625 21.789062 45.601562 21.082031 44.15625 C 21 43.996094 20.921875 43.835938 20.832031 43.679688 C 20.738281 43.5 20.65625 43.308594 20.65625 43.101562 Z M 20.65625 43.101562 "/>
<path style=" stroke:none;fill-rule:nonzero;fill:rgb(61.56863%,42.745098%,86.666667%);fill-opacity:1;" d="M 10.84375 48.484375 C 11.035156 48.476562 11.230469 48.46875 11.425781 48.460938 C 12.300781 49.675781 13.820312 50.101562 15.167969 50.5625 C 15.378906 50.632812 15.59375 50.691406 15.808594 50.753906 C 15.828125 50.9375 15.679688 51.046875 15.589844 51.191406 C 15.640625 51.222656 15.742188 51.289062 15.792969 51.320312 C 15.699219 51.445312 15.59375 51.558594 15.476562 51.664062 C 15.550781 51.976562 15.5625 52.300781 15.539062 52.625 C 15.457031 52.585938 15.375 52.546875 15.296875 52.507812 C 15.242188 52.5625 15.1875 52.621094 15.136719 52.675781 C 15.15625 52.855469 15.320312 53.078125 15.15625 53.222656 C 14.910156 53.433594 14.957031 53.800781 14.722656 54.023438 C 14.832031 54.125 15.03125 54.195312 14.957031 54.378906 C 14.746094 54.617188 14.414062 54.78125 14.34375 55.117188 C 14.222656 55.707031 14.273438 56.316406 14.289062 56.914062 C 14.300781 57.1875 14.09375 57.386719 13.898438 57.550781 C 14.109375 57.648438 14.238281 57.8125 14.199219 58.050781 C 14.074219 58.105469 13.949219 58.160156 13.824219 58.214844 C 13.898438 58.335938 13.96875 58.457031 14.042969 58.578125 C 14.070312 58.460938 14.09375 58.34375 14.121094 58.230469 C 14.164062 58.230469 14.253906 58.230469 14.296875 58.230469 C 14.175781 58.710938 14.175781 59.214844 14.28125 59.703125 C 14.5 59.789062 14.703125 59.90625 14.886719 60.042969 C 14.042969 60.007812 13.230469 59.753906 12.390625 59.671875 C 11.851562 59.625 11.324219 59.480469 10.785156 59.410156 C 10.015625 59.328125 9.28125 59.066406 8.519531 58.964844 C 8.511719 58.941406 8.503906 58.894531 8.496094 58.867188 C 8.5625 58.855469 8.691406 58.828125 8.753906 58.8125 C 8.738281 58.527344 8.726562 58.242188 8.71875 57.957031 C 8.597656 57.914062 8.476562 57.871094 8.355469 57.824219 C 8.4375 57.773438 8.515625 57.71875 8.597656 57.667969 C 8.5 57.5 8.402344 57.335938 8.304688 57.171875 C 8.429688 57.058594 8.601562 56.960938 8.625 56.78125 C 8.792969 56.109375 8.683594 55.410156 8.847656 54.738281 C 8.960938 54.34375 8.761719 53.945312 8.828125 53.546875 C 9.085938 53.398438 9.398438 53.273438 9.527344 52.988281 C 9.542969 52.875 9.480469 52.765625 9.457031 52.65625 C 9.652344 52.523438 9.839844 52.375 9.976562 52.183594 C 9.890625 52.132812 9.808594 52.085938 9.722656 52.039062 C 9.878906 51.964844 10.039062 51.894531 10.195312 51.828125 C 10.148438 51.664062 10.105469 51.5 10.058594 51.339844 C 10.21875 51.230469 10.371094 51.109375 10.484375 50.949219 C 10.390625 50.980469 10.300781 51.011719 10.207031 51.046875 C 10.179688 51 10.125 50.914062 10.097656 50.871094 C 10.335938 50.71875 10.613281 50.585938 10.726562 50.308594 C 10.632812 50.308594 10.542969 50.308594 10.449219 50.308594 C 10.457031 50.148438 10.472656 49.984375 10.484375 49.824219 C 10.613281 49.785156 10.808594 49.816406 10.828125 49.636719 C 10.917969 49.257812 10.839844 48.867188 10.84375 48.484375 Z M 10.84375 48.484375 "/>
<path style=" stroke:none;fill-rule:nonzero;fill:rgb(54.901963%,45.490196%,86.666667%);fill-opacity:1;" d="M 15.589844 51.191406 C 15.679688 51.046875 15.828125 50.9375 15.808594 50.753906 C 16.75 51.046875 17.722656 51.191406 18.679688 51.417969 C 19.234375 51.65625 19.847656 51.632812 20.429688 51.75 C 20.925781 51.84375 21.417969 51.933594 21.921875 51.988281 C 21.871094 52.359375 21.53125 52.496094 21.21875 52.59375 C 21.210938 52.667969 21.207031 52.742188 21.203125 52.820312 C 21.292969 52.8125 21.382812 52.8125 21.472656 52.808594 C 21.324219 52.972656 21.179688 53.140625 21.03125 53.308594 C 21.113281 53.410156 21.195312 53.507812 21.273438 53.609375 C 21.132812 53.605469 20.992188 53.605469 20.847656 53.605469 C 20.96875 53.671875 21.089844 53.734375 21.210938 53.804688 C 21.011719 53.980469 20.828125 54.175781 20.652344 54.378906 C 20.871094 54.363281 21.089844 54.351562 21.308594 54.359375 C 21.066406 54.53125 20.765625 54.554688 20.484375 54.613281 C 20.566406 54.753906 20.683594 54.878906 20.710938 55.042969 C 20.660156 55.3125 20.394531 55.539062 20.480469 55.832031 C 20.550781 56.121094 20.460938 56.40625 20.492188 56.695312 C 20.523438 57.023438 20.390625 57.335938 20.375 57.660156 C 20.394531 58.03125 20.542969 58.382812 20.546875 58.753906 C 20.503906 58.921875 20.390625 59.066406 20.382812 59.242188 C 20.414062 59.484375 20.503906 59.714844 20.578125 59.949219 C 20.527344 59.964844 20.421875 59.996094 20.367188 60.011719 C 20.445312 60.058594 20.519531 60.105469 20.597656 60.152344 C 20.605469 60.1875 20.625 60.257812 20.636719 60.289062 C 20.589844 60.308594 20.492188 60.347656 20.445312 60.367188 C 20.449219 60.402344 20.460938 60.476562 20.464844 60.515625 C 20.648438 60.59375 20.828125 60.675781 21.011719 60.753906 C 19.757812 60.601562 18.488281 60.589844 17.242188 60.367188 C 16.457031 60.277344 15.671875 60.148438 14.886719 60.042969 C 14.703125 59.90625 14.5 59.789062 14.28125 59.703125 C 14.175781 59.214844 14.175781 58.710938 14.296875 58.230469 C 14.253906 58.230469 14.164062 58.230469 14.121094 58.230469 C 14.09375 58.34375 14.070312 58.460938 14.042969 58.578125 C 13.96875 58.457031 13.898438 58.335938 13.824219 58.214844 C 13.949219 58.160156 14.074219 58.105469 14.199219 58.050781 C 14.238281 57.8125 14.109375 57.648438 13.898438 57.550781 C 14.09375 57.386719 14.300781 57.1875 14.289062 56.914062 C 14.273438 56.316406 14.222656 55.707031 14.34375 55.117188 C 14.414062 54.78125 14.746094 54.617188 14.957031 54.378906 C 15.03125 54.195312 14.832031 54.125 14.722656 54.023438 C 14.957031 53.800781 14.910156 53.433594 15.15625 53.222656 C 15.320312 53.078125 15.15625 52.855469 15.136719 52.675781 C 15.1875 52.621094 15.242188 52.5625 15.296875 52.507812 C 15.375 52.546875 15.457031 52.585938 15.539062 52.625 C 15.5625 52.300781 15.550781 51.976562 15.476562 51.664062 C 15.59375 51.558594 15.699219 51.445312 15.792969 51.320312 C 15.742188 51.289062 15.640625 51.222656 15.589844 51.191406 Z M 15.589844 51.191406 "/>
<path style=" stroke:none;fill-rule:nonzero;fill:rgb(32.941177%,61.960787%,88.235295%);fill-opacity:1;" d="M 44.382812 51.523438 C 44.851562 51.40625 45.335938 51.375 45.804688 51.253906 C 46.023438 51.34375 46.359375 51.351562 46.46875 51.597656 C 46.417969 51.902344 46.285156 52.1875 46.222656 52.488281 C 46.140625 52.394531 46.058594 52.304688 45.980469 52.214844 C 45.972656 52.367188 45.964844 52.523438 45.957031 52.675781 C 45.855469 52.777344 45.722656 52.855469 45.660156 52.988281 C 45.675781 53.167969 45.796875 53.320312 45.871094 53.484375 C 45.792969 53.617188 45.710938 53.75 45.644531 53.890625 C 45.421875 54.226562 45.773438 54.582031 45.671875 54.941406 C 45.6875 55.175781 45.425781 55.203125 45.269531 55.292969 C 45.257812 55.53125 45.242188 55.769531 45.21875 56.003906 C 45.144531 55.964844 45.070312 55.925781 44.996094 55.882812 C 45.085938 56.296875 45.203125 56.730469 45.054688 57.144531 C 45.253906 57.109375 45.453125 57.070312 45.652344 57.035156 C 45.523438 57.125 45.398438 57.21875 45.273438 57.3125 C 45.269531 57.402344 45.269531 57.492188 45.269531 57.585938 C 45.179688 57.492188 45.09375 57.402344 45.007812 57.3125 C 45.066406 57.566406 45.152344 57.8125 45.261719 58.050781 C 45.179688 58.113281 45.097656 58.175781 45.019531 58.238281 C 45.046875 58.386719 45.101562 58.542969 45.078125 58.699219 C 45.03125 59.210938 45.042969 59.730469 45.0625 60.246094 C 45.21875 60.277344 45.371094 60.308594 45.523438 60.339844 C 45.089844 60.441406 44.640625 60.484375 44.195312 60.519531 C 44.222656 60.550781 44.277344 60.617188 44.304688 60.648438 C 42.996094 60.773438 41.6875 60.894531 40.375 60.988281 C 40.386719 60.917969 40.410156 60.78125 40.421875 60.714844 C 40.242188 60.71875 40.03125 60.691406 39.925781 60.875 C 39.773438 60.808594 39.609375 60.761719 39.484375 60.648438 C 39.320312 60.460938 39.433594 60.21875 39.429688 60 C 39.421875 59.820312 39.40625 59.640625 39.453125 59.460938 C 39.390625 59.394531 39.332031 59.332031 39.269531 59.269531 C 39.355469 59.199219 39.445312 59.125 39.53125 59.054688 C 39.46875 59.019531 39.410156 58.984375 39.355469 58.949219 C 39.414062 58.726562 39.527344 58.5 39.46875 58.265625 C 39.425781 58.027344 39.316406 57.804688 39.300781 57.5625 C 39.324219 57.386719 39.46875 57.257812 39.5625 57.113281 C 39.5 57.058594 39.441406 57.003906 39.378906 56.945312 C 39.546875 56.691406 39.640625 56.390625 39.519531 56.097656 C 39.558594 56.007812 39.601562 55.921875 39.644531 55.835938 C 39.582031 55.582031 39.671875 55.339844 39.792969 55.117188 C 39.636719 55.144531 39.476562 55.171875 39.316406 55.195312 C 39.484375 55.027344 39.707031 54.960938 39.9375 54.933594 C 39.84375 54.546875 39.71875 54.171875 39.648438 53.78125 C 39.742188 53.730469 39.835938 53.679688 39.929688 53.632812 C 39.839844 53.585938 39.746094 53.542969 39.652344 53.5 C 39.769531 53.488281 39.882812 53.476562 40 53.464844 C 39.976562 53.410156 39.957031 53.359375 39.941406 53.308594 C 40.058594 53.164062 40.171875 53.011719 40.28125 52.859375 C 40.179688 52.757812 40.078125 52.660156 39.976562 52.558594 C 40.320312 52.648438 40.644531 52.515625 40.925781 52.324219 C 40.632812 52.226562 40.339844 52.140625 40.039062 52.097656 C 41.492188 51.953125 42.9375 51.722656 44.382812 51.523438 Z M 44.382812 51.523438 "/>
<use xlink:href="#surface11" mask="url(#mask2)"/>
<path style=" stroke:none;fill-rule:nonzero;fill:rgb(48.627451%,48.627451%,86.666667%);fill-opacity:1;" d="M 21.921875 51.988281 C 22.378906 52.050781 22.835938 52.136719 23.300781 52.144531 C 24.144531 52.171875 24.980469 52.332031 25.824219 52.371094 C 26.070312 52.746094 25.757812 53.121094 25.566406 53.433594 C 25.628906 53.464844 25.695312 53.496094 25.761719 53.53125 C 25.683594 53.585938 25.609375 53.644531 25.535156 53.699219 C 25.625 53.765625 25.71875 53.832031 25.8125 53.898438 C 25.816406 54.144531 25.804688 54.386719 25.765625 54.632812 C 25.664062 54.664062 25.566406 54.699219 25.46875 54.730469 C 25.519531 54.851562 25.582031 54.96875 25.609375 55.101562 C 25.496094 55.1875 25.378906 55.257812 25.261719 55.335938 C 25.164062 55.960938 25.074219 56.636719 25.316406 57.238281 C 25.257812 57.304688 25.199219 57.371094 25.136719 57.4375 C 25.152344 57.871094 25.15625 58.304688 25.210938 58.734375 C 25.273438 59.113281 25.050781 59.476562 25.140625 59.851562 C 25.207031 60.175781 25.277344 60.5 25.207031 60.832031 C 25.617188 60.847656 26.023438 60.886719 26.425781 60.957031 C 26.363281 60.992188 26.238281 61.058594 26.175781 61.09375 C 24.449219 61.089844 22.730469 60.890625 21.011719 60.753906 C 20.828125 60.675781 20.648438 60.59375 20.464844 60.515625 C 20.460938 60.476562 20.449219 60.402344 20.445312 60.367188 C 20.492188 60.347656 20.589844 60.308594 20.636719 60.289062 C 20.625 60.257812 20.605469 60.1875 20.597656 60.152344 C 20.519531 60.105469 20.445312 60.058594 20.367188 60.011719 C 20.421875 59.996094 20.527344 59.964844 20.578125 59.949219 C 20.503906 59.714844 20.414062 59.484375 20.382812 59.242188 C 20.390625 59.066406 20.503906 58.921875 20.546875 58.753906 C 20.542969 58.382812 20.394531 58.03125 20.375 57.660156 C 20.390625 57.335938 20.523438 57.023438 20.492188 56.695312 C 20.460938 56.40625 20.550781 56.121094 20.480469 55.832031 C 20.394531 55.539062 20.660156 55.3125 20.710938 55.042969 C 20.683594 54.878906 20.566406 54.753906 20.484375 54.613281 C 20.765625 54.554688 21.066406 54.53125 21.308594 54.359375 C 21.089844 54.351562 20.871094 54.363281 20.652344 54.378906 C 20.828125 54.175781 21.011719 53.980469 21.210938 53.804688 C 21.089844 53.734375 20.96875 53.671875 20.847656 53.605469 C 20.992188 53.605469 21.132812 53.605469 21.273438 53.609375 C 21.195312 53.507812 21.113281 53.410156 21.03125 53.308594 C 21.179688 53.140625 21.324219 52.972656 21.472656 52.808594 C 21.382812 52.8125 21.292969 52.8125 21.203125 52.820312 C 21.207031 52.742188 21.210938 52.667969 21.21875 52.59375 C 21.53125 52.496094 21.871094 52.359375 21.921875 51.988281 Z M 21.921875 51.988281 "/>
<path style=" stroke:none;fill-rule:nonzero;fill:rgb(36.078432%,57.647061%,87.450981%);fill-opacity:1;" d="M 37.066406 52.332031 C 38.058594 52.300781 39.046875 52.191406 40.039062 52.097656 C 40.339844 52.140625 40.632812 52.226562 40.925781 52.324219 C 40.644531 52.515625 40.320312 52.648438 39.976562 52.558594 C 40.078125 52.660156 40.179688 52.757812 40.28125 52.859375 C 40.171875 53.011719 40.058594 53.164062 39.941406 53.308594 C 39.957031 53.359375 39.976562 53.410156 40 53.464844 C 39.882812 53.476562 39.769531 53.488281 39.652344 53.5 C 39.746094 53.542969 39.839844 53.585938 39.929688 53.632812 C 39.835938 53.679688 39.742188 53.730469 39.648438 53.78125 C 39.71875 54.171875 39.84375 54.546875 39.9375 54.933594 C 39.707031 54.960938 39.484375 55.027344 39.316406 55.195312 C 39.476562 55.171875 39.636719 55.144531 39.792969 55.117188 C 39.671875 55.339844 39.582031 55.582031 39.644531 55.835938 C 39.601562 55.921875 39.558594 56.007812 39.519531 56.097656 C 39.640625 56.390625 39.546875 56.691406 39.378906 56.945312 C 39.441406 57.003906 39.5 57.058594 39.5625 57.113281 C 39.46875 57.257812 39.324219 57.386719 39.300781 57.5625 C 39.316406 57.804688 39.425781 58.027344 39.46875 58.265625 C 39.527344 58.5 39.414062 58.726562 39.355469 58.949219 C 39.410156 58.984375 39.46875 59.019531 39.53125 59.054688 C 39.445312 59.125 39.355469 59.199219 39.269531 59.269531 C 39.332031 59.332031 39.390625 59.394531 39.453125 59.460938 C 39.40625 59.640625 39.421875 59.820312 39.429688 60 C 39.433594 60.21875 39.320312 60.460938 39.484375 60.648438 C 39.609375 60.761719 39.773438 60.808594 39.925781 60.875 C 40.03125 60.691406 40.242188 60.71875 40.421875 60.714844 C 40.410156 60.78125 40.386719 60.917969 40.375 60.988281 C 39.476562 61.070312 38.578125 61.085938 37.679688 61.132812 C 37.074219 61.109375 36.464844 61.117188 35.863281 61.15625 C 36.128906 60.984375 36.445312 60.984375 36.75 60.957031 C 36.519531 60.890625 36.28125 60.855469 36.042969 60.851562 C 36.199219 60.261719 35.886719 59.6875 35.972656 59.089844 C 35.90625 59.019531 35.839844 58.953125 35.773438 58.882812 C 35.871094 58.746094 35.972656 58.613281 36.074219 58.476562 C 35.972656 58.273438 35.789062 58.050781 35.929688 57.816406 C 36.140625 57.347656 36.078125 56.773438 35.75 56.371094 C 35.894531 56.238281 36.023438 56.082031 36.058594 55.882812 C 36.113281 55.6875 35.957031 55.519531 35.886719 55.347656 C 35.992188 55.289062 36.097656 55.230469 36.199219 55.171875 C 36.148438 55.152344 36.039062 55.109375 35.988281 55.089844 C 36.035156 54.785156 36.121094 54.488281 36.265625 54.214844 C 36.15625 54.1875 36.046875 54.164062 35.933594 54.140625 C 36 54.121094 36.128906 54.082031 36.191406 54.066406 C 36.113281 53.964844 36.035156 53.867188 35.957031 53.769531 C 36.023438 53.714844 36.09375 53.664062 36.160156 53.609375 C 36.1875 53.421875 36.222656 53.230469 36.269531 53.046875 C 36.222656 52.964844 36.175781 52.882812 36.128906 52.800781 C 36.210938 52.75 36.289062 52.695312 36.371094 52.644531 C 36.429688 52.796875 36.492188 52.949219 36.554688 53.097656 C 36.734375 52.902344 36.636719 52.652344 36.589844 52.429688 C 36.636719 52.421875 36.726562 52.402344 36.773438 52.390625 C 37.207031 52.355469 37.644531 52.453125 38.078125 52.386719 C 37.742188 52.355469 37.402344 52.367188 37.066406 52.332031 Z M 37.066406 52.332031 "/>
<path style=" stroke:none;fill-rule:nonzero;fill:rgb(43.921569%,51.372552%,86.666667%);fill-opacity:1;" d="M 25.824219 52.371094 C 27.292969 52.496094 28.769531 52.542969 30.242188 52.59375 C 29.917969 53.222656 29.855469 53.945312 29.9375 54.640625 C 29.828125 54.605469 29.722656 54.574219 29.613281 54.546875 C 29.707031 54.730469 29.808594 54.914062 29.910156 55.097656 C 29.804688 55.226562 29.699219 55.355469 29.605469 55.492188 C 29.726562 55.492188 29.835938 55.441406 29.9375 55.378906 C 29.867188 55.550781 29.832031 55.730469 29.832031 55.914062 C 29.714844 55.871094 29.59375 55.832031 29.476562 55.792969 C 29.460938 55.992188 29.4375 56.195312 29.402344 56.394531 C 29.554688 56.523438 29.734375 56.652344 29.742188 56.875 C 29.625 56.976562 29.46875 57.019531 29.332031 57.082031 C 29.394531 57.347656 29.515625 57.621094 29.40625 57.886719 C 29.445312 57.898438 29.523438 57.925781 29.558594 57.9375 C 29.46875 58.058594 29.378906 58.183594 29.300781 58.316406 C 29.375 58.359375 29.449219 58.402344 29.523438 58.445312 C 29.417969 58.550781 29.3125 58.65625 29.207031 58.761719 C 29.242188 59.308594 29.859375 59.496094 29.941406 60.019531 C 29.84375 60.015625 29.753906 60.019531 29.660156 60.019531 C 29.859375 60.179688 29.941406 60.414062 29.996094 60.65625 C 30.203125 60.683594 30.410156 60.707031 30.617188 60.734375 C 30.671875 60.886719 30.726562 61.039062 30.777344 61.195312 C 29.347656 61.222656 27.917969 61.082031 26.484375 61.140625 C 26.378906 61.125 26.277344 61.109375 26.175781 61.09375 C 26.238281 61.058594 26.363281 60.992188 26.425781 60.957031 C 26.023438 60.886719 25.617188 60.847656 25.207031 60.832031 C 25.277344 60.5 25.207031 60.175781 25.140625 59.851562 C 25.050781 59.476562 25.273438 59.113281 25.210938 58.734375 C 25.15625 58.304688 25.152344 57.871094 25.136719 57.4375 C 25.199219 57.371094 25.257812 57.304688 25.316406 57.238281 C 25.074219 56.636719 25.164062 55.960938 25.261719 55.335938 C 25.378906 55.257812 25.496094 55.1875 25.609375 55.101562 C 25.582031 54.96875 25.519531 54.851562 25.46875 54.730469 C 25.566406 54.699219 25.664062 54.664062 25.765625 54.632812 C 25.804688 54.386719 25.816406 54.144531 25.8125 53.898438 C 25.71875 53.832031 25.625 53.765625 25.535156 53.699219 C 25.609375 53.644531 25.683594 53.585938 25.761719 53.53125 C 25.695312 53.496094 25.628906 53.464844 25.566406 53.433594 C 25.757812 53.121094 26.070312 52.746094 25.824219 52.371094 Z M 25.824219 52.371094 "/>
<path style=" stroke:none;fill-rule:nonzero;fill:rgb(39.215687%,54.509807%,87.058824%);fill-opacity:1;" d="M 32.824219 52.609375 C 34.078125 52.554688 35.339844 52.566406 36.589844 52.429688 C 36.636719 52.652344 36.734375 52.902344 36.554688 53.097656 C 36.492188 52.949219 36.429688 52.796875 36.371094 52.644531 C 36.289062 52.695312 36.210938 52.75 36.128906 52.800781 C 36.175781 52.882812 36.222656 52.964844 36.269531 53.046875 C 36.222656 53.230469 36.1875 53.421875 36.160156 53.609375 C 36.09375 53.664062 36.023438 53.714844 35.957031 53.769531 C 36.035156 53.867188 36.113281 53.964844 36.191406 54.066406 C 36.128906 54.082031 36 54.121094 35.933594 54.140625 C 36.046875 54.164062 36.15625 54.1875 36.265625 54.214844 C 36.121094 54.488281 36.035156 54.785156 35.988281 55.089844 C 36.039062 55.109375 36.148438 55.152344 36.199219 55.171875 C 36.097656 55.230469 35.992188 55.289062 35.886719 55.347656 C 35.957031 55.519531 36.113281 55.6875 36.058594 55.882812 C 36.023438 56.082031 35.894531 56.238281 35.75 56.371094 C 36.078125 56.773438 36.140625 57.347656 35.929688 57.816406 C 35.789062 58.050781 35.972656 58.273438 36.074219 58.476562 C 35.972656 58.613281 35.871094 58.746094 35.773438 58.882812 C 35.839844 58.953125 35.90625 59.019531 35.972656 59.089844 C 35.886719 59.6875 36.199219 60.261719 36.042969 60.851562 C 36.28125 60.855469 36.519531 60.890625 36.75 60.957031 C 36.445312 60.984375 36.128906 60.984375 35.863281 61.15625 C 34.167969 61.246094 32.472656 61.183594 30.777344 61.195312 C 30.726562 61.039062 30.671875 60.886719 30.617188 60.734375 C 30.410156 60.707031 30.203125 60.683594 29.996094 60.65625 C 29.941406 60.414062 29.859375 60.179688 29.660156 60.019531 C 29.753906 60.019531 29.84375 60.015625 29.941406 60.019531 C 29.859375 59.496094 29.242188 59.308594 29.207031 58.761719 C 29.3125 58.65625 29.417969 58.550781 29.523438 58.445312 C 29.449219 58.402344 29.375 58.359375 29.300781 58.316406 C 29.378906 58.183594 29.46875 58.058594 29.558594 57.9375 C 29.523438 57.925781 29.445312 57.898438 29.40625 57.886719 C 29.515625 57.621094 29.394531 57.347656 29.332031 57.082031 C 29.46875 57.019531 29.625 56.976562 29.742188 56.875 C 29.734375 56.652344 29.554688 56.523438 29.402344 56.394531 C 29.4375 56.195312 29.460938 55.992188 29.476562 55.792969 C 29.59375 55.832031 29.714844 55.871094 29.832031 55.914062 C 29.832031 55.730469 29.867188 55.550781 29.9375 55.378906 C 29.835938 55.441406 29.726562 55.492188 29.605469 55.492188 C 29.699219 55.355469 29.804688 55.226562 29.910156 55.097656 C 29.808594 54.914062 29.707031 54.730469 29.613281 54.546875 C 29.722656 54.574219 29.828125 54.605469 29.9375 54.640625 C 29.855469 53.945312 29.917969 53.222656 30.242188 52.59375 C 31.105469 52.628906 31.964844 52.648438 32.824219 52.609375 Z M 32.824219 52.609375 "/>
<use xlink:href="#surface14" mask="url(#mask3)"/>
<use xlink:href="#surface17" mask="url(#mask4)"/>
</g>
</svg>
