<?xml version="1.0" encoding="UTF-8" ?>
<!DOCTYPE svg PUBLIC "-//W3C//DTD SVG 1.1//EN" "http://www.w3.org/Graphics/SVG/1.1/DTD/svg11.dtd">
<svg width="620pt" height="620pt" viewBox="0 0 620 620" version="1.1" xmlns="http://www.w3.org/2000/svg">
<g id="#aa6addfe">
<path fill="#aa6add" opacity="1.00" d=" M 275.18 44.22 C 283.34 36.00 293.26 28.05 305.35 27.47 C 303.76 29.13 302.26 31.16 299.85 31.61 C 296.83 32.33 294.32 34.46 291.15 34.66 C 289.81 37.03 290.54 39.23 292.45 40.98 C 291.70 41.28 290.95 41.58 290.20 41.89 C 290.02 44.32 289.86 46.75 289.71 49.19 C 288.37 49.62 286.76 49.68 285.79 50.84 C 283.92 52.64 284.57 55.43 284.09 57.73 C 283.75 60.34 281.53 62.01 279.66 63.58 C 279.85 64.14 280.05 64.71 280.24 65.28 C 278.56 67.26 276.80 69.48 276.62 72.19 C 276.42 73.99 276.92 76.09 275.48 77.51 C 272.00 82.08 266.25 86.91 268.27 93.32 C 267.37 94.09 266.44 94.83 265.67 95.73 C 265.45 97.32 265.61 98.94 265.47 100.53 C 264.11 101.80 262.34 102.49 260.71 103.33 C 261.61 104.57 262.40 105.88 263.10 107.24 C 260.82 105.82 258.59 108.14 257.49 109.92 C 257.25 112.98 257.70 116.03 257.78 119.09 C 256.49 119.62 255.21 120.16 253.93 120.70 C 254.19 123.16 255.83 126.15 253.86 128.28 C 253.74 127.32 253.63 126.36 253.52 125.40 C 252.51 125.63 251.50 125.87 250.49 126.10 C 250.78 127.76 251.61 129.46 251.14 131.15 C 250.12 133.09 248.59 134.68 247.21 136.36 C 248.14 136.95 249.07 137.54 250.00 138.13 C 249.57 138.59 249.14 139.05 248.72 139.52 C 248.17 139.15 247.07 138.41 246.52 138.05 C 246.67 139.61 246.84 141.17 247.04 142.74 C 245.80 143.30 244.56 143.86 243.33 144.42 C 243.99 145.00 244.67 145.59 245.34 146.17 C 244.86 147.11 244.39 148.05 243.92 148.99 C 244.28 149.77 244.64 150.54 245.00 151.33 C 244.34 153.74 243.87 156.21 243.49 158.68 C 241.58 159.56 239.66 160.65 238.81 162.70 C 237.43 164.67 238.20 167.09 238.09 169.30 C 237.17 172.95 234.23 175.93 230.49 176.61 C 230.89 177.45 231.30 178.29 231.71 179.14 C 230.83 181.81 230.26 184.63 231.14 187.38 C 230.13 189.34 228.91 191.30 228.89 193.57 C 223.16 196.40 225.18 204.02 221.26 208.14 C 217.51 211.20 217.53 216.44 216.08 220.70 C 215.22 221.07 214.37 221.44 213.52 221.83 C 213.22 222.98 213.09 224.23 212.28 225.17 C 210.28 227.55 210.69 230.88 209.52 233.62 C 208.31 235.09 206.53 235.93 205.18 237.25 C 204.87 238.92 205.90 240.48 206.41 242.01 C 203.95 244.87 203.39 248.98 200.35 251.38 C 197.41 253.47 197.83 257.46 196.23 260.37 C 194.95 262.68 190.56 262.00 190.79 265.24 C 190.69 268.18 190.41 271.12 189.39 273.90 C 190.03 274.78 190.67 275.65 191.32 276.53 C 169.47 312.55 149.62 349.80 132.22 388.16 C 126.57 399.87 121.85 411.97 117.19 424.09 C 113.39 434.81 109.52 445.67 108.48 457.08 C 108.03 461.34 109.05 465.57 110.69 469.48 C 108.81 469.54 106.92 469.62 105.04 469.69 C 105.01 473.40 105.78 477.20 104.91 480.86 C 104.71 482.59 102.82 482.31 101.58 482.68 C 101.44 484.24 101.32 485.80 101.21 487.37 C 102.12 487.36 103.02 487.35 103.92 487.36 C 102.83 490.07 100.13 491.32 97.82 492.80 C 98.09 493.23 98.62 494.08 98.88 494.50 C 99.77 494.18 100.67 493.87 101.56 493.58 C 100.48 495.12 98.99 496.29 97.44 497.34 C 97.88 498.92 98.33 500.50 98.78 502.09 C 97.24 502.73 95.72 503.41 94.20 504.11 C 95.01 504.58 95.82 505.05 96.63 505.53 C 95.31 507.40 93.50 508.82 91.62 510.12 C 91.84 511.17 92.45 512.22 92.31 513.32 C 91.05 516.10 88.02 517.31 85.52 518.73 C 84.88 522.61 86.81 526.46 85.71 530.28 C 84.12 536.77 85.17 543.57 83.57 550.06 C 83.32 551.82 81.65 552.74 80.47 553.87 C 81.41 555.46 82.35 557.05 83.28 558.66 C 82.50 559.16 81.72 559.67 80.94 560.19 C 82.11 560.61 83.28 561.03 84.45 561.47 C 84.52 564.23 84.64 566.98 84.80 569.74 C 84.18 569.88 82.94 570.16 82.32 570.29 C 79.90 570.32 77.30 569.97 75.14 568.83 C 69.51 567.86 64.16 565.77 58.66 564.30 C 55.38 563.05 52.05 561.91 48.62 561.14 L 48.53 560.59 C 48.42 559.96 48.20 558.69 48.10 558.06 C 46.90 557.20 45.70 556.35 44.51 555.50 C 44.99 553.05 46.00 550.63 45.80 548.11 C 44.54 541.22 45.63 533.76 49.33 527.75 C 48.71 526.26 48.06 524.77 47.41 523.29 C 48.57 523.39 49.72 523.49 50.88 523.60 C 51.79 521.37 51.92 519.03 50.63 516.92 C 51.58 516.47 52.52 516.02 53.46 515.59 C 52.39 513.35 50.56 511.06 51.30 508.43 C 51.64 506.11 53.44 504.47 54.87 502.78 C 54.05 502.32 53.23 501.88 52.42 501.44 C 54.44 499.05 56.89 496.95 58.43 494.20 C 58.45 492.79 57.99 491.40 58.09 490.00 C 59.04 488.10 60.51 486.52 61.81 484.86 C 62.76 484.76 63.71 484.67 64.66 484.58 C 64.00 483.82 63.34 483.06 62.68 482.31 C 64.44 478.68 66.35 474.57 64.88 470.50 C 64.55 466.32 68.87 464.06 72.15 462.65 C 71.67 460.64 71.00 458.68 70.70 456.64 C 71.36 455.58 72.16 454.63 72.93 453.66 C 72.80 451.23 73.28 448.38 75.47 446.97 C 76.73 446.81 77.95 447.40 79.17 447.62 C 78.47 446.13 77.42 444.87 76.34 443.65 C 75.94 442.12 76.27 440.51 76.29 438.95 C 76.76 440.30 77.22 441.66 77.68 443.02 C 78.08 441.66 78.48 440.32 78.89 438.97 C 78.10 438.42 77.31 437.88 76.53 437.35 C 79.18 435.13 78.33 431.05 81.33 429.07 C 81.35 427.91 81.34 426.76 81.42 425.61 C 81.27 422.55 84.89 421.53 86.02 419.06 C 86.03 416.91 85.53 414.79 85.33 412.66 C 87.17 411.77 88.98 410.81 90.73 409.77 C 89.61 408.43 88.57 407.02 88.09 405.33 C 89.26 405.42 90.44 405.54 91.62 405.65 C 90.97 401.61 90.86 397.40 92.59 393.59 C 93.46 393.46 94.32 393.33 95.19 393.20 C 93.96 392.28 92.73 391.36 91.50 390.45 C 91.90 388.97 92.19 387.44 92.84 386.04 C 94.26 383.49 97.14 382.06 98.34 379.37 C 99.07 377.79 97.95 376.24 97.43 374.80 C 97.99 374.46 98.55 374.13 99.12 373.80 C 98.97 373.03 98.80 372.27 98.72 371.49 C 99.88 370.40 101.62 370.12 103.05 369.46 C 102.39 368.23 101.73 367.01 101.07 365.79 C 101.93 365.59 102.79 365.39 103.66 365.20 C 104.20 363.11 104.75 361.02 105.34 358.94 C 105.12 358.29 104.91 357.65 104.69 357.01 C 105.08 355.31 105.43 353.59 105.76 351.88 C 106.58 351.48 107.40 351.07 108.22 350.68 C 108.08 350.18 107.95 349.69 107.82 349.20 C 109.35 347.94 111.18 346.91 112.36 345.28 C 113.12 341.11 111.05 336.91 112.33 332.76 C 113.10 334.22 113.58 335.80 114.00 337.40 C 115.02 337.47 116.05 337.54 117.08 337.62 C 116.22 335.53 115.28 333.49 114.37 331.43 C 115.70 331.90 116.90 332.63 118.04 333.47 C 118.55 329.24 119.94 324.90 118.50 320.70 C 117.71 318.68 120.10 317.77 121.42 316.89 C 121.57 318.02 121.72 319.15 121.87 320.29 C 123.13 318.68 125.16 316.85 124.31 314.59 C 122.91 311.25 124.47 307.82 125.24 304.55 C 126.07 305.00 126.90 305.46 127.74 305.92 C 127.66 304.50 127.59 303.09 127.53 301.68 C 128.79 300.92 130.10 300.22 131.27 299.31 C 131.63 297.56 131.41 295.76 131.36 294.00 C 132.40 292.71 133.44 291.43 134.46 290.13 C 133.49 285.96 137.70 283.33 137.87 279.37 C 138.53 276.73 137.60 274.09 137.61 271.46 C 139.01 269.48 142.39 269.72 143.11 267.07 C 144.19 265.45 143.41 263.72 142.70 262.17 C 143.15 262.06 144.03 261.85 144.47 261.75 C 143.89 260.67 143.31 259.58 142.73 258.50 C 143.23 258.75 144.23 259.24 144.73 259.49 C 146.27 257.14 146.77 254.39 146.80 251.63 C 147.87 251.54 148.94 251.46 150.01 251.38 C 149.39 250.55 148.78 249.72 148.16 248.89 C 149.35 247.99 150.54 247.10 151.74 246.20 C 151.32 245.48 150.91 244.75 150.49 244.03 C 151.50 243.18 152.51 242.34 153.52 241.50 C 152.63 240.95 151.74 240.41 150.85 239.87 C 152.25 236.96 154.88 235.06 157.47 233.28 C 157.57 230.77 157.43 228.08 158.95 225.93 C 160.29 224.05 160.63 221.80 160.69 219.56 C 162.17 219.44 163.66 219.33 165.14 219.22 C 164.70 217.56 164.23 215.91 163.72 214.27 C 165.49 214.22 167.26 214.15 169.03 214.03 C 168.09 213.52 167.17 213.02 166.24 212.51 C 167.59 212.10 168.94 211.68 170.30 211.27 C 170.51 210.83 170.93 209.94 171.14 209.49 C 169.91 209.62 168.68 209.74 167.46 209.87 C 167.79 209.32 168.12 208.77 168.45 208.22 C 167.89 208.07 166.78 207.77 166.23 207.62 C 167.94 207.07 169.65 206.51 171.36 205.96 C 171.50 202.45 171.17 198.88 171.89 195.43 C 173.37 193.71 175.37 192.55 176.85 190.84 C 178.17 188.89 179.04 186.67 180.09 184.57 C 179.84 183.98 179.60 183.41 179.36 182.83 C 180.84 182.25 182.32 181.67 183.80 181.09 C 183.07 180.29 182.34 179.50 181.61 178.71 C 184.21 177.51 184.84 175.03 184.59 172.40 C 185.62 172.19 186.65 172.00 187.68 171.81 C 186.26 170.85 184.87 169.78 184.24 168.13 C 186.78 167.38 189.11 166.06 190.91 164.10 C 190.46 161.12 189.25 157.77 190.95 154.97 C 193.45 151.74 196.18 148.57 197.75 144.75 C 199.06 144.95 200.37 145.16 201.68 145.36 C 201.26 144.22 200.85 143.09 200.45 141.95 C 203.06 138.25 204.36 133.77 207.40 130.35 C 210.39 126.77 213.52 123.01 214.17 118.22 C 214.83 116.12 216.61 114.64 217.78 112.82 C 235.67 88.94 254.49 65.72 275.18 44.22 Z" />
</g>
<g id="#9c6fddfe">
<path fill="#9c6fdd" opacity="1.00" d=" M 305.35 27.47 C 313.03 27.00 321.11 27.69 327.87 31.69 C 326.33 32.13 324.76 32.45 323.18 32.72 C 323.03 36.07 320.95 38.51 318.82 40.86 C 317.43 44.63 317.52 49.01 314.22 51.89 C 314.66 52.83 315.11 53.76 315.56 54.70 C 313.83 55.51 312.10 56.32 310.38 57.12 C 311.19 57.99 312.00 58.85 312.82 59.72 C 311.94 59.66 311.06 59.60 310.19 59.54 C 310.07 61.38 309.96 63.22 309.85 65.07 C 307.75 66.08 305.56 66.89 303.36 67.63 C 302.70 70.81 302.65 74.06 302.49 77.29 C 302.46 79.30 300.26 80.02 298.82 80.89 C 295.78 82.36 296.32 86.34 294.90 88.94 C 293.53 89.57 292.07 89.97 290.64 90.44 C 290.83 93.33 290.52 96.24 289.24 98.86 C 289.75 99.24 290.28 99.61 290.80 99.98 C 290.68 100.25 290.44 100.77 290.32 101.04 C 289.64 101.29 288.96 101.55 288.29 101.80 C 288.70 102.43 289.11 103.06 289.53 103.69 C 287.96 105.44 286.16 106.99 284.72 108.86 C 283.37 113.56 283.08 118.53 282.99 123.34 C 281.84 122.48 280.92 121.37 280.01 120.28 C 279.53 121.31 278.99 122.31 278.29 123.20 C 279.43 123.85 280.56 124.50 281.70 125.15 C 280.16 126.33 277.65 127.08 277.54 129.36 C 277.13 132.84 277.15 136.36 276.77 139.85 C 275.59 139.42 274.41 138.99 273.24 138.56 C 269.62 142.48 271.38 148.10 269.93 152.81 C 269.93 154.16 268.58 154.56 267.59 155.05 C 267.40 155.53 267.22 156.01 267.04 156.50 C 266.01 157.14 264.98 157.78 263.95 158.42 C 264.32 159.82 264.70 161.22 265.10 162.61 C 264.48 163.54 263.85 164.47 263.23 165.40 C 263.79 166.11 264.36 166.82 264.93 167.53 C 265.99 166.98 267.06 166.43 268.11 165.86 C 239.68 200.69 214.77 238.22 191.32 276.53 C 190.67 275.65 190.03 274.78 189.39 273.90 C 190.41 271.12 190.69 268.18 190.79 265.24 C 190.56 262.00 194.95 262.68 196.23 260.37 C 197.83 257.46 197.41 253.47 200.35 251.38 C 203.39 248.98 203.95 244.87 206.41 242.01 C 205.90 240.48 204.87 238.92 205.18 237.25 C 206.53 235.93 208.31 235.09 209.52 233.62 C 210.69 230.88 210.28 227.55 212.28 225.17 C 213.09 224.23 213.22 222.98 213.52 221.83 C 214.37 221.44 215.22 221.07 216.08 220.70 C 217.53 216.44 217.51 211.20 221.26 208.14 C 225.18 204.02 223.16 196.40 228.89 193.57 C 228.91 191.30 230.13 189.34 231.14 187.38 C 230.26 184.63 230.83 181.81 231.71 179.14 C 231.30 178.29 230.89 177.45 230.49 176.61 C 234.23 175.93 237.17 172.95 238.09 169.30 C 238.20 167.09 237.43 164.67 238.81 162.70 C 239.66 160.65 241.58 159.56 243.49 158.68 C 243.87 156.21 244.34 153.74 245.00 151.33 C 244.64 150.54 244.28 149.77 243.92 148.99 C 244.39 148.05 244.86 147.11 245.34 146.17 C 244.67 145.59 243.99 145.00 243.33 144.42 C 244.56 143.86 245.80 143.30 247.04 142.74 C 246.84 141.17 246.67 139.61 246.52 138.05 C 247.07 138.41 248.17 139.15 248.72 139.52 C 249.14 139.05 249.57 138.59 250.00 138.13 C 249.07 137.54 248.14 136.95 247.21 136.36 C 248.59 134.68 250.12 133.09 251.14 131.15 C 251.61 129.46 250.78 127.76 250.49 126.10 C 251.50 125.87 252.51 125.63 253.52 125.40 C 253.63 126.36 253.74 127.32 253.86 128.28 C 255.83 126.15 254.19 123.16 253.93 120.70 C 255.21 120.16 256.49 119.62 257.78 119.09 C 257.70 116.03 257.25 112.98 257.49 109.92 C 258.59 108.14 260.82 105.82 263.10 107.24 C 262.40 105.88 261.61 104.57 260.71 103.33 C 262.34 102.49 264.11 101.80 265.47 100.53 C 265.61 98.94 265.45 97.32 265.67 95.73 C 266.44 94.83 267.37 94.09 268.27 93.32 C 266.25 86.91 272.00 82.08 275.48 77.51 C 276.92 76.09 276.42 73.99 276.62 72.19 C 276.80 69.48 278.56 67.26 280.24 65.28 C 280.05 64.71 279.85 64.14 279.66 63.58 C 281.53 62.01 283.75 60.34 284.09 57.73 C 284.57 55.43 283.92 52.64 285.79 50.84 C 286.76 49.68 288.37 49.62 289.71 49.19 C 289.86 46.75 290.02 44.32 290.20 41.89 C 290.95 41.58 291.70 41.28 292.45 40.98 C 290.54 39.23 289.81 37.03 291.15 34.66 C 294.32 34.46 296.83 32.33 299.85 31.61 C 302.26 31.16 303.76 29.13 305.35 27.47 Z" />
</g>
<g id="#9075dffe">
<path fill="#9075df" opacity="1.00" d=" M 323.18 32.72 C 324.76 32.45 326.33 32.13 327.87 31.69 L 328.29 31.58 C 341.18 38.66 350.22 50.53 359.93 61.21 C 361.00 62.14 362.05 63.12 362.74 64.39 C 361.52 64.28 360.33 64.00 359.17 63.65 C 356.57 65.46 355.93 68.54 355.51 71.48 C 353.95 72.15 352.26 72.60 350.86 73.57 C 349.59 75.48 349.01 77.78 347.65 79.64 C 346.32 80.98 344.64 81.91 343.29 83.22 C 342.68 86.24 342.26 89.33 340.69 92.04 C 340.86 92.39 341.21 93.09 341.38 93.44 C 339.47 94.27 337.66 95.32 336.02 96.60 C 336.58 97.46 337.14 98.33 337.70 99.20 C 335.98 99.46 334.27 99.72 332.56 99.98 C 332.93 100.74 333.31 101.51 333.69 102.28 C 332.44 102.60 331.19 102.92 329.95 103.25 C 331.30 103.76 332.65 104.26 334.00 104.76 C 332.59 105.12 331.17 105.48 329.76 105.84 C 329.00 108.77 328.98 111.80 329.24 114.80 C 328.80 115.32 328.36 115.85 327.92 116.37 C 328.00 116.80 328.07 117.22 328.16 117.65 C 326.61 118.53 324.34 118.84 323.77 120.80 C 322.74 123.83 324.20 127.53 321.58 130.00 C 322.38 131.25 323.18 132.49 323.98 133.74 C 322.30 133.52 320.62 133.30 318.96 133.00 C 313.77 131.03 307.85 130.38 302.64 132.66 C 293.02 136.20 286.76 144.71 279.96 151.89 C 275.91 156.45 272.03 161.17 268.11 165.86 C 267.06 166.43 265.99 166.98 264.93 167.53 C 264.36 166.82 263.79 166.11 263.23 165.40 C 263.85 164.47 264.48 163.54 265.10 162.61 C 264.70 161.22 264.32 159.82 263.95 158.42 C 264.98 157.78 266.01 157.14 267.04 156.50 C 267.22 156.01 267.40 155.53 267.59 155.05 C 268.58 154.56 269.93 154.16 269.93 152.81 C 271.38 148.10 269.62 142.48 273.24 138.56 C 274.41 138.99 275.59 139.42 276.77 139.85 C 277.15 136.36 277.13 132.84 277.54 129.36 C 277.65 127.08 280.16 126.33 281.70 125.15 C 280.56 124.50 279.43 123.85 278.29 123.20 C 278.99 122.31 279.53 121.31 280.01 120.28 C 280.92 121.37 281.84 122.48 282.99 123.34 C 283.08 118.53 283.37 113.56 284.72 108.86 C 286.16 106.99 287.96 105.44 289.53 103.69 C 289.11 103.06 288.70 102.43 288.29 101.80 C 288.96 101.55 289.64 101.29 290.32 101.04 C 290.44 100.77 290.68 100.25 290.80 99.98 C 290.28 99.61 289.75 99.24 289.24 98.86 C 290.52 96.24 290.83 93.33 290.64 90.44 C 292.07 89.97 293.53 89.57 294.90 88.94 C 296.32 86.34 295.78 82.36 298.82 80.89 C 300.26 80.02 302.46 79.30 302.49 77.29 C 302.65 74.06 302.70 70.81 303.36 67.63 C 305.56 66.89 307.75 66.08 309.85 65.07 C 309.96 63.22 310.07 61.38 310.19 59.54 C 311.06 59.60 311.94 59.66 312.82 59.72 C 312.00 58.85 311.19 57.99 310.38 57.12 C 312.10 56.32 313.83 55.51 315.56 54.70 C 315.11 53.76 314.66 52.83 314.22 51.89 C 317.52 49.01 317.43 44.63 318.82 40.86 C 320.95 38.51 323.03 36.07 323.18 32.72 Z" />
</g>
<g id="#7f7ee0fe">
<path fill="#7f7ee0" opacity="1.00" d=" M 355.51 71.48 C 355.93 68.54 356.57 65.46 359.17 63.65 C 360.33 64.00 361.52 64.28 362.74 64.39 L 363.07 64.43 C 366.23 68.37 369.88 71.89 372.81 76.02 C 380.76 85.27 388.31 94.85 395.76 104.49 C 394.66 107.13 392.83 109.59 392.46 112.47 C 393.44 113.26 394.53 113.91 395.62 114.58 C 393.59 115.05 391.11 114.86 389.62 116.55 C 387.06 119.30 385.05 122.50 382.55 125.31 C 382.39 127.09 382.96 129.18 381.70 130.66 C 379.42 133.48 376.16 135.30 372.82 136.57 C 370.06 140.82 370.13 145.96 369.71 150.82 C 367.80 150.49 365.90 150.14 364.02 149.71 C 363.21 152.43 362.30 155.16 360.60 157.47 C 359.73 157.12 358.86 156.77 357.99 156.42 C 356.98 159.84 356.30 163.38 356.53 166.97 C 355.47 166.70 354.42 166.45 353.39 166.16 C 346.57 158.14 340.13 149.74 332.47 142.49 C 328.70 138.42 324.08 135.16 318.96 133.00 C 320.62 133.30 322.30 133.52 323.98 133.74 C 323.18 132.49 322.38 131.25 321.58 130.00 C 324.20 127.53 322.74 123.83 323.77 120.80 C 324.34 118.84 326.61 118.53 328.16 117.65 C 328.07 117.22 328.00 116.80 327.92 116.37 C 328.36 115.85 328.80 115.32 329.24 114.80 C 328.98 111.80 329.00 108.77 329.76 105.84 C 331.17 105.48 332.59 105.12 334.00 104.76 C 332.65 104.26 331.30 103.76 329.95 103.25 C 331.19 102.92 332.44 102.60 333.69 102.28 C 333.31 101.51 332.93 100.74 332.56 99.98 C 334.27 99.72 335.98 99.46 337.70 99.20 C 337.14 98.33 336.58 97.46 336.02 96.60 C 337.66 95.32 339.47 94.27 341.38 93.44 C 341.21 93.09 340.86 92.39 340.69 92.04 C 342.26 89.33 342.68 86.24 343.29 83.22 C 344.64 81.91 346.32 80.98 347.65 79.64 C 349.01 77.78 349.59 75.48 350.86 73.57 C 352.26 72.60 353.95 72.15 355.51 71.48 Z" />
</g>
<g id="#7287e0fe">
<path fill="#7287e0" opacity="1.00" d=" M 392.46 112.47 C 392.83 109.59 394.66 107.13 395.76 104.49 C 399.64 109.55 403.42 114.69 407.29 119.76 C 411.56 125.81 416.26 131.64 420.03 138.01 C 418.56 136.66 417.34 135.08 416.21 133.45 C 414.45 134.88 412.62 136.21 410.75 137.46 C 411.98 137.33 413.23 137.20 414.48 137.08 C 414.26 137.58 414.04 138.08 413.84 138.58 C 414.06 138.93 414.50 139.63 414.73 139.98 C 412.08 141.37 409.95 143.53 407.45 145.13 C 406.54 144.97 405.64 144.77 404.75 144.53 C 403.26 146.54 402.94 149.06 402.22 151.39 C 401.72 153.91 398.53 153.80 396.74 154.99 C 397.40 158.91 395.38 162.49 392.78 165.28 C 392.95 165.64 393.29 166.36 393.46 166.72 C 392.28 166.67 391.10 166.62 389.93 166.57 C 390.44 167.68 390.96 168.79 391.48 169.91 C 390.76 170.23 390.05 170.54 389.35 170.87 C 389.33 173.09 389.11 175.32 388.52 177.47 C 387.57 177.56 386.62 177.67 385.67 177.77 C 386.59 179.18 387.55 180.56 388.57 181.91 C 387.51 181.81 386.46 181.72 385.40 181.63 C 384.04 183.46 382.76 185.35 381.55 187.29 C 380.90 186.96 380.26 186.64 379.62 186.32 C 379.61 187.68 379.62 189.05 379.64 190.41 C 380.60 190.13 381.57 189.85 382.54 189.57 C 382.31 191.56 382.06 193.55 381.81 195.54 C 380.67 195.80 379.53 196.06 378.40 196.33 C 380.00 199.04 381.31 201.92 382.32 204.90 C 373.10 191.68 363.44 178.76 353.39 166.16 C 354.42 166.45 355.47 166.70 356.53 166.97 C 356.30 163.38 356.98 159.84 357.99 156.42 C 358.86 156.77 359.73 157.12 360.60 157.47 C 362.30 155.16 363.21 152.43 364.02 149.71 C 365.90 150.14 367.80 150.49 369.71 150.82 C 370.13 145.96 370.06 140.82 372.82 136.57 C 376.16 135.30 379.42 133.48 381.70 130.66 C 382.96 129.18 382.39 127.09 382.55 125.31 C 385.05 122.50 387.06 119.30 389.62 116.55 C 391.11 114.86 393.59 115.05 395.62 114.58 C 394.53 113.91 393.44 113.26 392.46 112.47 Z" />
</g>
<g id="#b768dbfe">
<path fill="#b768db" opacity="1.00" d=" M 208.90 124.81 C 210.89 122.80 211.79 119.81 214.17 118.22 C 213.52 123.01 210.39 126.77 207.40 130.35 C 204.36 133.77 203.06 138.25 200.45 141.95 C 200.85 143.09 201.26 144.22 201.68 145.36 C 200.37 145.16 199.06 144.95 197.75 144.75 C 196.18 148.57 193.45 151.74 190.95 154.97 C 189.25 157.77 190.46 161.12 190.91 164.10 C 189.11 166.06 186.78 167.38 184.24 168.13 C 184.87 169.78 186.26 170.85 187.68 171.81 C 186.65 172.00 185.62 172.19 184.59 172.40 C 184.84 175.03 184.21 177.51 181.61 178.71 C 182.34 179.50 183.07 180.29 183.80 181.09 C 182.32 181.67 180.84 182.25 179.36 182.83 C 179.60 183.41 179.84 183.98 180.09 184.57 C 179.04 186.67 178.17 188.89 176.85 190.84 C 175.37 192.55 173.37 193.71 171.89 195.43 C 171.17 198.88 171.50 202.45 171.36 205.96 C 169.65 206.51 167.94 207.07 166.23 207.62 C 166.78 207.77 167.89 208.07 168.45 208.22 C 168.12 208.77 167.79 209.32 167.46 209.87 C 168.68 209.74 169.91 209.62 171.14 209.49 C 170.93 209.94 170.51 210.83 170.30 211.27 C 168.94 211.68 167.59 212.10 166.24 212.51 C 167.17 213.02 168.09 213.52 169.03 214.03 C 167.26 214.15 165.49 214.22 163.72 214.27 C 164.23 215.91 164.70 217.56 165.14 219.22 C 163.66 219.33 162.17 219.44 160.69 219.56 C 160.63 221.80 160.29 224.05 158.95 225.93 C 157.43 228.08 157.57 230.77 157.47 233.28 C 154.88 235.06 152.25 236.96 150.85 239.87 C 151.74 240.41 152.63 240.95 153.52 241.50 C 152.51 242.34 151.50 243.18 150.49 244.03 C 150.91 244.75 151.32 245.48 151.74 246.20 C 150.54 247.10 149.35 247.99 148.16 248.89 C 148.78 249.72 149.39 250.55 150.01 251.38 C 148.94 251.46 147.87 251.54 146.80 251.63 C 146.77 254.39 146.27 257.14 144.73 259.49 C 144.23 259.24 143.23 258.75 142.73 258.50 C 143.31 259.58 143.89 260.67 144.47 261.75 C 144.03 261.85 143.15 262.06 142.70 262.17 C 143.41 263.72 144.19 265.45 143.11 267.07 C 142.39 269.72 139.01 269.48 137.61 271.46 C 137.60 274.09 138.53 276.73 137.87 279.37 C 137.70 283.33 133.49 285.96 134.46 290.13 C 133.44 291.43 132.40 292.71 131.36 294.00 C 131.41 295.76 131.63 297.56 131.27 299.31 C 130.10 300.22 128.79 300.92 127.53 301.68 C 127.59 303.09 127.66 304.50 127.74 305.92 C 126.90 305.46 126.07 305.00 125.24 304.55 C 124.47 307.82 122.91 311.25 124.31 314.59 C 125.16 316.85 123.13 318.68 121.87 320.29 C 121.72 319.15 121.57 318.02 121.42 316.89 C 120.10 317.77 117.71 318.68 118.50 320.70 C 119.94 324.90 118.55 329.24 118.04 333.47 C 116.90 332.63 115.70 331.90 114.37 331.43 C 115.28 333.49 116.22 335.53 117.08 337.62 C 116.05 337.54 115.02 337.47 114.00 337.40 C 113.58 335.80 113.10 334.22 112.33 332.76 C 111.05 336.91 113.12 341.11 112.36 345.28 C 111.18 346.91 109.35 347.94 107.82 349.20 C 107.95 349.69 108.08 350.18 108.22 350.68 C 107.40 351.07 106.58 351.48 105.76 351.88 C 105.43 353.59 105.08 355.31 104.69 357.01 C 104.91 357.65 105.12 358.29 105.34 358.94 C 104.75 361.02 104.20 363.11 103.66 365.20 C 102.79 365.39 101.93 365.59 101.07 365.79 C 101.73 367.01 102.39 368.23 103.05 369.46 C 101.62 370.12 99.88 370.40 98.72 371.49 C 98.80 372.27 98.97 373.03 99.12 373.80 C 98.55 374.13 97.99 374.46 97.43 374.80 C 97.95 376.24 99.07 377.79 98.34 379.37 C 97.14 382.06 94.26 383.49 92.84 386.04 C 92.19 387.44 91.90 388.97 91.50 390.45 C 92.73 391.36 93.96 392.28 95.19 393.20 C 94.32 393.33 93.46 393.46 92.59 393.59 C 90.86 397.40 90.97 401.61 91.62 405.65 C 90.44 405.54 89.26 405.42 88.09 405.33 C 88.57 407.02 89.61 408.43 90.73 409.77 C 88.98 410.81 87.17 411.77 85.33 412.66 C 85.53 414.79 86.03 416.91 86.02 419.06 C 84.89 421.53 81.27 422.55 81.42 425.61 C 81.34 426.76 81.35 427.91 81.33 429.07 C 78.33 431.05 79.18 435.13 76.53 437.35 C 77.31 437.88 78.10 438.42 78.89 438.97 C 78.48 440.32 78.08 441.66 77.68 443.02 C 77.22 441.66 76.76 440.30 76.29 438.95 C 76.27 440.51 75.94 442.12 76.34 443.65 C 77.42 444.87 78.47 446.13 79.17 447.62 C 77.95 447.40 76.73 446.81 75.47 446.97 C 73.28 448.38 72.80 451.23 72.93 453.66 C 72.16 454.63 71.36 455.58 70.70 456.64 C 71.00 458.68 71.67 460.64 72.15 462.65 C 68.87 464.06 64.55 466.32 64.88 470.50 C 66.35 474.57 64.44 478.68 62.68 482.31 C 63.34 483.06 64.00 483.82 64.66 484.58 C 63.71 484.67 62.76 484.76 61.81 484.86 C 60.51 486.52 59.04 488.10 58.09 490.00 C 57.99 491.40 58.45 492.79 58.43 494.20 C 56.89 496.95 54.44 499.05 52.42 501.44 C 53.23 501.88 54.05 502.32 54.87 502.78 C 53.44 504.47 51.64 506.11 51.30 508.43 C 50.56 511.06 52.39 513.35 53.46 515.59 C 52.52 516.02 51.58 516.47 50.63 516.92 C 51.92 519.03 51.79 521.37 50.88 523.60 C 49.72 523.49 48.57 523.39 47.41 523.29 C 48.06 524.77 48.71 526.26 49.33 527.75 C 45.63 533.76 44.54 541.22 45.80 548.11 C 46.00 550.63 44.99 553.05 44.51 555.50 C 45.70 556.35 46.90 557.20 48.10 558.06 C 48.20 558.69 48.42 559.96 48.53 560.59 C 43.86 559.24 39.41 557.21 35.14 554.90 C 27.57 551.08 21.00 545.02 17.65 537.11 C 11.43 523.14 14.53 507.31 18.16 493.13 C 19.25 487.74 20.50 482.34 22.17 477.12 C 26.44 463.35 31.20 449.72 36.54 436.33 C 40.08 428.43 42.45 420.07 46.21 412.27 C 50.12 402.36 54.68 392.73 59.18 383.09 C 61.12 379.02 62.71 374.79 64.77 370.78 C 68.21 363.58 71.65 356.38 75.23 349.25 C 76.80 345.86 78.54 342.56 80.20 339.21 C 81.42 336.74 82.57 334.25 83.74 331.75 C 84.92 329.87 85.90 327.87 86.86 325.86 C 90.23 319.54 93.38 313.10 96.86 306.84 C 99.50 302.07 102.03 297.22 104.48 292.35 C 107.15 287.35 110.28 282.60 112.70 277.47 C 114.71 274.49 116.24 271.22 118.15 268.17 C 121.34 262.93 124.04 257.42 127.25 252.21 C 130.43 246.47 133.96 240.92 137.27 235.26 C 138.55 232.63 140.12 230.16 141.73 227.73 C 151.55 210.75 162.45 194.43 172.70 177.71 C 173.45 176.77 174.10 175.77 174.75 174.77 C 178.13 169.52 181.68 164.38 185.15 159.19 C 192.57 147.40 201.16 136.38 208.90 124.81 Z" />
</g>
<g id="#6a8ee1fe">
<path fill="#6a8ee1" opacity="1.00" d=" M 410.75 137.46 C 412.62 136.21 414.45 134.88 416.21 133.45 C 417.34 135.08 418.56 136.66 420.03 138.01 C 424.17 142.81 427.48 148.31 431.25 153.42 C 432.20 154.96 433.28 156.43 434.18 158.01 C 434.30 159.13 434.39 160.26 434.48 161.39 C 433.17 161.69 431.87 161.99 430.58 162.29 C 430.72 162.55 430.99 163.07 431.12 163.32 C 429.92 165.61 429.06 168.06 428.41 170.56 C 426.95 171.38 425.50 172.19 424.06 173.02 C 423.50 174.94 423.24 177.21 421.43 178.43 C 419.66 180.18 417.01 181.38 416.32 183.96 C 415.56 186.76 415.51 189.69 415.14 192.56 C 414.74 192.32 413.94 191.86 413.54 191.62 C 411.89 195.07 410.27 198.53 409.05 202.16 C 408.79 203.52 407.64 204.25 406.60 204.98 C 406.44 205.67 406.30 206.37 406.15 207.07 C 405.05 207.82 403.96 208.58 402.87 209.33 C 404.67 209.25 406.47 209.19 408.28 209.17 C 407.54 211.43 405.16 211.37 403.22 211.67 C 403.16 212.49 403.12 213.31 403.08 214.14 C 403.59 214.38 404.62 214.86 405.14 215.10 C 402.74 217.29 401.68 220.40 400.80 223.44 C 401.50 224.03 402.19 224.65 402.86 225.30 C 403.24 227.42 401.18 229.53 402.36 231.59 C 403.25 233.77 404.16 235.95 404.97 238.17 C 397.41 227.09 390.10 215.84 382.32 204.90 C 381.31 201.92 380.00 199.04 378.40 196.33 C 379.53 196.06 380.67 195.80 381.81 195.54 C 382.06 193.55 382.31 191.56 382.54 189.57 C 381.57 189.85 380.60 190.13 379.64 190.41 C 379.62 189.05 379.61 187.68 379.62 186.32 C 380.26 186.64 380.90 186.96 381.55 187.29 C 382.76 185.35 384.04 183.46 385.40 181.63 C 386.46 181.72 387.51 181.81 388.57 181.91 C 387.55 180.56 386.59 179.18 385.67 177.77 C 386.62 177.67 387.57 177.56 388.52 177.47 C 389.11 175.32 389.33 173.09 389.35 170.87 C 390.05 170.54 390.76 170.23 391.48 169.91 C 390.96 168.79 390.44 167.68 389.93 166.57 C 391.10 166.62 392.28 166.67 393.46 166.72 C 393.29 166.36 392.95 165.64 392.78 165.28 C 395.38 162.49 397.40 158.91 396.74 154.99 C 398.53 153.80 401.72 153.91 402.22 151.39 C 402.94 149.06 403.26 146.54 404.75 144.53 C 405.64 144.77 406.54 144.97 407.45 145.13 C 409.95 143.53 412.08 141.37 414.73 139.98 C 414.50 139.63 414.06 138.93 413.84 138.58 C 414.04 138.08 414.26 137.58 414.48 137.08 C 413.23 137.20 411.98 137.33 410.75 137.46 Z" />
</g>
<g id="#6196e1ff">
<path fill="#6196e1" opacity="1.00" d=" M 434.18 158.01 C 443.75 172.00 453.20 186.10 461.92 200.63 C 461.15 203.68 461.15 206.84 462.57 209.71 C 460.77 209.49 458.97 209.28 457.18 209.08 C 456.40 212.16 456.27 215.35 456.50 218.51 C 455.57 218.80 454.65 219.09 453.73 219.38 C 453.83 220.63 455.00 222.30 453.64 223.21 C 452.59 223.55 451.51 223.74 450.44 223.96 C 449.51 228.87 450.31 234.56 446.81 238.67 C 446.39 238.38 445.54 237.81 445.11 237.52 C 443.09 241.72 443.17 246.63 440.71 250.64 C 441.29 250.94 442.43 251.53 443.01 251.83 C 441.11 252.46 439.16 252.93 437.20 253.29 C 438.21 255.37 439.18 257.46 440.14 259.56 C 438.87 259.52 437.61 259.48 436.35 259.45 C 436.40 263.89 434.44 268.29 435.67 272.72 C 436.97 277.62 435.36 282.59 435.68 287.55 C 426.00 270.75 415.29 254.57 404.97 238.17 C 404.16 235.95 403.25 233.77 402.36 231.59 C 401.18 229.53 403.24 227.42 402.86 225.30 C 402.19 224.65 401.50 224.03 400.80 223.44 C 401.68 220.40 402.74 217.29 405.14 215.10 C 404.62 214.86 403.59 214.38 403.08 214.14 C 403.12 213.31 403.16 212.49 403.22 211.67 C 405.16 211.37 407.54 211.43 408.28 209.17 C 406.47 209.19 404.67 209.25 402.87 209.33 C 403.96 208.58 405.05 207.82 406.15 207.07 C 406.30 206.37 406.44 205.67 406.60 204.98 C 407.64 204.25 408.79 203.52 409.05 202.16 C 410.27 198.53 411.89 195.07 413.54 191.62 C 413.94 191.86 414.74 192.32 415.14 192.56 C 415.51 189.69 415.56 186.76 416.32 183.96 C 417.01 181.38 419.66 180.18 421.43 178.43 C 423.24 177.21 423.50 174.94 424.06 173.02 C 425.50 172.19 426.95 171.38 428.41 170.56 C 429.06 168.06 429.92 165.61 431.12 163.32 C 430.99 163.07 430.72 162.55 430.58 162.29 C 431.87 161.99 433.17 161.69 434.48 161.39 C 434.39 160.26 434.30 159.13 434.18 158.01 Z" />
</g>
<g id="#55a1e2ff">
<path fill="#55a1e2" opacity="1.00" d=" M 461.92 200.63 C 469.44 211.81 476.10 223.55 482.82 235.23 C 486.37 240.75 489.43 246.58 492.73 252.26 C 495.41 256.13 497.06 260.59 499.56 264.57 C 500.96 267.29 502.97 269.71 503.89 272.67 C 504.49 274.97 505.59 277.10 506.76 279.17 C 505.29 280.78 503.44 279.79 501.78 279.13 C 501.32 280.75 500.86 282.35 500.39 283.97 C 499.17 283.09 497.95 282.22 496.74 281.34 C 496.17 283.20 495.29 284.94 494.68 286.78 C 495.16 288.26 495.96 289.60 496.68 290.97 C 496.09 291.47 495.51 291.98 494.93 292.49 C 494.32 292.20 493.71 291.92 493.10 291.64 C 492.53 295.05 491.45 298.46 488.42 300.47 C 488.57 302.36 488.74 304.25 488.92 306.15 C 488.52 306.33 487.72 306.69 487.32 306.86 C 487.35 308.01 487.39 309.15 487.43 310.31 C 487.04 310.59 486.24 311.16 485.85 311.45 C 486.30 312.84 486.76 314.23 487.22 315.63 C 486.53 315.24 485.84 314.84 485.16 314.45 C 485.27 315.99 485.39 317.53 485.49 319.07 C 484.48 318.53 483.49 318.00 482.50 317.47 C 482.34 319.62 481.91 321.74 481.83 323.90 C 482.50 330.58 481.60 337.38 479.73 343.80 C 479.73 345.94 480.28 348.11 479.42 350.18 C 479.97 350.44 480.54 350.70 481.11 350.97 C 481.22 352.72 481.52 354.46 481.50 356.22 C 481.01 358.29 479.94 360.15 479.15 362.11 C 480.03 362.49 480.91 362.88 481.80 363.27 C 482.21 366.98 482.02 370.72 481.63 374.43 C 481.05 373.28 480.43 372.16 479.81 371.05 C 466.31 342.61 451.82 314.59 435.68 287.55 C 435.36 282.59 436.97 277.62 435.67 272.72 C 434.44 268.29 436.40 263.89 436.35 259.45 C 437.61 259.48 438.87 259.52 440.14 259.56 C 439.18 257.46 438.21 255.37 437.20 253.29 C 439.16 252.93 441.11 252.46 443.01 251.83 C 442.43 251.53 441.29 250.94 440.71 250.64 C 443.17 246.63 443.09 241.72 445.11 237.52 C 445.54 237.81 446.39 238.38 446.81 238.67 C 450.31 234.56 449.51 228.87 450.44 223.96 C 451.51 223.74 452.59 223.55 453.64 223.21 C 455.00 222.30 453.83 220.63 453.73 219.38 C 454.65 219.09 455.57 218.80 456.50 218.51 C 456.27 215.35 456.40 212.16 457.18 209.08 C 458.97 209.28 460.77 209.49 462.57 209.71 C 461.15 206.84 461.15 203.68 461.92 200.63 Z" />
</g>
<g id="#51a4dfff">
<path fill="#51a4df" opacity="1.00" d=" M 309.92 242.99 C 313.77 241.95 317.95 240.64 321.86 242.17 C 329.59 243.96 336.11 248.85 341.79 254.20 C 348.69 261.25 353.99 269.63 358.81 278.19 C 359.63 279.72 360.44 281.26 361.27 282.79 C 362.12 284.58 362.92 286.40 363.79 288.20 C 366.51 293.65 368.69 299.38 370.75 305.11 C 372.09 308.30 372.77 311.73 373.94 314.99 C 374.21 316.05 374.49 317.12 374.78 318.18 C 378.39 329.48 380.51 341.21 382.15 352.94 C 383.37 369.44 384.09 386.79 377.03 402.21 C 376.97 402.24 376.85 402.29 376.79 402.32 C 375.50 402.85 374.29 403.55 373.11 404.29 C 370.34 398.69 368.84 392.58 366.53 386.80 C 365.43 384.22 365.66 381.39 365.42 378.67 C 365.21 376.48 363.23 375.14 361.88 373.64 C 361.97 373.41 362.15 372.97 362.25 372.74 C 358.46 369.23 357.65 363.89 355.62 359.36 C 354.30 356.55 354.36 353.44 354.64 350.43 C 351.84 349.11 350.48 346.66 350.80 343.55 C 353.62 337.43 354.39 330.34 352.21 323.90 C 350.14 315.90 343.89 309.50 336.22 306.63 C 336.60 306.25 337.34 305.48 337.72 305.10 C 337.12 302.97 336.48 300.73 337.55 298.63 C 335.94 296.67 333.47 294.51 335.35 291.86 C 334.20 291.00 332.60 290.48 332.04 289.05 C 330.26 284.59 328.18 279.98 328.71 275.04 C 325.59 273.80 324.84 270.29 323.52 267.56 C 322.46 264.90 320.69 261.98 322.23 259.15 C 321.21 258.43 319.94 257.87 319.43 256.65 C 317.32 252.47 316.44 247.83 315.55 243.28 C 313.96 243.17 312.37 243.04 310.78 243.01 L 309.92 242.99 Z" />
</g>
<g id="#589ddeff">
<path fill="#589dde" opacity="1.00" d=" M 310.78 243.01 C 312.37 243.04 313.96 243.17 315.55 243.28 C 316.44 247.83 317.32 252.47 319.43 256.65 C 319.94 257.87 321.21 258.43 322.23 259.15 C 320.69 261.98 322.46 264.90 323.52 267.56 C 324.84 270.29 325.59 273.80 328.71 275.04 C 328.18 279.98 330.26 284.59 332.04 289.05 C 332.60 290.48 334.20 291.00 335.35 291.86 C 333.47 294.51 335.94 296.67 337.55 298.63 C 336.48 300.73 337.12 302.97 337.72 305.10 C 337.34 305.48 336.60 306.25 336.22 306.63 C 329.54 304.31 322.30 304.42 315.40 305.64 C 312.46 289.51 312.77 272.81 316.69 256.88 C 311.16 260.09 308.55 266.11 306.58 271.89 C 306.33 271.47 305.84 270.64 305.59 270.22 C 305.28 270.92 304.65 272.30 304.34 273.00 C 302.13 268.95 300.17 264.74 298.78 260.35 C 298.81 257.52 299.99 254.78 300.29 251.95 C 302.13 247.73 306.67 244.86 310.78 243.01 Z" />
</g>
<g id="#41b3e2ff">
<path fill="#41b3e2" opacity="1.00" d=" M 374.66 248.84 C 375.71 248.07 376.74 247.27 377.75 246.45 C 379.57 246.35 381.40 246.35 383.23 246.52 C 388.77 249.13 393.99 252.40 398.79 256.23 C 402.54 259.11 405.93 262.42 409.29 265.74 C 412.57 269.24 415.43 273.09 418.18 277.02 C 419.16 278.70 420.16 280.38 421.29 281.99 C 421.77 283.04 422.29 284.08 422.79 285.12 C 423.22 285.86 423.59 286.62 423.90 287.42 C 425.59 293.28 428.37 298.81 429.51 304.83 C 430.82 313.77 432.33 322.89 430.52 331.88 C 429.99 341.20 426.40 349.91 422.96 358.46 C 421.70 361.08 420.33 364.58 417.04 365.05 C 414.43 365.69 412.22 363.92 410.26 362.50 C 410.24 360.02 409.67 357.40 410.63 355.04 C 417.86 340.92 419.27 324.41 416.87 308.88 C 416.59 306.99 415.89 305.22 415.15 303.48 C 413.84 300.44 413.44 297.09 411.90 294.15 C 409.83 289.26 406.99 284.72 403.80 280.49 C 396.99 271.45 387.74 264.67 378.21 258.75 C 376.98 257.95 375.80 257.08 374.63 256.20 C 373.50 253.81 373.57 251.23 374.66 248.84 Z" />
</g>
<g id="#6591dbff">
<path fill="#6591db" opacity="1.00" d=" M 291.74 265.77 C 294.82 261.33 296.47 255.75 300.29 251.95 C 299.99 254.78 298.81 257.52 298.78 260.35 C 300.17 264.74 302.13 268.95 304.34 273.00 C 304.65 272.30 305.28 270.92 305.59 270.22 C 305.84 270.64 306.33 271.47 306.58 271.89 C 301.56 292.48 306.70 313.63 310.97 333.86 C 315.08 352.84 323.66 370.84 336.34 385.60 C 340.06 390.36 344.57 394.41 349.39 398.03 C 347.68 398.89 345.66 399.52 344.54 401.18 C 345.71 405.25 347.05 409.33 348.82 413.19 C 352.00 417.24 357.64 416.92 362.27 417.13 C 355.29 419.45 348.25 416.26 342.10 413.15 C 332.93 408.38 323.59 403.80 313.71 400.69 C 311.43 395.33 309.35 389.90 307.64 384.34 C 295.93 355.75 285.56 326.58 274.06 297.92 C 274.00 295.13 275.41 292.52 276.05 289.84 C 276.37 288.71 277.06 287.74 277.77 286.83 C 282.94 280.17 287.57 273.10 291.74 265.77 Z" />
</g>
<g id="#4cace2ff">
<path fill="#4cace2" opacity="1.00" d=" M 503.89 272.67 L 503.80 271.86 C 504.85 273.61 505.80 275.44 506.78 277.24 C 511.70 286.03 516.42 294.92 521.27 303.74 C 522.85 306.82 524.42 309.91 526.16 312.90 C 526.82 314.25 527.51 315.60 528.28 316.91 C 529.28 318.85 530.16 320.85 531.27 322.73 C 534.18 328.53 537.20 334.28 539.83 340.22 C 540.60 341.74 541.37 343.27 542.19 344.78 C 543.61 347.93 545.17 351.03 546.79 354.09 C 550.86 363.04 555.21 371.87 559.29 380.81 C 560.76 384.55 562.55 388.17 564.34 391.77 C 564.86 393.16 565.44 394.53 566.13 395.85 C 567.08 398.29 568.58 400.61 568.84 403.27 C 568.33 404.77 567.86 406.30 567.43 407.83 C 568.13 408.83 568.83 409.85 569.55 410.86 C 568.39 411.17 567.24 411.50 566.09 411.82 C 566.59 412.67 567.10 413.53 567.61 414.40 C 565.44 413.12 563.33 411.62 560.81 411.13 C 559.86 415.09 555.78 416.30 552.71 418.21 C 552.95 418.89 553.20 419.57 553.46 420.26 C 551.93 419.69 550.41 419.13 548.89 418.57 C 547.23 421.32 545.82 424.25 545.11 427.41 C 545.77 427.70 547.07 428.29 547.73 428.59 C 546.62 429.24 545.53 429.90 544.44 430.56 C 542.53 429.08 540.63 427.60 538.75 426.10 C 538.59 426.85 538.45 427.61 538.31 428.37 C 537.90 428.63 537.07 429.16 536.66 429.42 C 537.10 430.22 537.54 431.02 537.99 431.83 C 536.11 430.87 534.24 429.93 532.37 428.99 C 532.43 429.76 532.52 430.54 532.60 431.31 C 535.22 432.20 535.72 434.49 535.24 436.97 C 536.11 437.74 536.98 438.51 537.86 439.31 C 535.46 438.74 533.28 437.61 531.25 436.24 C 528.84 438.90 526.18 441.41 522.75 442.68 C 521.70 446.24 518.34 447.91 515.83 450.26 C 515.02 453.92 515.31 457.77 514.24 461.42 C 513.21 464.76 515.05 468.00 516.55 470.88 C 515.57 472.34 514.59 473.80 513.60 475.26 C 514.33 476.10 515.06 476.95 515.81 477.81 C 515.27 478.56 514.75 479.33 514.23 480.09 C 515.06 480.90 515.90 481.72 516.74 482.54 C 515.77 482.62 514.82 482.72 513.86 482.81 C 512.58 485.14 511.31 487.46 510.02 489.78 C 509.02 489.30 508.02 488.84 507.04 488.38 C 507.39 490.92 507.83 493.46 508.40 495.97 C 506.42 497.16 504.43 498.32 502.42 499.46 C 502.63 500.47 502.83 501.48 503.05 502.51 C 504.39 502.04 505.74 501.58 507.11 501.14 C 506.44 503.56 504.82 505.47 503.07 507.19 C 503.85 508.35 504.64 509.51 505.44 510.68 C 504.45 510.91 503.47 511.15 502.50 511.39 C 502.41 512.35 502.33 513.32 502.25 514.29 C 503.73 514.95 505.22 515.63 506.71 516.31 C 505.94 518.21 505.11 520.09 504.24 521.96 C 502.25 522.20 500.75 523.40 499.82 525.14 C 501.25 526.57 502.70 527.98 504.15 529.40 C 503.61 531.82 504.14 534.24 504.54 536.64 C 503.63 536.31 502.73 535.97 501.84 535.62 C 501.26 536.94 500.69 538.27 500.13 539.61 C 498.90 539.58 497.68 539.56 496.47 539.54 C 495.88 541.32 495.30 543.11 494.72 544.90 C 495.38 545.50 496.05 546.11 496.73 546.73 C 497.57 546.28 498.42 545.83 499.28 545.39 C 499.36 547.35 498.97 549.27 498.38 551.14 C 499.19 551.74 499.97 552.38 500.80 552.98 C 498.81 552.72 496.83 552.49 494.84 552.34 C 497.22 555.40 503.57 556.65 502.01 561.57 C 500.77 560.63 499.55 559.71 498.31 558.79 C 497.99 559.68 497.68 560.57 497.37 561.47 C 498.28 562.60 499.20 563.74 500.11 564.88 C 498.81 564.42 497.51 563.96 496.22 563.51 C 494.54 567.07 494.99 570.96 496.16 574.58 C 501.22 574.38 506.23 575.15 511.07 576.61 C 502.13 578.42 493.09 579.71 484.10 581.17 C 469.61 582.02 455.44 585.58 440.96 586.61 C 437.04 586.92 433.12 587.13 429.21 587.54 C 428.94 587.23 428.40 586.60 428.13 586.29 C 432.46 585.95 436.79 585.54 441.02 584.55 C 439.53 584.23 438.04 583.92 436.56 583.62 C 436.37 578.63 436.24 573.62 436.71 568.64 C 436.93 567.12 436.39 565.64 436.12 564.18 C 436.89 563.57 437.67 562.96 438.46 562.36 C 437.42 560.06 436.59 557.67 436.02 555.22 C 436.85 556.08 437.69 556.97 438.53 557.85 C 438.55 556.97 438.56 556.09 438.59 555.22 C 439.80 554.31 441.02 553.41 442.25 552.51 C 440.32 552.87 438.40 553.23 436.47 553.59 C 437.92 549.56 436.77 545.39 435.89 541.38 C 436.61 541.77 437.33 542.15 438.05 542.55 C 438.27 540.25 438.44 537.95 438.54 535.64 C 440.08 534.79 442.60 534.52 442.45 532.25 C 443.44 528.77 440.03 525.31 442.18 522.06 C 442.84 520.70 443.63 519.42 444.39 518.13 C 443.66 516.54 442.48 515.07 442.33 513.31 C 442.95 512.04 444.21 511.27 445.19 510.31 C 445.28 508.81 445.35 507.31 445.43 505.82 C 446.21 506.70 447.00 507.59 447.79 508.48 C 448.37 505.55 449.69 502.80 450.16 499.86 C 449.11 497.48 445.86 497.41 443.74 496.52 C 453.28 494.98 462.69 492.76 471.98 490.11 C 483.27 486.66 494.91 482.89 504.09 475.16 C 509.13 471.10 511.72 464.42 511.27 458.03 C 510.56 446.96 506.79 436.44 503.39 425.98 C 497.02 408.44 489.39 391.39 481.63 374.43 C 482.02 370.72 482.21 366.98 481.80 363.27 C 480.91 362.88 480.03 362.49 479.15 362.11 C 479.94 360.15 481.01 358.29 481.50 356.22 C 481.52 354.46 481.22 352.72 481.11 350.97 C 480.54 350.70 479.97 350.44 479.42 350.18 C 480.28 348.11 479.73 345.94 479.73 343.80 C 481.60 337.38 482.50 330.58 481.83 323.90 C 481.91 321.74 482.34 319.62 482.50 317.47 C 483.49 318.00 484.48 318.53 485.49 319.07 C 485.39 317.53 485.27 315.99 485.16 314.45 C 485.84 314.84 486.53 315.24 487.22 315.63 C 486.76 314.23 486.30 312.84 485.85 311.45 C 486.24 311.16 487.04 310.59 487.43 310.31 C 487.39 309.15 487.35 308.01 487.32 306.86 C 487.72 306.69 488.52 306.33 488.92 306.15 C 488.74 304.25 488.57 302.36 488.42 300.47 C 491.45 298.46 492.53 295.05 493.10 291.64 C 493.71 291.92 494.32 292.20 494.93 292.49 C 495.51 291.98 496.09 291.47 496.68 290.97 C 495.96 289.60 495.16 288.26 494.68 286.78 C 495.29 284.94 496.17 283.20 496.74 281.34 C 497.95 282.22 499.17 283.09 500.39 283.97 C 500.86 282.35 501.32 280.75 501.78 279.13 C 503.44 279.79 505.29 280.78 506.76 279.17 C 505.59 277.10 504.49 274.97 503.89 272.67 Z" />
</g>
<g id="#46aee1ff">
<path fill="#46aee1" opacity="1.00" d=" M 374.40 275.65 C 375.91 273.98 378.24 274.42 380.24 274.47 C 389.57 282.17 397.64 291.60 402.31 302.85 C 407.30 315.68 407.32 330.08 403.24 343.13 C 401.49 346.62 396.95 347.05 393.74 345.45 C 392.26 343.58 390.80 341.51 390.79 339.02 C 393.76 327.45 393.52 314.72 388.32 303.80 C 386.19 299.42 383.43 295.41 380.26 291.72 C 377.69 289.59 375.06 287.52 372.69 285.16 C 371.46 282.02 371.18 277.70 374.40 275.65 Z" />
</g>
<g id="#2d4969a1">
<path fill="#2d4969" opacity="0.63" d=" M 423.90 287.42 C 427.54 292.56 428.76 298.91 430.21 304.91 C 434.62 322.09 431.63 340.44 424.64 356.50 C 423.29 359.79 422.28 363.86 418.75 365.49 C 415.32 367.64 410.71 365.11 409.50 361.54 C 408.07 358.86 409.51 355.94 410.52 353.39 C 416.65 340.95 417.75 326.68 416.60 313.04 C 416.18 309.83 414.92 306.75 415.15 303.48 C 415.89 305.22 416.59 306.99 416.87 308.88 C 419.27 324.41 417.86 340.92 410.63 355.04 C 409.67 357.40 410.24 360.02 410.26 362.50 C 412.22 363.92 414.43 365.69 417.04 365.05 C 420.33 364.58 421.70 361.08 422.96 358.46 C 426.40 349.91 429.99 341.20 430.52 331.88 C 432.33 322.89 430.82 313.77 429.51 304.83 C 428.37 298.81 425.59 293.28 423.90 287.42 Z" />
</g>
<g id="#6f86d9fe">
<path fill="#6f86d9" opacity="1.00" d=" M 273.30 292.24 C 273.79 291.02 274.90 290.36 276.05 289.84 C 275.41 292.52 274.00 295.13 274.06 297.92 C 285.56 326.58 295.93 355.75 307.64 384.34 C 309.35 389.90 311.43 395.33 313.71 400.69 C 303.22 397.09 292.27 395.04 281.22 394.32 C 278.10 385.13 274.25 376.22 270.78 367.16 C 265.11 350.79 258.35 334.83 252.26 318.61 C 250.89 316.13 252.52 313.69 253.40 311.40 L 253.66 310.78 C 257.69 308.64 260.70 305.11 264.11 302.16 C 267.41 299.09 270.33 295.63 273.30 292.24 Z" />
</g>
<g id="#7d79d6fe">
<path fill="#7d79d6" opacity="1.00" d=" M 241.34 319.33 C 245.57 317.01 249.31 313.94 253.40 311.40 C 252.52 313.69 250.89 316.13 252.26 318.61 C 258.35 334.83 265.11 350.79 270.78 367.16 C 274.25 376.22 278.10 385.13 281.22 394.32 C 267.82 393.18 254.37 394.97 241.38 398.19 C 239.62 398.04 237.87 397.85 236.12 397.68 C 230.76 389.28 229.06 379.20 224.79 370.25 C 220.31 357.52 214.77 345.16 210.59 332.34 C 221.15 328.84 231.73 325.07 241.34 319.33 Z" />
</g>
<g id="#8d6ad4ff">
<path fill="#8d6ad4" opacity="1.00" d=" M 202.89 334.85 C 205.44 333.97 208.01 333.15 210.59 332.34 C 214.77 345.16 220.31 357.52 224.79 370.25 C 229.06 379.20 230.76 389.28 236.12 397.68 C 237.87 397.85 239.62 398.04 241.38 398.19 C 239.85 398.72 238.35 399.34 236.85 399.93 C 234.57 400.78 232.18 401.24 229.83 401.83 C 227.37 402.96 224.60 403.09 222.11 404.14 C 213.22 406.27 204.51 409.08 195.62 411.16 C 192.39 410.84 189.12 410.83 185.93 410.24 C 184.02 409.24 182.94 407.22 181.65 405.58 C 182.51 405.89 183.36 406.21 184.22 406.54 C 184.04 404.37 184.42 401.90 182.94 400.09 C 181.78 398.65 180.21 397.65 178.77 396.53 C 178.84 392.05 179.58 387.04 176.72 383.19 C 175.44 381.56 175.48 379.46 175.39 377.50 C 174.46 376.71 173.53 375.93 172.60 375.16 C 172.61 373.62 172.62 372.09 172.63 370.55 C 171.71 370.20 170.78 369.84 169.86 369.49 C 170.15 363.56 165.96 358.80 165.20 353.11 C 166.11 351.30 167.58 349.87 168.87 348.33 C 168.50 348.21 167.77 347.99 167.40 347.87 L 167.12 347.78 C 176.24 342.27 186.98 340.58 196.81 336.76 C 198.86 336.20 200.92 335.64 202.89 334.85 Z" />
</g>
<g id="#599cddff">
<path fill="#599cdd" opacity="1.00" d=" M 332.03 361.93 C 339.15 356.85 346.76 351.58 350.80 343.55 C 350.48 346.66 351.84 349.11 354.64 350.43 C 354.36 353.44 354.30 356.55 355.62 359.36 C 357.65 363.89 358.46 369.23 362.25 372.74 C 362.15 372.97 361.97 373.41 361.88 373.64 C 363.23 375.14 365.21 376.48 365.42 378.67 C 365.66 381.39 365.43 384.22 366.53 386.80 C 368.84 392.58 370.34 398.69 373.11 404.29 C 374.29 403.55 375.50 402.85 376.79 402.32 C 375.51 405.22 373.96 408.05 371.93 410.49 C 369.06 413.15 366.09 415.95 362.27 417.13 C 357.64 416.92 352.00 417.24 348.82 413.19 C 347.05 409.33 345.71 405.25 344.54 401.18 C 345.66 399.52 347.68 398.89 349.39 398.03 C 352.81 400.23 356.62 402.07 360.81 401.82 C 348.57 390.68 339.29 376.70 332.03 361.93 Z" />
</g>
<g id="#9660d1fe">
<path fill="#9660d1" opacity="1.00" d=" M 167.40 347.87 C 167.77 347.99 168.50 348.21 168.87 348.33 C 167.58 349.87 166.11 351.30 165.20 353.11 C 165.96 358.80 170.15 363.56 169.86 369.49 C 170.78 369.84 171.71 370.20 172.63 370.55 C 172.62 372.09 172.61 373.62 172.60 375.16 C 173.53 375.93 174.46 376.71 175.39 377.50 C 175.48 379.46 175.44 381.56 176.72 383.19 C 179.58 387.04 178.84 392.05 178.77 396.53 C 180.21 397.65 181.78 398.65 182.94 400.09 C 184.42 401.90 184.04 404.37 184.22 406.54 C 183.36 406.21 182.51 405.89 181.65 405.58 C 182.94 407.22 184.02 409.24 185.93 410.24 C 189.12 410.83 192.39 410.84 195.62 411.16 C 194.94 411.32 193.57 411.63 192.89 411.79 C 188.91 413.16 184.16 412.97 180.11 411.88 C 175.78 411.13 171.79 409.21 168.12 406.85 C 162.93 403.00 158.64 397.86 156.22 391.83 C 155.02 389.38 154.77 386.61 153.82 384.08 C 153.16 379.05 153.09 373.93 153.85 368.91 C 155.56 360.49 160.41 352.87 167.40 347.87 Z" />
</g>
<g id="#413c6bab">
<path fill="#413c6b" opacity="0.67" d=" M 241.38 398.19 C 254.37 394.97 267.82 393.18 281.22 394.32 C 292.27 395.04 303.22 397.09 313.71 400.69 C 323.59 403.80 332.93 408.38 342.10 413.15 C 348.25 416.26 355.29 419.45 362.27 417.13 C 366.09 415.95 369.06 413.15 371.93 410.49 C 371.30 413.11 368.64 414.27 366.74 415.85 C 362.01 419.35 355.55 419.86 350.16 417.64 C 339.61 413.47 329.99 407.16 319.18 403.56 C 307.87 399.14 295.91 396.54 283.86 395.19 C 272.39 394.60 260.72 394.37 249.53 397.37 C 245.27 398.06 241.17 399.66 236.85 399.93 C 238.35 399.34 239.85 398.72 241.38 398.19 Z" />
</g>
<g id="#49b3e2ff">
<path fill="#49b3e2" opacity="1.00" d=" M 568.84 403.27 L 569.09 402.48 C 573.97 413.59 578.66 424.75 582.77 436.16 C 588.10 450.36 593.63 464.53 597.83 479.13 C 600.31 487.69 602.38 496.50 603.62 505.36 C 605.04 512.88 605.86 520.63 604.13 528.17 C 603.33 530.12 602.87 532.18 602.40 534.23 C 599.58 540.36 595.78 546.26 590.14 550.17 C 585.12 553.73 579.73 556.97 573.84 558.83 C 564.16 562.98 554.05 566.27 543.82 568.75 C 541.47 570.08 538.60 569.93 536.18 571.12 C 532.05 571.93 528.02 573.17 523.86 573.78 C 519.74 575.05 515.31 575.75 511.07 576.61 C 506.23 575.15 501.22 574.38 496.16 574.58 C 494.99 570.96 494.54 567.07 496.22 563.51 C 497.51 563.96 498.81 564.42 500.11 564.88 C 499.20 563.74 498.28 562.60 497.37 561.47 C 497.68 560.57 497.99 559.68 498.31 558.79 C 499.55 559.71 500.77 560.63 502.01 561.57 C 503.57 556.65 497.22 555.40 494.84 552.34 C 496.83 552.49 498.81 552.72 500.80 552.98 C 499.97 552.38 499.19 551.74 498.38 551.14 C 498.97 549.27 499.36 547.35 499.28 545.39 C 498.42 545.83 497.57 546.28 496.73 546.73 C 496.05 546.11 495.38 545.50 494.72 544.90 C 495.30 543.11 495.88 541.32 496.47 539.54 C 497.68 539.56 498.90 539.58 500.13 539.61 C 500.69 538.27 501.26 536.94 501.84 535.62 C 502.73 535.97 503.63 536.31 504.54 536.64 C 504.14 534.24 503.61 531.82 504.15 529.40 C 502.70 527.98 501.25 526.57 499.82 525.14 C 500.75 523.40 502.25 522.20 504.24 521.96 C 505.11 520.09 505.94 518.21 506.71 516.31 C 505.22 515.63 503.73 514.95 502.25 514.29 C 502.33 513.32 502.41 512.35 502.50 511.39 C 503.47 511.15 504.45 510.91 505.44 510.68 C 504.64 509.51 503.85 508.35 503.07 507.19 C 504.82 505.47 506.44 503.56 507.11 501.14 C 505.74 501.58 504.39 502.04 503.05 502.51 C 502.83 501.48 502.63 500.47 502.42 499.46 C 504.43 498.32 506.42 497.16 508.40 495.97 C 507.83 493.46 507.39 490.92 507.04 488.38 C 508.02 488.84 509.02 489.30 510.02 489.78 C 511.31 487.46 512.58 485.14 513.86 482.81 C 514.82 482.72 515.77 482.62 516.74 482.54 C 515.90 481.72 515.06 480.90 514.23 480.09 C 514.75 479.33 515.27 478.56 515.81 477.81 C 515.06 476.95 514.33 476.10 513.60 475.26 C 514.59 473.80 515.57 472.34 516.55 470.88 C 515.05 468.00 513.21 464.76 514.24 461.42 C 515.31 457.77 515.02 453.92 515.83 450.26 C 518.34 447.91 521.70 446.24 522.75 442.68 C 526.18 441.41 528.84 438.90 531.25 436.24 C 533.28 437.61 535.46 438.74 537.86 439.31 C 536.98 438.51 536.11 437.74 535.24 436.97 C 535.72 434.49 535.22 432.20 532.60 431.31 C 532.52 430.54 532.43 429.76 532.37 428.99 C 534.24 429.93 536.11 430.87 537.99 431.83 C 537.54 431.02 537.10 430.22 536.66 429.42 C 537.07 429.16 537.90 428.63 538.31 428.37 C 538.45 427.61 538.59 426.85 538.75 426.10 C 540.63 427.60 542.53 429.08 544.44 430.56 C 545.53 429.90 546.62 429.24 547.73 428.59 C 547.07 428.29 545.77 427.70 545.11 427.41 C 545.82 424.25 547.23 421.32 548.89 418.57 C 550.41 419.13 551.93 419.69 553.46 420.26 C 553.20 419.57 552.95 418.89 552.71 418.21 C 555.78 416.30 559.86 415.09 560.81 411.13 C 563.33 411.62 565.44 413.12 567.61 414.40 C 567.10 413.53 566.59 412.67 566.09 411.82 C 567.24 411.50 568.39 411.17 569.55 410.86 C 568.83 409.85 568.13 408.83 567.43 407.83 C 567.86 406.30 568.33 404.77 568.84 403.27 Z" />
</g>
<g id="#876fd4fe">
<path fill="#876fd4" opacity="1.00" d=" M 233.10 408.14 C 236.75 407.30 240.25 405.69 244.02 405.44 C 246.52 407.83 247.37 411.41 249.29 414.25 C 252.13 418.11 248.90 422.80 245.52 424.99 C 246.36 427.62 248.04 429.87 249.35 432.29 C 254.51 440.00 259.03 448.12 264.21 455.82 C 267.39 460.70 270.01 465.91 273.24 470.75 C 274.23 472.74 275.90 474.60 275.76 476.95 C 275.85 480.59 272.84 483.26 270.11 485.20 C 265.23 487.70 260.04 489.54 254.75 490.94 C 249.66 481.46 247.28 470.87 242.87 461.09 C 240.56 454.53 237.43 448.29 235.34 441.64 C 232.20 432.56 228.31 423.76 225.28 414.63 C 224.72 413.24 224.97 411.75 225.11 410.32 C 227.79 409.66 230.41 408.77 233.10 408.14 Z" />
</g>
<g id="#8d69d3fe">
<path fill="#8d69d3" opacity="1.00" d=" M 200.09 417.53 C 208.25 414.51 216.81 412.89 225.11 410.32 C 224.97 411.75 224.72 413.24 225.28 414.63 C 228.31 423.76 232.20 432.56 235.34 441.64 C 237.43 448.29 240.56 454.53 242.87 461.09 C 247.28 470.87 249.66 481.46 254.75 490.94 L 254.87 491.20 C 248.80 493.21 241.37 493.34 236.74 488.26 C 233.96 485.19 232.07 481.48 230.23 477.81 C 228.48 475.08 227.27 472.07 225.77 469.21 C 218.49 455.45 211.09 441.75 204.22 427.78 C 203.45 426.21 202.67 424.66 201.81 423.15 C 200.89 421.39 200.12 419.54 200.09 417.53 Z" />
</g>
<g id="#9d6dddfe">
<path fill="#9d6ddd" opacity="1.00" d=" M 105.04 469.69 C 106.92 469.62 108.81 469.54 110.69 469.48 C 119.18 481.25 133.88 485.35 146.93 489.84 C 148.99 490.49 151.07 491.06 153.15 491.67 C 153.33 493.45 151.88 494.53 151.04 495.90 C 151.53 496.22 152.51 496.86 153.00 497.17 C 152.10 498.38 151.05 499.47 149.94 500.49 C 150.64 503.54 150.76 506.68 150.54 509.81 C 149.75 509.42 148.96 509.05 148.18 508.68 C 147.66 509.21 147.14 509.76 146.62 510.31 C 146.82 512.02 148.42 514.18 146.83 515.58 C 144.44 517.64 144.89 521.20 142.63 523.37 C 143.68 524.33 145.60 525.03 144.89 526.80 C 142.84 529.10 139.63 530.70 138.94 533.96 C 137.80 539.68 138.27 545.56 138.43 551.35 C 138.53 554.02 136.55 555.93 134.66 557.51 C 136.67 558.47 137.94 560.07 137.57 562.35 C 136.35 562.88 135.13 563.42 133.91 563.97 C 134.63 565.13 135.34 566.29 136.06 567.46 C 136.30 566.34 136.53 565.22 136.78 564.10 C 137.21 564.10 138.08 564.09 138.51 564.09 C 137.33 568.77 137.32 573.66 138.36 578.38 C 140.46 579.21 142.42 580.33 144.23 581.67 C 136.06 581.31 128.17 578.88 120.05 578.07 C 114.80 577.60 109.70 576.20 104.48 575.53 C 97.04 574.73 89.92 572.19 82.52 571.22 C 82.47 570.99 82.37 570.53 82.32 570.29 C 82.94 570.16 84.18 569.88 84.80 569.74 C 84.64 566.98 84.52 564.23 84.45 561.47 C 83.28 561.03 82.11 560.61 80.94 560.19 C 81.72 559.67 82.50 559.16 83.28 558.66 C 82.35 557.05 81.41 555.46 80.47 553.87 C 81.65 552.74 83.32 551.82 83.57 550.06 C 85.17 543.57 84.12 536.77 85.71 530.28 C 86.81 526.46 84.88 522.61 85.52 518.73 C 88.02 517.31 91.05 516.10 92.31 513.32 C 92.45 512.22 91.84 511.17 91.62 510.12 C 93.50 508.82 95.31 507.40 96.63 505.53 C 95.82 505.05 95.01 504.58 94.20 504.11 C 95.72 503.41 97.24 502.73 98.78 502.09 C 98.33 500.50 97.88 498.92 97.44 497.34 C 98.99 496.29 100.48 495.12 101.56 493.58 C 100.67 493.87 99.77 494.18 98.88 494.50 C 98.62 494.08 98.09 493.23 97.82 492.80 C 100.13 491.32 102.83 490.07 103.92 487.36 C 103.02 487.35 102.12 487.36 101.21 487.37 C 101.32 485.80 101.44 484.24 101.58 482.68 C 102.82 482.31 104.71 482.59 104.91 480.86 C 105.78 477.20 105.01 473.40 105.04 469.69 Z" />
</g>
<g id="#8c74ddfe">
<path fill="#8c74dd" opacity="1.00" d=" M 151.04 495.90 C 151.88 494.53 153.33 493.45 153.15 491.67 C 162.25 494.53 171.70 495.93 180.97 498.13 C 186.34 500.41 192.27 500.20 197.91 501.32 C 202.70 502.24 207.50 503.09 212.35 503.62 C 211.86 507.24 208.58 508.55 205.55 509.52 C 205.49 510.23 205.44 510.95 205.39 511.68 C 206.26 511.64 207.14 511.61 208.02 511.59 C 206.59 513.19 205.16 514.81 203.75 516.44 C 204.53 517.40 205.32 518.37 206.10 519.35 C 204.73 519.32 203.35 519.30 201.98 519.29 C 203.15 519.93 204.32 520.57 205.49 521.22 C 203.55 522.94 201.78 524.83 200.07 526.78 C 202.18 526.65 204.29 526.52 206.41 526.60 C 204.09 528.26 201.17 528.50 198.46 529.07 C 199.22 530.41 200.39 531.64 200.65 533.21 C 200.15 535.85 197.58 538.02 198.42 540.89 C 199.07 543.66 198.23 546.45 198.52 549.24 C 198.83 552.42 197.52 555.45 197.37 558.60 C 197.58 562.17 199.02 565.58 199.03 569.18 C 198.65 570.79 197.55 572.22 197.45 573.90 C 197.76 576.26 198.64 578.49 199.36 580.75 C 198.85 580.90 197.83 581.21 197.32 581.36 C 198.06 581.81 198.79 582.27 199.54 582.74 C 199.63 583.07 199.82 583.73 199.92 584.05 C 199.45 584.24 198.52 584.62 198.05 584.80 C 198.10 585.16 198.20 585.87 198.25 586.23 C 200.02 586.99 201.78 587.79 203.55 588.55 C 191.40 587.08 179.11 586.97 167.04 584.79 C 159.41 583.93 151.84 582.69 144.23 581.67 C 142.42 580.33 140.46 579.21 138.36 578.38 C 137.32 573.66 137.33 568.77 138.51 564.09 C 138.08 564.09 137.21 564.10 136.78 564.10 C 136.53 565.22 136.30 566.34 136.06 567.46 C 135.34 566.29 134.63 565.13 133.91 563.97 C 135.13 563.42 136.35 562.88 137.57 562.35 C 137.94 560.07 136.67 558.47 134.66 557.51 C 136.55 555.93 138.53 554.02 138.43 551.35 C 138.27 545.56 137.80 539.68 138.94 533.96 C 139.63 530.70 142.84 529.10 144.89 526.80 C 145.60 525.03 143.68 524.33 142.63 523.37 C 144.89 521.20 144.44 517.64 146.83 515.58 C 148.42 514.18 146.82 512.02 146.62 510.31 C 147.14 509.76 147.66 509.21 148.18 508.68 C 148.96 509.05 149.75 509.42 150.54 509.81 C 150.76 506.68 150.64 503.54 149.94 500.49 C 151.05 499.47 152.10 498.38 153.00 497.17 C 152.51 496.86 151.53 496.22 151.04 495.90 Z" />
</g>
<g id="#549ee1fe">
<path fill="#549ee1" opacity="1.00" d=" M 429.96 499.12 C 434.50 498.00 439.21 497.71 443.74 496.52 C 445.86 497.41 449.11 497.48 450.16 499.86 C 449.69 502.80 448.37 505.55 447.79 508.48 C 447.00 507.59 446.21 506.70 445.43 505.82 C 445.35 507.31 445.28 508.81 445.19 510.31 C 444.21 511.27 442.95 512.04 442.33 513.31 C 442.48 515.07 443.66 516.54 444.39 518.13 C 443.63 519.42 442.84 520.70 442.18 522.06 C 440.03 525.31 443.44 528.77 442.45 532.25 C 442.60 534.52 440.08 534.79 438.54 535.64 C 438.44 537.95 438.27 540.25 438.05 542.55 C 437.33 542.15 436.61 541.77 435.89 541.38 C 436.77 545.39 437.92 549.56 436.47 553.59 C 438.40 553.23 440.32 552.87 442.25 552.51 C 441.02 553.41 439.80 554.31 438.59 555.22 C 438.56 556.09 438.55 556.97 438.53 557.85 C 437.69 556.97 436.85 556.08 436.02 555.22 C 436.59 557.67 437.42 560.06 438.46 562.36 C 437.67 562.96 436.89 563.57 436.12 564.18 C 436.39 565.64 436.93 567.12 436.71 568.64 C 436.24 573.62 436.37 578.63 436.56 583.62 C 438.04 583.92 439.53 584.23 441.02 584.55 C 436.79 585.54 432.46 585.95 428.13 586.29 C 428.40 586.60 428.94 587.23 429.21 587.54 C 416.53 588.75 403.84 589.92 391.13 590.81 C 391.25 590.15 391.48 588.83 391.59 588.17 C 389.86 588.23 387.82 587.96 386.78 589.71 C 385.32 589.07 383.71 588.62 382.52 587.53 C 380.91 585.73 382.01 583.36 381.98 581.26 C 381.89 579.51 381.75 577.75 382.19 576.03 C 381.60 575.40 381.02 574.79 380.44 574.18 C 381.27 573.48 382.11 572.79 382.95 572.10 C 382.37 571.75 381.80 571.40 381.24 571.06 C 381.81 568.91 382.91 566.71 382.37 564.44 C 381.95 562.15 380.88 559.99 380.72 557.65 C 380.96 555.94 382.37 554.70 383.26 553.29 C 382.67 552.75 382.08 552.21 381.50 551.67 C 383.10 549.18 384.03 546.29 382.83 543.43 C 383.24 542.58 383.65 541.74 384.07 540.91 C 383.46 538.45 384.32 536.09 385.51 533.96 C 383.97 534.22 382.42 534.47 380.88 534.69 C 382.49 533.06 384.68 532.44 386.90 532.17 C 385.97 528.44 384.76 524.78 384.11 520.99 C 385.01 520.50 385.92 520.03 386.83 519.56 C 385.93 519.13 385.04 518.71 384.15 518.29 C 385.26 518.16 386.37 518.04 387.49 517.93 C 387.29 517.42 387.10 516.93 386.92 516.44 C 388.07 515.02 389.17 513.55 390.24 512.06 C 389.25 511.09 388.26 510.13 387.27 509.18 C 390.60 510.05 393.74 508.76 396.45 506.88 C 393.64 505.95 390.79 505.13 387.86 504.70 C 401.95 503.31 415.94 501.05 429.96 499.12 Z" />
</g>
<g id="#444f83b2">
<path fill="#444f83" opacity="0.70" d=" M 180.97 498.13 C 186.74 498.18 192.23 500.20 197.93 500.88 C 215.26 503.08 232.57 505.65 250.04 506.51 C 268.29 508.32 286.66 508.07 304.98 508.67 C 322.07 508.48 339.16 507.96 356.24 507.54 C 355.79 507.63 354.90 507.83 354.45 507.93 C 342.35 509.25 330.15 509.11 318.00 509.66 C 309.66 510.05 301.32 509.84 292.99 509.52 C 278.70 509.00 264.41 508.54 250.16 507.35 C 241.99 506.95 233.91 505.41 225.72 505.16 C 221.22 505.08 216.80 504.24 212.35 503.62 C 207.50 503.09 202.70 502.24 197.91 501.32 C 192.27 500.20 186.34 500.41 180.97 498.13 Z" />
</g>
<g id="#7c7cddfe">
<path fill="#7c7cdd" opacity="1.00" d=" M 212.35 503.62 C 216.80 504.24 221.22 505.08 225.72 505.16 C 233.91 505.41 241.99 506.95 250.16 507.35 C 252.55 510.96 249.51 514.61 247.66 517.64 C 248.29 517.94 248.92 518.25 249.55 518.57 C 248.82 519.12 248.09 519.67 247.36 520.22 C 248.25 520.87 249.16 521.50 250.06 522.16 C 250.11 524.52 249.97 526.89 249.60 529.24 C 248.63 529.55 247.67 529.88 246.71 530.21 C 247.23 531.38 247.82 532.52 248.09 533.79 C 247.01 534.61 245.86 535.32 244.72 536.06 C 243.78 542.11 242.89 548.67 245.27 554.50 C 244.68 555.14 244.10 555.79 243.52 556.44 C 243.68 560.62 243.72 564.82 244.23 568.99 C 244.84 572.65 242.67 576.17 243.55 579.83 C 244.21 582.94 244.86 586.11 244.21 589.30 C 248.16 589.47 252.10 589.84 256.00 590.52 C 255.40 590.85 254.19 591.51 253.59 591.83 C 236.85 591.80 220.21 589.86 203.55 588.55 C 201.78 587.79 200.02 586.99 198.25 586.23 C 198.20 585.87 198.10 585.16 198.05 584.80 C 198.52 584.62 199.45 584.24 199.92 584.05 C 199.82 583.73 199.63 583.07 199.54 582.74 C 198.79 582.27 198.06 581.81 197.32 581.36 C 197.83 581.21 198.85 580.90 199.36 580.75 C 198.64 578.49 197.76 576.26 197.45 573.90 C 197.55 572.22 198.65 570.79 199.03 569.18 C 199.02 565.58 197.58 562.17 197.37 558.60 C 197.52 555.45 198.83 552.42 198.52 549.24 C 198.23 546.45 199.07 543.66 198.42 540.89 C 197.58 538.02 200.15 535.85 200.65 533.21 C 200.39 531.64 199.22 530.41 198.46 529.07 C 201.17 528.50 204.09 528.26 206.41 526.60 C 204.29 526.52 202.18 526.65 200.07 526.78 C 201.78 524.83 203.55 522.94 205.49 521.22 C 204.32 520.57 203.15 519.93 201.98 519.29 C 203.35 519.30 204.73 519.32 206.10 519.35 C 205.32 518.37 204.53 517.40 203.75 516.44 C 205.16 514.81 206.59 513.19 208.02 511.59 C 207.14 511.61 206.26 511.64 205.39 511.68 C 205.44 510.95 205.49 510.23 205.55 509.52 C 208.58 508.55 211.86 507.24 212.35 503.62 Z" />
</g>
<g id="#5c93dffe">
<path fill="#5c93df" opacity="1.00" d=" M 359.08 506.98 C 368.70 506.65 378.28 505.61 387.86 504.70 C 390.79 505.13 393.64 505.95 396.45 506.88 C 393.74 508.76 390.60 510.05 387.27 509.18 C 388.26 510.13 389.25 511.09 390.24 512.06 C 389.17 513.55 388.07 515.02 386.92 516.44 C 387.10 516.93 387.29 517.42 387.49 517.93 C 386.37 518.04 385.26 518.16 384.15 518.29 C 385.04 518.71 385.93 519.13 386.83 519.56 C 385.92 520.03 385.01 520.50 384.11 520.99 C 384.76 524.78 385.97 528.44 386.90 532.17 C 384.68 532.44 382.49 533.06 380.88 534.69 C 382.42 534.47 383.97 534.22 385.51 533.96 C 384.32 536.09 383.46 538.45 384.07 540.91 C 383.65 541.74 383.24 542.58 382.83 543.43 C 384.03 546.29 383.10 549.18 381.50 551.67 C 382.08 552.21 382.67 552.75 383.26 553.29 C 382.37 554.70 380.96 555.94 380.72 557.65 C 380.88 559.99 381.95 562.15 382.37 564.44 C 382.91 566.71 381.81 568.91 381.24 571.06 C 381.80 571.40 382.37 571.75 382.95 572.10 C 382.11 572.79 381.27 573.48 380.44 574.18 C 381.02 574.79 381.60 575.40 382.19 576.03 C 381.75 577.75 381.89 579.51 381.98 581.26 C 382.01 583.36 380.91 585.73 382.52 587.53 C 383.71 588.62 385.32 589.07 386.78 589.71 C 387.82 587.96 389.86 588.23 391.59 588.17 C 391.48 588.83 391.25 590.15 391.13 590.81 C 382.44 591.61 373.72 591.77 365.01 592.24 C 359.14 591.98 353.27 592.06 347.42 592.47 C 349.99 590.80 353.08 590.78 356.03 590.52 C 353.79 589.89 351.48 589.54 349.16 589.49 C 350.67 583.77 347.66 578.21 348.49 572.43 C 347.84 571.75 347.19 571.09 346.55 570.43 C 347.52 569.12 348.49 567.82 349.46 566.51 C 348.47 564.52 346.69 562.36 348.08 560.11 C 350.11 555.55 349.49 550.00 346.33 546.11 C 347.71 544.81 348.97 543.28 349.30 541.36 C 349.84 539.47 348.32 537.84 347.66 536.19 C 348.67 535.60 349.68 535.04 350.69 534.47 C 350.18 534.27 349.14 533.87 348.63 533.68 C 349.08 530.73 349.93 527.85 351.34 525.21 C 350.26 524.95 349.19 524.71 348.12 524.47 C 348.75 524.29 350.00 523.93 350.62 523.75 C 349.85 522.80 349.08 521.85 348.32 520.90 C 348.98 520.38 349.64 519.86 350.32 519.35 C 350.57 517.51 350.91 515.68 351.35 513.88 C 350.90 513.09 350.45 512.30 350.00 511.52 C 350.78 511.01 351.56 510.50 352.35 510.01 C 352.93 511.46 353.52 512.93 354.14 514.38 C 355.86 512.51 354.92 510.06 354.45 507.93 C 354.90 507.83 355.79 507.63 356.24 507.54 C 360.46 507.21 364.68 508.13 368.90 507.50 C 365.63 507.21 362.34 507.30 359.08 506.98 Z" />
</g>
<g id="#7083ddfe">
<path fill="#7083dd" opacity="1.00" d=" M 250.16 507.35 C 264.41 508.54 278.70 509.00 292.99 509.52 C 289.84 515.61 289.23 522.61 290.01 529.34 C 288.97 528.99 287.92 528.69 286.86 528.43 C 287.77 530.22 288.76 531.98 289.76 533.74 C 288.74 534.99 287.73 536.25 286.79 537.57 C 287.97 537.59 289.02 537.07 290.03 536.50 C 289.35 538.15 289.01 539.90 289.00 541.68 C 287.85 541.27 286.69 540.87 285.54 540.48 C 285.40 542.44 285.16 544.39 284.84 546.33 C 286.30 547.58 288.05 548.83 288.11 550.97 C 286.99 551.97 285.49 552.39 284.14 553.00 C 284.76 555.54 285.95 558.19 284.89 560.79 C 285.26 560.91 285.99 561.15 286.36 561.27 C 285.46 562.44 284.62 563.66 283.85 564.93 C 284.56 565.35 285.28 565.77 285.99 566.19 C 284.98 567.21 283.97 568.22 282.96 569.24 C 283.28 574.54 289.27 576.35 290.05 581.43 C 289.13 581.42 288.23 581.43 287.33 581.43 C 289.25 582.98 290.06 585.27 290.57 587.61 C 292.58 587.86 294.60 588.11 296.62 588.36 C 297.14 589.84 297.65 591.33 298.17 592.84 C 284.29 593.08 270.44 591.74 256.56 592.31 C 255.56 592.14 254.58 591.98 253.59 591.83 C 254.19 591.51 255.40 590.85 256.00 590.52 C 252.10 589.84 248.16 589.47 244.21 589.30 C 244.86 586.11 244.21 582.94 243.55 579.83 C 242.67 576.17 244.84 572.65 244.23 568.99 C 243.72 564.82 243.68 560.62 243.52 556.44 C 244.10 555.79 244.68 555.14 245.27 554.50 C 242.89 548.67 243.78 542.11 244.72 536.06 C 245.86 535.32 247.01 534.61 248.09 533.79 C 247.82 532.52 247.23 531.38 246.71 530.21 C 247.67 529.88 248.63 529.55 249.60 529.24 C 249.97 526.89 250.11 524.52 250.06 522.16 C 249.16 521.50 248.25 520.87 247.36 520.22 C 248.09 519.67 248.82 519.12 249.55 518.57 C 248.92 518.25 248.29 517.94 247.66 517.64 C 249.51 514.61 252.55 510.96 250.16 507.35 Z" />
</g>
<g id="#648bdefe">
<path fill="#648bde" opacity="1.00" d=" M 318.00 509.66 C 330.15 509.11 342.35 509.25 354.45 507.93 C 354.92 510.06 355.86 512.51 354.14 514.38 C 353.52 512.93 352.93 511.46 352.35 510.01 C 351.56 510.50 350.78 511.01 350.00 511.52 C 350.45 512.30 350.90 513.09 351.35 513.88 C 350.91 515.68 350.57 517.51 350.32 519.35 C 349.64 519.86 348.98 520.38 348.32 520.90 C 349.08 521.85 349.85 522.80 350.62 523.75 C 350.00 523.93 348.75 524.29 348.12 524.47 C 349.19 524.71 350.26 524.95 351.34 525.21 C 349.93 527.85 349.08 530.73 348.63 533.68 C 349.14 533.87 350.18 534.27 350.69 534.47 C 349.68 535.04 348.67 535.60 347.66 536.19 C 348.32 537.84 349.84 539.47 349.30 541.36 C 348.97 543.28 347.71 544.81 346.33 546.11 C 349.49 550.00 350.11 555.55 348.08 560.11 C 346.69 562.36 348.47 564.52 349.46 566.51 C 348.49 567.82 347.52 569.12 346.55 570.43 C 347.19 571.09 347.84 571.75 348.49 572.43 C 347.66 578.21 350.67 583.77 349.16 589.49 C 351.48 589.54 353.79 589.89 356.03 590.52 C 353.08 590.78 349.99 590.80 347.42 592.47 C 331.02 593.31 314.58 592.70 298.17 592.84 C 297.65 591.33 297.14 589.84 296.62 588.36 C 294.60 588.11 292.58 587.86 290.57 587.61 C 290.06 585.27 289.25 582.98 287.33 581.43 C 288.23 581.43 289.13 581.42 290.05 581.43 C 289.27 576.35 283.28 574.54 282.96 569.24 C 283.97 568.22 284.98 567.21 285.99 566.19 C 285.28 565.77 284.56 565.35 283.85 564.93 C 284.62 563.66 285.46 562.44 286.36 561.27 C 285.99 561.15 285.26 560.91 284.89 560.79 C 285.95 558.19 284.76 555.54 284.14 553.00 C 285.49 552.39 286.99 551.97 288.11 550.97 C 288.05 548.83 286.30 547.58 284.84 546.33 C 285.16 544.39 285.40 542.44 285.54 540.48 C 286.69 540.87 287.85 541.27 289.00 541.68 C 289.01 539.90 289.35 538.15 290.03 536.50 C 289.02 537.07 287.97 537.59 286.79 537.57 C 287.73 536.25 288.74 534.99 289.76 533.74 C 288.76 531.98 287.77 530.22 286.86 528.43 C 287.92 528.69 288.97 528.99 290.01 529.34 C 289.23 522.61 289.84 515.61 292.99 509.52 C 301.32 509.84 309.66 510.05 318.00 509.66 Z" />
</g>
<g id="#4c4175a7">
<path fill="#4c4175" opacity="0.65" d=" M 104.48 575.53 C 109.70 576.20 114.80 577.60 120.05 578.07 C 128.17 578.88 136.06 581.31 144.23 581.67 C 151.84 582.69 159.41 583.93 167.04 584.79 C 179.11 586.97 191.40 587.08 203.55 588.55 C 220.21 589.86 236.85 591.80 253.59 591.83 C 254.58 591.98 255.56 592.14 256.56 592.31 L 257.53 592.47 C 250.67 592.51 243.82 591.86 236.95 591.87 C 228.35 590.66 219.63 591.10 211.01 590.09 C 205.04 589.00 198.92 589.48 192.92 588.60 C 175.96 586.35 158.89 585.05 142.02 582.16 C 131.68 580.61 121.30 579.27 111.05 577.15 C 108.90 576.54 106.22 577.16 104.48 575.53 Z" />
</g>
<g id="#3b5b85b5">
<path fill="#3b5b85" opacity="0.71" d=" M 440.96 586.61 C 455.44 585.58 469.61 582.02 484.10 581.17 C 466.30 585.03 448.09 586.12 430.06 588.54 C 423.71 589.37 417.24 588.99 410.93 590.21 C 404.61 590.65 398.28 591.02 391.94 591.16 C 385.05 592.56 377.97 591.62 371.03 592.65 C 359.69 592.61 348.41 594.06 337.07 593.88 C 310.55 593.88 283.98 594.43 257.53 592.47 L 256.56 592.31 C 270.44 591.74 284.29 593.08 298.17 592.84 C 314.58 592.70 331.02 593.31 347.42 592.47 C 353.27 592.06 359.14 591.98 365.01 592.24 C 373.72 591.77 382.44 591.61 391.13 590.81 C 403.84 589.92 416.53 588.75 429.21 587.54 C 433.12 587.13 437.04 586.92 440.96 586.61 Z" />
</g>
</svg>
